<?xml version="1.0" encoding="utf-8"?>
<!-- Generator: Adobe Illustrator 27.8.1, SVG Export Plug-In . SVG Version: 6.00 Build 0)  -->
<svg version="1.1" id="Layer_1" xmlns="http://www.w3.org/2000/svg" xmlns:xlink="http://www.w3.org/1999/xlink" x="0px" y="0px"
	 viewBox="0 0 3302.7 3273.5" style="enable-background:new 0 0 3302.7 3273.5;" xml:space="preserve">
<style type="text/css">
	.st0{fill:#7537F8;}
</style>
<g>
	<g id="Octogon">
		<path class="st0" d="M2535.6,1361.4c-10-3.7-20-7.7-29.9-11.7c-244.1-100.2-439.2-295.3-539.4-539.4c-3.9-9.5-7.7-19.1-11.3-28.8
			h-0.1c-33.5-66.2-153-115.2-295.3-115.2s-261.8,49-295.3,115.2h-0.2c-3.6,9.7-7.4,19.3-11.3,28.8
			c73.2,197.6,177.4,380.1,306.8,541.6c8.4,10.5,17,21,25.6,31.3s17.4,20.6,26.2,30.8l0.1,0.1c5.2,5.9,10.4,11.8,15.6,17.7
			c15.7,17.6,31.7,34.9,48,51.9l0,0c40.5,42.2,82.8,82.5,126.8,120.9l0,0c20.3,17.7,41.1,35,62.1,51.9
			c-69.4,55.6-135,115.9-196.1,180.3c-22.5,18.8-48.7,35.4-56.5,29.7l13.8,16.7l0,0l12.3,15.3c118.4,147.7,215.1,310,288.3,483.2
			c108.9-187.3,277.5-335.5,479.8-418.5c9.9-4.1,19.8-8,29.9-11.7c65.9-33.8,114.7-153.1,114.7-295
			C2650.2,1514.5,2601.5,1395.3,2535.6,1361.4z"/>
		<path class="st0" d="M1633.9,1929.7c-8.6-10.3-17.4-20.6-26.2-30.8l-0.1-0.1c-5.2-5.9-10.4-11.8-15.6-17.7
			c-15.7-17.6-31.7-34.9-48-51.9l0,0c-40.5-42.2-82.8-82.5-126.8-120.9l0,0c-20.3-17.7-41.1-35-62.1-51.9
			c68.6-55,133.5-114.5,194-178.1c22.6-19.5,49.8-36.9,57.9-31l-13.1-17.7l0,0l-12.3-15.3c-118.4-147.7-215.1-310-288.3-483.2
			c-108.9,187.3-277.5,335.5-479.8,418.5c-9.9,4.1-19.8,8-29.9,11.7c-65.9,33.8-114.7,153.1-114.7,295s48.7,261.2,114.7,295
			c10,3.7,20,7.7,29.9,11.7c244.1,100.2,439.2,295.3,539.4,539.4c3.9,9.5,7.7,19.1,11.3,28.8h0.1c33.5,66.2,153,115.2,295.3,115.2
			s261.8-49,295.3-115.2h0.2c3.6-9.7,7.4-19.3,11.3-28.8c-73.2-197.6-177.4-380.1-306.8-541.6
			C1651.1,1950.5,1642.6,1940.1,1633.9,1929.7z"/>
	</g>
</g>
</svg>
