<svg width="265" height="266" viewBox="0 0 265 266" fill="none" xmlns="http://www.w3.org/2000/svg">
<path d="M249.3 93.7993C248 93.2993 246.6 92.7995 245.3 92.1995C212.7 78.7995 186.6 52.6994 173.2 20.0994C172.7 18.7994 172.2 17.4993 171.7 16.2993C167.2 7.49932 151.3 0.899414 132.3 0.899414C113.3 0.899414 97.3 7.39932 92.9 16.2993C92.4 17.5993 91.9 18.8995 91.4 20.1995C101.2 46.5995 115.1 70.9994 132.4 92.5994C133.5 93.9994 134.7 95.3993 135.8 96.7993C136.9 98.1993 138.1 99.5994 139.3 100.899C140 101.699 140.7 102.499 141.4 103.299C143.5 105.699 145.6 107.999 147.8 110.199C153.2 115.799 158.9 121.199 164.7 126.399C167.4 128.799 170.2 131.099 173 133.299C163.7 140.699 155 148.799 146.8 157.399C143.8 159.899 140.3 162.099 139.3 161.399L141.1 163.599L142.7 165.599C158.5 185.299 171.4 206.999 181.2 230.199C195.7 205.199 218.3 185.399 245.3 174.299C246.6 173.799 247.9 173.199 249.3 172.699C258.1 168.199 264.6 152.199 264.6 133.299C264.6 114.199 258.1 98.2993 249.3 93.7993Z" fill="#F64C4C"/>
<path d="M128.8 169.699C127.6 168.299 126.5 166.899 125.3 165.599C124.6 164.799 123.9 163.999 123.2 163.199C121.1 160.799 119 158.499 116.8 156.299C111.4 150.699 105.7 145.299 99.9 140.199C97.2 137.799 94.4 135.499 91.6 133.299C100.8 125.999 109.4 117.999 117.5 109.499C120.5 106.899 124.1 104.599 125.2 105.399L123.5 102.999L121.9 100.999C106.1 81.2993 93.2 59.5994 83.4 36.3994C68.9 61.3994 46.3 81.1993 19.3 92.2993C18 92.7993 16.7 93.3994 15.3 93.8994C6.5 98.3994 0 114.399 0 133.299C0 152.299 6.5 168.199 15.3 172.699C16.6 173.199 18 173.699 19.3 174.299C51.9 187.699 78 213.799 91.4 246.399C91.9 247.699 92.4 248.999 92.9 250.199C97.4 258.999 113.3 265.599 132.3 265.599C151.3 265.599 167.3 259.099 171.7 250.199C172.2 248.899 172.7 247.599 173.2 246.299C163.4 219.899 149.5 195.499 132.2 173.899C131.1 172.499 130 171.099 128.8 169.699Z" fill="#F64C4C"/>
</svg>
