<?xml version="1.0" encoding="utf-8"?>
<!-- Generator: Adobe Illustrator 16.0.3, SVG Export Plug-In . SVG Version: 6.00 Build 0)  -->
<!DOCTYPE svg PUBLIC "-//W3C//DTD SVG 1.1//EN" "http://www.w3.org/Graphics/SVG/1.1/DTD/svg11.dtd">
<svg version="1.1" id="Capa_1" xmlns="http://www.w3.org/2000/svg" xmlns:xlink="http://www.w3.org/1999/xlink" x="0px" y="0px"
	 width="28px" height="28px" viewBox="-0.958 -0.958 28 28" enable-background="new -0.958 -0.958 28 28" xml:space="preserve">
<g>
	<path fill="#722FFF" d="M25.449,8.883c-0.138-0.054-0.284-0.106-0.424-0.17c-3.452-1.42-6.219-4.183-7.635-7.636
		c-0.055-0.139-0.108-0.277-0.16-0.405c-0.477-0.931-2.159-1.63-4.173-1.63c-2.011,0-3.706,0.688-4.173,1.63
		c-0.056,0.14-0.108,0.276-0.162,0.416c1.037,2.794,2.513,5.38,4.346,7.667c0.115,0.148,0.242,0.297,0.359,0.445
		c0.126,0.148,0.242,0.296,0.369,0.434c0.074,0.082,0.148,0.17,0.223,0.254c0.222,0.252,0.446,0.5,0.679,0.731
		c0.571,0.594,1.177,1.165,1.791,1.715c0.284,0.256,0.581,0.498,0.879,0.73c-0.985,0.786-1.906,1.645-2.774,2.554
		c-0.319,0.269-0.689,0.5-0.797,0.426l0.191,0.233l0.171,0.21c1.671,2.087,3.04,4.387,4.078,6.843
		c1.536-2.647,3.929-4.744,6.792-5.923c0.136-0.05,0.273-0.115,0.423-0.165c0.932-0.479,1.62-2.174,1.62-4.174
		C27.072,11.043,26.384,9.359,25.449,8.883z"/>
	<path fill="#722FFF" d="M12.684,16.922c-0.125-0.148-0.242-0.297-0.369-0.435c-0.074-0.083-0.148-0.171-0.223-0.253
		c-0.223-0.254-0.445-0.498-0.68-0.73c-0.572-0.592-1.175-1.164-1.788-1.707c-0.285-0.254-0.581-0.497-0.879-0.729
		c0.974-0.775,1.887-1.623,2.743-2.522c0.317-0.274,0.699-0.519,0.815-0.433l-0.178-0.255l-0.172-0.214
		c-1.672-2.086-3.039-4.384-4.076-6.843C6.34,5.451,3.948,7.547,1.086,8.723C0.948,8.776,0.812,8.841,0.663,8.895
		c-0.933,0.476-1.621,2.17-1.621,4.174c0,2.01,0.688,3.699,1.621,4.174c0.138,0.052,0.285,0.105,0.423,0.169
		c3.453,1.42,6.218,4.183,7.637,7.636c0.054,0.138,0.106,0.275,0.16,0.402c0.477,0.934,2.16,1.632,4.175,1.632
		c2.011,0,3.705-0.688,4.173-1.632c0.052-0.138,0.105-0.273,0.16-0.413c-1.041-2.796-2.514-5.378-4.346-7.668
		C12.931,17.22,12.813,17.07,12.684,16.922z"/>
</g>
</svg>
