<?xml version="1.0" encoding="UTF-8"?>
<svg xmlns="http://www.w3.org/2000/svg" xmlns:xlink="http://www.w3.org/1999/xlink" width="28px" height="28px" viewBox="0 0 28 28" version="1.1">
<g id="surface1">
<path style=" stroke:none;fill-rule:nonzero;fill:rgb(96.470588%,29.803922%,29.803922%);fill-opacity:1;" d="M 26.339844 9.875 C 26.203125 9.820312 26.054688 9.769531 25.917969 9.707031 C 22.472656 8.292969 19.714844 5.546875 18.300781 2.117188 C 18.246094 1.980469 18.195312 1.84375 18.140625 1.714844 C 17.667969 0.789062 15.988281 0.09375 13.980469 0.09375 C 11.972656 0.09375 10.28125 0.777344 9.816406 1.714844 C 9.761719 1.851562 9.710938 1.988281 9.65625 2.125 C 10.691406 4.90625 12.160156 7.472656 13.988281 9.746094 C 14.105469 9.894531 14.234375 10.042969 14.347656 10.1875 C 14.464844 10.335938 14.589844 10.484375 14.71875 10.621094 C 14.792969 10.707031 14.867188 10.789062 14.941406 10.875 C 15.164062 11.125 15.382812 11.367188 15.617188 11.601562 C 16.1875 12.1875 16.789062 12.757812 17.402344 13.304688 C 17.6875 13.558594 17.984375 13.800781 18.277344 14.03125 C 17.296875 14.808594 16.378906 15.664062 15.511719 16.566406 C 15.195312 16.832031 14.824219 17.0625 14.71875 16.988281 L 14.910156 17.222656 L 15.078125 17.429688 C 16.746094 19.503906 18.109375 21.789062 19.144531 24.230469 C 20.679688 21.601562 23.066406 19.515625 25.917969 18.347656 C 26.054688 18.292969 26.191406 18.230469 26.339844 18.179688 C 27.269531 17.707031 27.957031 16.019531 27.957031 14.03125 C 27.957031 12.019531 27.269531 10.347656 26.339844 9.875 Z M 26.339844 9.875 "/>
<path style=" stroke:none;fill-rule:nonzero;fill:rgb(96.470588%,29.803922%,29.803922%);fill-opacity:1;" d="M 13.609375 17.863281 C 13.480469 17.714844 13.367188 17.566406 13.238281 17.429688 C 13.164062 17.347656 13.089844 17.261719 13.015625 17.179688 C 12.796875 16.925781 12.574219 16.683594 12.339844 16.453125 C 11.769531 15.863281 11.167969 15.292969 10.554688 14.757812 C 10.269531 14.503906 9.972656 14.261719 9.679688 14.03125 C 10.652344 13.261719 11.558594 12.421875 12.414062 11.527344 C 12.730469 11.253906 13.113281 11.011719 13.230469 11.09375 L 13.050781 10.84375 L 12.878906 10.632812 C 11.210938 8.558594 9.847656 6.273438 8.8125 3.832031 C 7.28125 6.464844 4.890625 8.546875 2.039062 9.714844 C 1.902344 9.769531 1.765625 9.832031 1.617188 9.882812 C 0.6875 10.359375 0 12.042969 0 14.03125 C 0 16.03125 0.6875 17.707031 1.617188 18.179688 C 1.753906 18.230469 1.902344 18.285156 2.039062 18.347656 C 5.484375 19.757812 8.242188 22.503906 9.65625 25.9375 C 9.710938 26.074219 9.761719 26.210938 9.816406 26.335938 C 10.292969 27.261719 11.972656 27.957031 13.980469 27.957031 C 15.988281 27.957031 17.675781 27.273438 18.140625 26.335938 C 18.195312 26.199219 18.246094 26.0625 18.300781 25.925781 C 17.265625 23.148438 15.796875 20.578125 13.96875 18.304688 C 13.851562 18.15625 13.734375 18.011719 13.609375 17.863281 Z M 13.609375 17.863281 "/>
</g>
</svg>
