<svg width="265" height="265" viewBox="0 0 265 265" fill="none" xmlns="http://www.w3.org/2000/svg">
<path d="M249.3 93.1997C248 92.6997 246.6 92.1997 245.3 91.5997C212.7 78.1997 186.6 52.0998 173.2 19.4998C172.7 18.1998 172.2 16.8997 171.7 15.6997C167.2 6.89971 151.3 0.299805 132.3 0.299805C113.3 0.299805 97.3 6.79971 92.9 15.6997C92.4 16.9997 91.9 18.2997 91.4 19.5997C101.2 45.9997 115.1 70.3998 132.4 91.9998C133.5 93.3998 134.7 94.7997 135.8 96.1997C136.9 97.5997 138.1 98.9998 139.3 100.3C140 101.1 140.7 101.9 141.4 102.7C143.5 105.1 145.6 107.4 147.8 109.6C153.2 115.2 158.9 120.6 164.7 125.8C167.4 128.2 170.2 130.5 173 132.7C163.7 140.1 155 148.2 146.8 156.8C143.8 159.3 140.3 161.5 139.3 160.8L141.1 163L142.7 165C158.5 184.7 171.4 206.4 181.2 229.6C195.7 204.6 218.3 184.8 245.3 173.7C246.6 173.2 247.9 172.6 249.3 172.1C258.1 167.6 264.6 151.6 264.6 132.7C264.6 113.8 258.1 97.6997 249.3 93.1997Z" fill="#0FB800"/>
<path d="M128.8 169.099C127.6 167.699 126.5 166.299 125.3 164.999C124.6 164.199 123.9 163.399 123.2 162.599C121.1 160.299 119 157.899 116.8 155.699C111.4 150.099 105.7 144.699 99.9 139.499C97.2 137.099 94.4 134.799 91.6 132.599C100.8 125.299 109.4 117.299 117.5 108.799C120.5 106.199 124.1 103.899 125.2 104.699L123.5 102.299L121.9 100.299C106.1 80.5993 93.2 58.8992 83.4 35.6992C68.9 60.6992 46.3 80.4992 19.3 91.5992C18 92.0992 16.7 92.6992 15.3 93.1992C6.5 97.6992 0 113.699 0 132.599C0 151.499 6.5 167.499 15.3 171.999C16.6 172.499 18 172.999 19.3 173.599C51.9 186.999 78 213.099 91.4 245.699C91.9 246.999 92.4 248.299 92.9 249.499C97.4 258.299 113.3 264.899 132.3 264.899C151.3 264.899 167.3 258.399 171.7 249.499C172.2 248.199 172.7 246.899 173.2 245.599C163.4 219.199 149.5 194.799 132.2 173.199C131.1 171.899 130 170.499 128.8 169.099Z" fill="#0FB800"/>
</svg>
