<?xml version="1.0" encoding="UTF-8"?>
<svg xmlns="http://www.w3.org/2000/svg" xmlns:xlink="http://www.w3.org/1999/xlink" width="28px" height="28px" viewBox="0 0 28 28" version="1.1">
<g id="surface1">
<path style=" stroke:none;fill-rule:nonzero;fill:rgb(0%,76.078431%,63.137255%);fill-opacity:1;" d="M 26.339844 9.851562 C 26.203125 9.800781 26.054688 9.746094 25.917969 9.683594 C 22.472656 8.273438 19.714844 5.527344 18.300781 2.09375 C 18.246094 1.957031 18.195312 1.820312 18.140625 1.695312 C 17.667969 0.769531 15.988281 0.0742188 13.980469 0.0742188 C 11.972656 0.0742188 10.28125 0.757812 9.816406 1.695312 C 9.761719 1.832031 9.710938 1.96875 9.65625 2.105469 C 10.691406 4.882812 12.160156 7.453125 13.988281 9.726562 C 14.105469 9.875 14.234375 10.019531 14.347656 10.167969 C 14.476562 10.316406 14.589844 10.464844 14.71875 10.601562 C 14.792969 10.683594 14.867188 10.769531 14.941406 10.851562 C 15.164062 11.09375 15.382812 11.347656 15.617188 11.578125 C 16.1875 12.167969 16.789062 12.738281 17.402344 13.285156 C 17.6875 13.535156 17.984375 13.777344 18.277344 14.011719 C 17.296875 14.789062 16.378906 15.640625 15.511719 16.546875 C 15.195312 16.808594 14.824219 17.042969 14.71875 16.96875 L 14.910156 17.199219 L 15.078125 17.410156 C 16.746094 19.484375 18.109375 21.769531 19.144531 24.210938 C 20.679688 21.578125 23.066406 19.496094 25.917969 18.328125 C 26.054688 18.273438 26.191406 18.210938 26.339844 18.15625 C 27.269531 17.683594 27.957031 16 27.957031 14.011719 C 27.957031 12 27.269531 10.328125 26.339844 9.851562 Z M 26.339844 9.851562 "/>
<path style=" stroke:none;fill-rule:nonzero;fill:rgb(0%,76.078431%,63.137255%);fill-opacity:1;" d="M 13.609375 17.84375 C 13.480469 17.695312 13.367188 17.546875 13.238281 17.410156 C 13.164062 17.328125 13.089844 17.242188 13.015625 17.15625 C 12.796875 16.914062 12.574219 16.664062 12.339844 16.429688 C 11.769531 15.84375 11.167969 15.273438 10.554688 14.726562 C 10.269531 14.472656 9.972656 14.230469 9.679688 14 C 10.652344 13.230469 11.558594 12.390625 12.414062 11.496094 C 12.730469 11.222656 13.113281 10.980469 13.230469 11.0625 L 13.050781 10.808594 L 12.878906 10.601562 C 11.210938 8.527344 9.847656 6.242188 8.8125 3.800781 C 7.28125 6.429688 4.890625 8.515625 2.039062 9.683594 C 1.902344 9.738281 1.765625 9.800781 1.617188 9.851562 C 0.6875 10.328125 0 12.011719 0 14 C 0 16 0.6875 17.671875 1.617188 18.148438 C 1.753906 18.199219 1.902344 18.253906 2.039062 18.316406 C 5.484375 19.726562 8.242188 22.472656 9.65625 25.90625 C 9.710938 26.042969 9.761719 26.179688 9.816406 26.304688 C 10.292969 27.230469 11.972656 27.925781 13.980469 27.925781 C 15.988281 27.925781 17.675781 27.242188 18.140625 26.304688 C 18.195312 26.167969 18.246094 26.03125 18.300781 25.894531 C 17.265625 23.117188 15.796875 20.546875 13.96875 18.273438 C 13.851562 18.136719 13.734375 17.988281 13.609375 17.84375 Z M 13.609375 17.84375 "/>
</g>
</svg>
