<?xml version="1.0" encoding="UTF-8"?>
<svg xmlns="http://www.w3.org/2000/svg" xmlns:xlink="http://www.w3.org/1999/xlink" width="28px" height="28px" viewBox="0 0 28 28" version="1.1">
<g id="surface1">
<path style=" stroke:none;fill-rule:nonzero;fill:rgb(5.882353%,72.156863%,0%);fill-opacity:1;" d="M 26.339844 9.847656 C 26.203125 9.792969 26.054688 9.742188 25.917969 9.679688 C 22.472656 8.261719 19.714844 5.503906 18.300781 2.058594 C 18.246094 1.921875 18.195312 1.785156 18.140625 1.660156 C 17.667969 0.730469 15.988281 0.03125 13.980469 0.03125 C 11.972656 0.03125 10.28125 0.71875 9.816406 1.660156 C 9.761719 1.796875 9.710938 1.933594 9.65625 2.070312 C 10.691406 4.859375 12.160156 7.4375 13.988281 9.722656 C 14.105469 9.867188 14.234375 10.015625 14.347656 10.164062 C 14.464844 10.3125 14.589844 10.460938 14.71875 10.597656 C 14.792969 10.683594 14.867188 10.765625 14.941406 10.851562 C 15.164062 11.105469 15.382812 11.347656 15.617188 11.582031 C 16.1875 12.171875 16.789062 12.742188 17.402344 13.292969 C 17.6875 13.546875 17.984375 13.789062 18.277344 14.019531 C 17.296875 14.804688 16.378906 15.660156 15.511719 16.566406 C 15.195312 16.832031 14.824219 17.0625 14.71875 16.988281 L 14.910156 17.222656 L 15.078125 17.433594 C 16.746094 19.515625 18.109375 21.808594 19.144531 24.257812 C 20.679688 21.617188 23.066406 19.527344 25.917969 18.351562 C 26.054688 18.300781 26.191406 18.238281 26.339844 18.183594 C 27.269531 17.707031 27.957031 16.019531 27.957031 14.019531 C 27.957031 12.023438 27.269531 10.324219 26.339844 9.847656 Z M 26.339844 9.847656 "/>
<path style=" stroke:none;fill-rule:nonzero;fill:rgb(5.882353%,72.156863%,0%);fill-opacity:1;" d="M 13.609375 17.867188 C 13.480469 17.71875 13.367188 17.570312 13.238281 17.433594 C 13.164062 17.347656 13.089844 17.265625 13.015625 17.179688 C 12.796875 16.9375 12.574219 16.683594 12.339844 16.453125 C 11.769531 15.859375 11.167969 15.289062 10.554688 14.738281 C 10.269531 14.484375 9.972656 14.242188 9.679688 14.011719 C 10.652344 13.238281 11.558594 12.394531 12.414062 11.496094 C 12.730469 11.222656 13.113281 10.976562 13.230469 11.0625 L 13.050781 10.808594 L 12.878906 10.597656 C 11.210938 8.515625 9.847656 6.222656 8.8125 3.773438 C 7.28125 6.414062 4.890625 8.503906 2.039062 9.679688 C 1.902344 9.730469 1.765625 9.792969 1.617188 9.847656 C 0.6875 10.324219 0 12.011719 0 14.011719 C 0 16.007812 0.6875 17.699219 1.617188 18.171875 C 1.753906 18.226562 1.902344 18.277344 2.039062 18.34375 C 5.484375 19.757812 8.242188 22.515625 9.65625 25.960938 C 9.710938 26.097656 9.761719 26.234375 9.816406 26.363281 C 10.292969 27.292969 11.972656 27.988281 13.980469 27.988281 C 15.988281 27.988281 17.675781 27.300781 18.140625 26.363281 C 18.195312 26.226562 18.246094 26.085938 18.300781 25.949219 C 17.265625 23.160156 15.796875 20.582031 13.96875 18.300781 C 13.851562 18.164062 13.734375 18.015625 13.609375 17.867188 Z M 13.609375 17.867188 "/>
</g>
</svg>
