<svg width="265" height="266" viewBox="0 0 265 266" fill="none" xmlns="http://www.w3.org/2000/svg">
<path d="M249.3 93.6C248 93.1 246.6 92.6 245.3 92C212.7 78.6 186.6 52.5 173.2 19.9C172.7 18.6 172.2 17.3 171.7 16.1C167.2 7.30004 151.3 0.700012 132.3 0.700012C113.3 0.700012 97.3 7.20004 92.9 16.1C92.4 17.4 91.9 18.7 91.4 20C101.2 46.4 115.1 70.8 132.4 92.4C133.5 93.8 134.7 95.2 135.8 96.6C137 98 138.1 99.4 139.3 100.7C140 101.5 140.7 102.3 141.4 103.1C143.5 105.4 145.6 107.8 147.8 110C153.2 115.6 158.9 121 164.7 126.2C167.4 128.6 170.2 130.9 173 133.1C163.7 140.5 155 148.6 146.8 157.2C143.8 159.7 140.3 161.9 139.3 161.2L141.1 163.4L142.7 165.4C158.5 185.1 171.4 206.8 181.2 230C195.7 205 218.3 185.2 245.3 174.1C246.6 173.6 247.9 173 249.3 172.5C258.1 168 264.6 152 264.6 133.1C264.6 114 258.1 98.1 249.3 93.6Z" fill="#00C2A1"/>
<path d="M128.8 169.5C127.6 168.1 126.5 166.7 125.3 165.4C124.6 164.6 123.9 163.8 123.2 163C121.1 160.7 119 158.3 116.8 156.1C111.4 150.5 105.7 145.1 99.9 139.9C97.2 137.5 94.4 135.2 91.6 133C100.8 125.7 109.4 117.7 117.5 109.2C120.5 106.6 124.1 104.3 125.2 105.1L123.5 102.7L121.9 100.7C106.1 81.0004 93.2 59.3004 83.4 36.1004C68.9 61.1004 46.3 80.9004 19.3 92.0004C18 92.5004 16.7 93.1004 15.3 93.6004C6.5 98.1004 0 114.1 0 133C0 152 6.5 167.9 15.3 172.4C16.6 172.9 18 173.4 19.3 174C51.9 187.4 78 213.5 91.4 246.1C91.9 247.4 92.4 248.7 92.9 249.9C97.4 258.7 113.3 265.3 132.3 265.3C151.3 265.3 167.3 258.8 171.7 249.9C172.2 248.6 172.7 247.3 173.2 246C163.4 219.6 149.5 195.2 132.2 173.6C131.1 172.3 130 170.9 128.8 169.5Z" fill="#00C2A1"/>
</svg>
