<svg width="265" height="266" viewBox="0 0 265 266" fill="none" xmlns="http://www.w3.org/2000/svg">
<path d="M249.3 93.4999C248 92.9999 246.6 92.4998 245.3 91.8998C212.7 78.4998 186.6 52.3999 173.2 19.7999C172.7 18.4999 172.2 17.1999 171.7 15.9999C167.2 7.19988 151.3 0.599854 132.3 0.599854C113.3 0.599854 97.3 7.09988 92.9 15.9999C92.4 17.2999 91.9 18.5999 91.4 19.8999C101.2 46.2999 115.1 70.6999 132.4 92.2999C133.5 93.6999 134.7 95.0999 135.8 96.4999C137 97.8999 138.1 99.2999 139.3 100.6C140 101.4 140.7 102.2 141.4 103C143.5 105.3 145.6 107.7 147.8 109.9C153.2 115.5 158.9 120.9 164.7 126.1C167.4 128.5 170.2 130.8 173 133C163.7 140.4 155 148.5 146.8 157.1C143.8 159.6 140.3 161.8 139.3 161.1L141.1 163.3L142.7 165.3C158.5 185 171.4 206.7 181.2 229.9C195.7 204.9 218.3 185.1 245.3 174C246.6 173.5 247.9 172.9 249.3 172.4C258.1 167.9 264.6 151.9 264.6 133C264.6 113.9 258.1 97.9999 249.3 93.4999Z" fill="#0E8DFF"/>
<path d="M128.8 169.4C127.6 168 126.5 166.6 125.3 165.3C124.6 164.5 123.9 163.7 123.2 162.9C121.1 160.6 119 158.2 116.8 156C111.4 150.4 105.7 145 99.9 139.9C97.2 137.5 94.4 135.2 91.6 133C100.8 125.7 109.4 117.7 117.5 109.2C120.5 106.6 124.1 104.3 125.2 105.1L123.5 102.7L121.9 100.7C106.1 80.9999 93.2 59.2999 83.4 36.0999C68.9 61.0999 46.3 80.8999 19.3 91.9999C18 92.4999 16.7 93.0999 15.3 93.5999C6.5 98.0999 0 114.1 0 133C0 152 6.5 167.9 15.3 172.4C16.6 172.9 18 173.4 19.3 174C51.9 187.4 78 213.5 91.4 246.1C91.9 247.4 92.4 248.7 92.9 249.9C97.4 258.7 113.3 265.3 132.3 265.3C151.3 265.3 167.3 258.8 171.7 249.9C172.2 248.6 172.7 247.3 173.2 246C163.4 219.6 149.5 195.2 132.2 173.6C131.1 172.2 130 170.8 128.8 169.4Z" fill="#1E8CEF"/>
</svg>
