<svg width="265" height="265" viewBox="0 0 265 265" fill="none" xmlns="http://www.w3.org/2000/svg">
<path d="M249.3 92.9C248 92.4 246.6 91.9 245.3 91.3C212.7 77.9 186.6 51.8 173.2 19.2C172.7 17.9 172.2 16.6 171.7 15.4C167.2 6.6 151.3 0 132.3 0C113.3 0 97.3 6.5 92.9 15.4C92.4 16.7 91.9 18 91.4 19.3C101.2 45.7 115.1 70.1 132.4 91.7C133.5 93.1 134.7 94.5 135.8 95.9C137 97.3 138.1 98.7 139.3 100C140 100.8 140.7 101.6 141.4 102.4C143.5 104.8 145.6 107.1 147.8 109.3C153.2 114.9 158.9 120.3 164.7 125.5C167.4 127.9 170.2 130.2 173 132.4C163.7 139.8 155 147.9 146.8 156.5C143.8 159 140.3 161.2 139.3 160.5L141.1 162.7L142.7 164.7C158.5 184.4 171.4 206.1 181.2 229.3C195.7 204.3 218.3 184.5 245.3 173.4C246.6 172.9 247.9 172.3 249.3 171.8C258.1 167.3 264.6 151.3 264.6 132.4C264.6 113.3 258.1 97.4 249.3 92.9Z" fill="#722FFF"/>
<path d="M128.8 168.8C127.6 167.4 126.5 166 125.3 164.7C124.6 163.9 123.9 163.1 123.2 162.3C121.1 159.9 119 157.6 116.8 155.4C111.4 149.8 105.7 144.4 99.9 139.3C97.2 136.9 94.4 134.6 91.6 132.4C100.8 125.1 109.4 117.1 117.5 108.6C120.5 106 124.1 103.7 125.2 104.5L123.5 102.1L121.9 100.1C106.1 80.4 93.2 58.7 83.4 35.5C68.9 60.5 46.3 80.3 19.3 91.4C18 91.9 16.7 92.5 15.3 93C6.5 97.5 0 113.5 0 132.4C0 151.4 6.5 167.3 15.3 171.8C16.6 172.3 18 172.8 19.3 173.4C51.9 186.8 78 212.9 91.4 245.5C91.9 246.8 92.4 248.1 92.9 249.3C97.4 258.1 113.3 264.7 132.3 264.7C151.3 264.7 167.3 258.2 171.7 249.3C172.2 248 172.7 246.7 173.2 245.4C163.4 219 149.5 194.6 132.2 173C131.1 171.6 130 170.2 128.8 168.8Z" fill="#722FFF"/>
</svg>
