<svg width="7195" height="1972" viewBox="0 0 7195 1972" fill="none" xmlns="http://www.w3.org/2000/svg">
<path d="M1857.24 692.087C1847.55 688.362 1837.12 684.637 1827.44 680.167C1584.57 580.34 1390.13 385.9 1290.31 143.036C1286.58 133.352 1282.86 123.667 1279.13 114.727C1245.61 49.1689 1127.16 0 985.609 0C844.063 0 724.866 48.4239 692.087 114.727C688.362 124.412 684.637 134.096 680.912 143.781C753.92 340.456 857.473 522.232 986.354 683.148C994.549 693.577 1003.49 704.007 1011.68 714.437C1020.62 724.867 1028.82 735.296 1037.76 744.981C1042.97 750.941 1048.19 756.901 1053.4 762.861C1069.05 779.995 1084.69 797.874 1101.08 814.264C1141.31 855.983 1183.77 896.212 1226.98 934.951C1247.1 952.831 1267.96 969.965 1288.82 986.355C1219.53 1041.48 1154.72 1101.83 1093.63 1165.9C1071.28 1184.52 1045.21 1200.91 1037.76 1195.69L1051.17 1212.08L1063.09 1226.98C1180.79 1373.74 1276.9 1535.41 1349.9 1708.24C1457.93 1522 1626.29 1374.49 1827.44 1291.8C1837.12 1288.07 1846.81 1283.6 1857.24 1279.88C1922.8 1246.35 1971.22 1127.16 1971.22 986.355C1971.22 844.063 1922.8 725.612 1857.24 692.087Z" fill="#00C2A1"/>
<path d="M959.535 1257.53C950.596 1247.1 942.401 1236.67 933.461 1226.99C928.246 1221.03 923.031 1215.07 917.816 1209.11C902.172 1191.97 886.527 1174.09 870.138 1157.7C829.909 1115.98 787.445 1075.76 744.236 1037.02C724.121 1019.14 703.262 1002 682.402 985.613C750.941 931.229 815.009 871.631 875.352 808.307C897.702 788.938 924.521 771.803 932.716 777.763L920.051 759.884L908.132 744.984C790.425 598.223 694.322 436.562 621.314 263.727C513.292 449.972 344.926 597.478 143.781 680.171C134.097 683.896 124.412 688.366 113.982 692.091C48.4237 725.615 0 844.811 0 985.613C0 1127.16 48.4237 1245.61 113.982 1279.14C123.667 1282.86 134.097 1286.59 143.781 1291.05C386.645 1390.88 581.085 1585.32 680.912 1828.19C684.637 1837.87 688.362 1847.56 692.087 1856.5C725.611 1922.05 844.063 1971.22 985.61 1971.22C1127.16 1971.22 1246.35 1922.8 1279.13 1856.5C1282.86 1846.81 1286.58 1837.13 1290.31 1827.44C1217.3 1630.77 1113.75 1448.99 984.865 1288.07C976.67 1278.39 968.475 1267.96 959.535 1257.53Z" fill="#00C2A1"/>
<path d="M2670.47 530.953C2836.13 530.953 2936.39 632.309 2936.39 793.607C2936.39 948.365 2837.22 1057.35 2669.38 1057.35H2500.46V1329.81H2351.15V530.953H2500.46H2670.47ZM2642.14 927.658C2739.13 927.658 2779.46 863.357 2779.46 790.337C2779.46 724.946 2739.13 662.825 2643.23 662.825H2500.46V927.658H2642.14ZM2970.44 1058.44C2970.44 891.693 3083.78 773.99 3253.8 773.99C3423.81 773.99 3536.07 891.693 3536.07 1058.44C3536.07 1226.28 3423.81 1342.89 3253.8 1342.89C3083.78 1342.89 2970.44 1226.28 2970.44 1058.44ZM3114.3 1058.44C3114.3 1151.08 3168.79 1215.38 3253.8 1215.38C3337.71 1215.38 3393.3 1151.08 3393.3 1058.44C3393.3 965.803 3337.71 901.502 3253.8 901.502C3168.79 901.502 3114.3 965.803 3114.3 1058.44ZM3635.2 1329.81V515.695H3777.97V1329.81H3635.2ZM4286.12 789.247H4434.34L4174.96 1457.32C4108.48 1629.52 3968.98 1608.81 3865.44 1570.67L3903.58 1442.07C3962.44 1478.03 4032.19 1481.3 4058.34 1407.19L4075.78 1361.42L3844.73 789.247H3995.13L4142.26 1179.41L4286.12 789.247ZM5317.18 1329.81L5256.15 1148.9H4967.34L4904.13 1329.81H4749.37L5037.09 530.953H5183.13H5187.49L5475.21 1329.81H5317.18ZM5010.93 1024.65H5212.55L5112.29 732.575L5010.93 1024.65ZM5826.26 789.247V906.951H5722.72V1329.81H5583.22V906.951H5478.6V789.247H5583.22V621.411H5722.72V789.247H5826.26ZM5907.49 1329.81V515.695H6050.26V1329.81H5907.49ZM6639.09 1329.81H6501.77C6499.59 1318.91 6496.32 1298.21 6494.14 1274.23C6466.89 1312.37 6411.31 1343.98 6333.93 1343.98C6220.59 1343.98 6137.76 1279.68 6137.76 1168.51C6137.76 1059.53 6215.14 998.498 6333.93 998.498H6490.87V979.971C6490.87 913.49 6446.18 887.334 6384.06 887.334C6320.85 887.334 6280.53 914.58 6255.46 963.623L6151.93 904.771C6203.15 808.865 6291.43 772.9 6392.78 772.9C6514.85 772.9 6629.28 826.302 6629.28 1000.68V1207.75C6629.28 1261.15 6633.64 1312.37 6639.09 1329.81ZM6491.96 1106.39V1095.49H6367.72C6311.04 1095.49 6281.62 1123.83 6281.62 1166.34C6281.62 1212.11 6314.31 1237.18 6372.08 1237.18C6423.3 1237.18 6491.96 1211.02 6491.96 1106.39ZM6850.77 1168.51C6852.95 1206.66 6886.73 1230.64 6939.04 1230.64C6982.64 1230.64 7016.42 1214.29 7016.42 1176.14C7016.42 1147.81 6997.9 1132.55 6964.11 1123.83L6892.18 1104.21C6775.57 1073.7 6735.24 1015.94 6735.24 945.096C6735.24 848.099 6809.35 772.9 6940.13 772.9C7046.94 772.9 7130.86 824.123 7147.2 915.67L7019.69 945.096C7015.33 908.041 6984.82 887.334 6944.49 887.334C6903.08 887.334 6874.74 908.041 6874.74 942.916C6874.74 969.072 6892.18 985.42 6935.77 997.409L7006.61 1015.94C7105.79 1042.09 7159.19 1096.58 7159.19 1176.14C7159.19 1275.32 7080.72 1343.98 6941.22 1343.98C6806.08 1343.98 6733.06 1278.59 6719.98 1190.31L6850.77 1168.51Z" fill="#060819"/>
</svg>
