<svg width="8460" height="1972" viewBox="0 0 8460 1972" fill="none" xmlns="http://www.w3.org/2000/svg">
<path d="M1857.24 692.086C1847.55 688.362 1837.12 684.638 1827.44 680.168C1584.57 580.34 1390.13 385.9 1290.31 143.036C1286.58 133.351 1282.86 123.666 1279.13 114.726C1245.61 49.168 1127.16 0 985.61 0C844.063 0 724.866 48.423 692.087 114.726C688.362 124.411 684.637 134.097 680.912 143.782C753.921 340.457 857.473 522.231 986.355 683.147C994.549 693.577 1003.49 704.006 1011.68 714.436C1019.88 724.866 1028.82 735.296 1037.76 744.981C1042.97 750.941 1048.19 756.9 1053.4 762.86C1069.05 780.739 1084.69 797.875 1101.08 814.264C1141.31 855.983 1183.77 896.212 1226.98 934.951C1247.1 952.83 1267.96 969.964 1288.82 986.354C1219.53 1041.48 1154.72 1101.83 1093.63 1165.9C1071.28 1184.52 1045.21 1200.91 1037.76 1195.69L1051.17 1212.08L1063.09 1226.98C1180.79 1373.74 1276.9 1535.41 1349.91 1708.24C1457.93 1522 1626.29 1374.49 1827.44 1291.8C1837.12 1288.07 1846.81 1283.6 1857.24 1279.88C1922.8 1246.35 1971.22 1127.16 1971.22 986.354C1971.22 844.062 1922.8 725.611 1857.24 692.086Z" fill="#FDA900"/>
<path d="M959.535 1257.53C950.596 1247.1 942.401 1236.67 933.461 1226.98C928.246 1221.02 923.031 1215.06 917.816 1209.1C902.172 1191.23 886.527 1174.09 870.138 1157.7C829.909 1115.98 787.445 1075.75 744.236 1037.76C724.121 1019.88 703.262 1002.74 682.402 986.354C750.941 931.971 815.009 872.372 875.352 809.049C897.702 789.679 924.521 772.546 932.716 778.506L920.051 760.625L908.132 745.725C790.425 598.964 694.322 437.304 621.314 264.469C513.292 450.714 344.926 598.219 143.781 680.912C134.097 684.637 124.412 689.108 113.982 692.833C48.4237 726.357 0 845.553 0 986.354C0 1127.9 48.4237 1246.35 113.982 1279.88C123.667 1283.6 134.097 1287.33 143.781 1291.8C386.645 1391.62 581.085 1586.06 680.912 1828.93C684.637 1838.61 688.362 1848.3 692.087 1857.24C725.611 1922.8 844.063 1971.96 985.61 1971.96C1127.16 1971.96 1246.35 1923.54 1279.13 1857.24C1282.86 1847.55 1286.58 1837.87 1290.31 1828.18C1217.3 1631.51 1113.75 1449.73 984.865 1288.82C976.67 1278.39 968.475 1267.96 959.535 1257.53Z" fill="#FDA900"/>
<path d="M2670.47 530.953C2836.13 530.953 2936.39 632.309 2936.39 793.607C2936.39 948.365 2837.22 1057.35 2669.38 1057.35H2500.45V1329.81H2351.15V530.953H2500.45H2670.47ZM2642.14 927.658C2739.13 927.658 2779.46 863.357 2779.46 790.337C2779.46 724.946 2739.13 662.825 2643.23 662.825H2500.45V927.658H2642.14ZM2970.44 1058.44C2970.44 891.693 3083.78 773.99 3253.8 773.99C3423.81 773.99 3536.07 891.693 3536.07 1058.44C3536.07 1226.28 3423.81 1342.89 3253.8 1342.89C3083.78 1342.89 2970.44 1226.28 2970.44 1058.44ZM3114.3 1058.44C3114.3 1151.08 3168.79 1215.38 3253.8 1215.38C3337.71 1215.38 3393.3 1151.08 3393.3 1058.44C3393.3 965.803 3337.71 901.502 3253.8 901.502C3168.79 901.502 3114.3 965.803 3114.3 1058.44ZM3635.2 1329.81V515.695H3777.97V1329.81H3635.2ZM4286.12 789.247H4434.34L4174.96 1457.32C4108.48 1629.52 3968.98 1608.81 3865.44 1570.67L3903.58 1442.07C3962.44 1478.03 4032.19 1481.3 4058.34 1407.19L4075.78 1361.42L3844.73 789.247H3995.13L4142.26 1179.41L4286.12 789.247ZM5556.94 929.838C5556.94 1052.99 5515.53 1158.71 5443.6 1232.82L5531.88 1333.08H5378.21L5349.87 1301.48C5297.56 1327.63 5235.44 1342.89 5167.87 1342.89C4934.64 1342.89 4779.88 1170.69 4779.88 929.838C4779.88 690.071 4935.73 516.785 5167.87 516.785C5402.19 516.785 5556.94 690.071 5556.94 929.838ZM5168.96 1197.94C5197.29 1197.94 5223.45 1193.58 5247.43 1185.95L5143.89 1068.25H5299.74L5343.33 1118.38C5379.3 1071.52 5400.01 1007.22 5400.01 929.838C5400.01 764.181 5310.64 660.645 5168.96 660.645C5026.19 660.645 4936.82 764.181 4936.82 929.838C4936.82 1094.41 5025.1 1197.94 5168.96 1197.94ZM6317.83 789.247H6469.32L6279.68 1329.81H6147.81L6038.83 1000.68L5927.66 1329.81H5788.16L5608.34 789.247H5762.01L5860.09 1123.83L5966.9 789.247H6112.94L6214.29 1129.28L6317.83 789.247ZM7037.07 1059.53V1109.66H6629.47C6638.19 1190.31 6701.4 1223.01 6766.79 1223.01C6832.18 1223.01 6873.59 1192.49 6897.57 1145.63L7015.27 1192.49C6976.04 1287.31 6880.13 1343.98 6766.79 1343.98C6606.58 1343.98 6495.42 1230.64 6495.42 1059.53C6495.42 889.514 6604.4 772.9 6768.97 772.9C6930.27 772.9 7037.07 886.244 7037.07 1059.53ZM6766.79 890.603C6692.68 890.603 6644.72 933.107 6631.65 1011.58H6892.12C6886.67 929.838 6836.54 890.603 6766.79 890.603ZM7275.18 852.459C7306.78 787.068 7403.78 770.72 7484.43 789.247V920.029C7355.83 889.514 7279.54 951.635 7279.54 1073.7V1329.81H7135.68V790.337H7267.55L7275.18 852.459ZM8297.27 789.247H8449.85L8208.99 1435.53C8138.15 1622.98 7965.95 1605.54 7878.77 1561.95L7915.82 1442.07C7957.23 1473.67 8045.51 1488.93 8078.21 1402.83L8085.84 1385.39L7898.38 906.951H7793.76V1329.81H7653.17V906.951H7549.63V789.247H7653.17V621.411H7793.76V789.247H7967.04H8008.46L8156.68 1195.76L8297.27 789.247Z" fill="#060819"/>
</svg>
