<svg width="8012" height="1972" viewBox="0 0 8012 1972" fill="none" xmlns="http://www.w3.org/2000/svg">
<path d="M1857.24 692.086C1847.55 688.362 1837.12 684.638 1827.44 680.168C1584.57 580.34 1390.13 385.9 1290.31 143.036C1286.58 133.351 1282.86 123.666 1279.13 114.726C1245.61 49.168 1127.16 0 985.609 0C844.063 0 724.866 48.423 692.087 114.726C688.362 124.411 684.637 134.097 680.912 143.782C753.92 340.457 857.473 522.231 986.354 683.147C994.549 693.577 1003.49 704.006 1011.68 714.436C1019.88 724.866 1028.82 735.296 1037.76 744.981C1042.97 750.941 1048.19 756.9 1053.4 762.86C1069.05 780.739 1084.69 797.875 1101.08 814.264C1141.31 855.983 1183.77 896.212 1226.98 934.951C1247.1 952.83 1267.96 969.964 1288.82 986.354C1219.53 1041.48 1154.72 1101.83 1093.63 1165.9C1071.28 1184.52 1045.21 1200.91 1037.76 1195.69L1051.17 1212.08L1063.09 1226.98C1180.79 1373.74 1276.9 1535.41 1349.9 1708.24C1457.93 1522 1626.29 1374.49 1827.44 1291.8C1837.12 1288.07 1846.81 1283.6 1857.24 1279.88C1922.8 1246.35 1971.22 1127.16 1971.22 986.354C1971.22 844.062 1922.8 725.611 1857.24 692.086Z" fill="#F64C60"/>
<path d="M959.535 1257.53C950.596 1247.1 942.401 1236.67 933.461 1226.98C928.246 1221.02 923.031 1215.06 917.816 1209.1C902.172 1191.22 886.527 1174.09 870.138 1157.7C829.909 1115.98 787.445 1075.75 744.236 1037.76C724.121 1019.88 703.262 1002.74 682.402 986.353C750.941 931.969 815.009 872.37 875.352 809.047C897.702 789.677 924.521 772.544 932.716 778.504L920.051 760.623L908.132 745.723C790.425 598.962 694.322 437.302 621.314 264.467C513.292 450.712 344.926 598.217 143.781 680.91C134.097 684.635 124.412 689.106 113.982 692.831C48.4237 726.355 0 845.551 0 986.353C0 1127.9 48.4237 1246.35 113.982 1279.88C123.667 1283.6 134.097 1287.32 143.781 1291.79C386.645 1391.62 581.085 1586.06 680.912 1828.93C684.637 1838.61 688.362 1848.3 692.087 1857.24C725.611 1922.79 844.063 1971.96 985.61 1971.96C1127.16 1971.96 1246.35 1923.54 1279.13 1857.24C1282.86 1847.55 1286.58 1837.87 1290.31 1828.18C1217.3 1631.51 1113.75 1449.73 984.865 1288.82C976.67 1278.39 968.475 1267.96 959.535 1257.53Z" fill="#F64C60"/>
<path d="M2668.28 530.951C2833.93 530.951 2934.2 632.307 2934.2 793.605C2934.2 948.363 2835.02 1057.35 2667.19 1057.35H2498.26V1329.81H2348.95V530.951H2498.26H2668.28ZM2639.94 927.656C2736.94 927.656 2777.26 863.355 2777.26 790.335C2777.26 724.944 2736.94 662.823 2641.03 662.823H2498.26V927.656H2639.94ZM2968.24 1058.44C2968.24 891.691 3081.58 773.988 3251.6 773.988C3421.62 773.988 3533.87 891.691 3533.87 1058.44C3533.87 1226.27 3421.62 1342.89 3251.6 1342.89C3081.58 1342.89 2968.24 1226.27 2968.24 1058.44ZM3112.1 1058.44C3112.1 1151.08 3166.59 1215.38 3251.6 1215.38C3335.52 1215.38 3391.1 1151.08 3391.1 1058.44C3391.1 965.801 3335.52 901.5 3251.6 901.5C3166.59 901.5 3112.1 965.801 3112.1 1058.44ZM3633 1329.81V515.693H3775.77V1329.81H3633ZM4283.93 789.245H4432.14L4172.76 1457.32C4106.28 1629.52 3966.78 1608.81 3863.24 1570.67L3901.39 1442.06C3960.24 1478.03 4029.99 1481.3 4056.15 1407.19L4073.58 1361.42L3842.54 789.245H3992.94L4140.07 1179.41L4283.93 789.245ZM5321.52 670.452H4971.68V873.164H5267.03L5265.94 1007.22H4971.68V1329.81H4823.46V530.951H4971.68H5322.61L5321.52 670.452ZM5359.73 1058.44C5359.73 891.691 5473.08 773.988 5643.09 773.988C5813.11 773.988 5925.37 891.691 5925.37 1058.44C5925.37 1226.27 5813.11 1342.89 5643.09 1342.89C5473.08 1342.89 5359.73 1226.27 5359.73 1058.44ZM5503.59 1058.44C5503.59 1151.08 5558.09 1215.38 5643.09 1215.38C5727.01 1215.38 5782.6 1151.08 5782.6 1058.44C5782.6 965.801 5727.01 901.5 5643.09 901.5C5558.09 901.5 5503.59 965.801 5503.59 1058.44ZM6162.91 852.457C6194.52 787.066 6291.51 770.718 6372.16 789.245V920.027C6243.56 889.512 6167.27 951.633 6167.27 1073.7V1329.81H6023.41V790.335H6155.28L6162.91 852.457ZM6986.25 1329.81H6845.66C6841.3 1315.64 6838.03 1296.03 6835.85 1275.32C6803.15 1322.18 6746.48 1343.98 6680 1343.98C6578.64 1343.98 6456.58 1298.2 6456.58 1118.38V789.245H6599.35V1090.04C6599.35 1201.21 6671.28 1217.56 6710.52 1217.56C6757.38 1217.56 6832.58 1192.49 6832.58 1088.95V789.245H6975.35V1229.54C6975.35 1255.7 6979.71 1304.74 6986.25 1329.81ZM7748.72 772.898C7867.51 772.898 7950.34 849.187 7950.34 988.688V1329.81H7813.02V1010.48C7813.02 935.285 7772.69 897.141 7711.66 897.141C7652.81 897.141 7602.68 934.195 7602.68 1023.56V1329.81H7463.18V1009.39C7463.18 936.375 7423.94 897.141 7362.91 897.141C7304.06 897.141 7253.93 935.285 7253.93 1023.56V1329.81H7111.16V789.245H7243.03L7248.48 838.289C7278.99 794.695 7333.48 772.898 7399.97 772.898C7480.61 772.898 7542.74 806.683 7575.43 870.984C7602.68 811.042 7663.71 772.898 7748.72 772.898Z" fill="#060819"/>
</svg>
