<svg width="8830" height="1972" viewBox="0 0 8830 1972" fill="none" xmlns="http://www.w3.org/2000/svg">
<path d="M1857.24 692.086C1847.55 688.362 1837.12 684.637 1827.44 680.167C1584.57 580.34 1390.13 385.9 1290.31 143.036C1286.58 133.351 1282.86 123.666 1279.13 114.726C1245.61 49.168 1127.16 0 985.61 0C844.063 0 724.866 48.423 692.087 114.726C688.362 124.411 684.638 134.096 680.913 143.781C753.921 340.456 857.473 522.231 986.355 683.147C994.549 693.577 1003.49 704.006 1011.68 714.436C1019.88 724.866 1028.82 735.296 1037.76 744.981C1042.97 750.941 1048.19 756.9 1053.4 762.86C1069.05 780.739 1084.69 797.874 1101.08 814.263C1141.31 855.982 1183.77 896.212 1226.98 934.951C1247.1 952.83 1267.96 969.964 1288.82 986.354C1219.53 1041.48 1154.72 1101.83 1093.63 1165.9C1071.28 1184.52 1045.21 1200.91 1037.76 1195.69L1051.17 1212.08L1063.09 1226.98C1180.79 1373.74 1276.9 1535.4 1349.91 1708.24C1457.93 1522 1626.29 1374.49 1827.44 1291.8C1837.12 1288.07 1846.81 1283.6 1857.24 1279.88C1922.8 1246.35 1971.22 1127.16 1971.22 986.354C1971.22 845.552 1922.8 725.611 1857.24 692.086Z" fill="#BEA18F"/>
<path d="M959.535 1257.52C950.596 1247.09 942.401 1236.66 933.461 1226.98C928.246 1221.02 923.031 1215.06 917.816 1209.1C902.172 1191.97 886.527 1174.09 870.138 1157.7C829.909 1115.98 787.445 1075.75 744.236 1037.01C724.121 1019.13 703.262 1001.99 682.402 985.605C750.941 931.222 815.009 871.624 875.352 808.3C897.702 788.931 924.521 771.796 932.716 777.755L920.051 759.877L908.132 744.977C790.425 598.216 694.322 436.554 621.314 263.719C513.292 449.964 344.926 597.47 143.781 680.163C134.097 683.888 124.412 688.358 113.982 692.083C48.4237 725.607 0 844.804 0 985.605C0 1126.41 48.4237 1245.6 113.982 1279.13C123.667 1282.85 134.097 1286.58 143.781 1291.05C386.645 1390.87 581.085 1585.31 680.912 1828.18C684.637 1837.86 688.362 1847.55 692.087 1856.49C725.611 1922.05 844.063 1971.22 985.61 1971.22C1127.16 1971.22 1246.35 1922.79 1279.13 1856.49C1282.86 1846.8 1286.58 1837.12 1290.31 1827.43C1217.3 1630.76 1113.75 1448.98 984.865 1288.07C976.67 1278.38 968.475 1267.95 959.535 1257.52Z" fill="#BEA18F"/>
<path d="M2670.47 530.955C2836.13 530.955 2936.39 632.311 2936.39 793.609C2936.39 948.367 2837.22 1057.35 2669.38 1057.35H2500.46V1329.81H2351.15V530.955H2500.46H2670.47ZM2642.14 927.66C2739.13 927.66 2779.46 863.359 2779.46 790.339C2779.46 724.948 2739.13 662.827 2643.23 662.827H2500.46V927.66H2642.14ZM2970.44 1058.44C2970.44 891.695 3083.78 773.991 3253.8 773.991C3423.81 773.991 3536.07 891.695 3536.07 1058.44C3536.07 1226.28 3423.81 1342.89 3253.8 1342.89C3083.78 1342.89 2970.44 1226.28 2970.44 1058.44ZM3114.3 1058.44C3114.3 1151.08 3168.79 1215.38 3253.8 1215.38C3337.71 1215.38 3393.3 1151.08 3393.3 1058.44C3393.3 965.805 3337.71 901.504 3253.8 901.504C3168.79 901.504 3114.3 965.805 3114.3 1058.44ZM3635.2 1329.81V515.697H3777.97V1329.81H3635.2ZM4286.12 789.249H4434.34L4174.96 1457.33C4108.48 1629.52 3968.98 1608.82 3865.44 1570.67L3903.58 1442.07C3962.44 1478.03 4032.19 1481.3 4058.34 1407.19L4075.78 1361.42L3844.73 789.249H3995.13L4142.26 1179.42L4286.12 789.249ZM5507.9 748.925L5366.22 797.968C5337.89 707.511 5262.69 661.737 5170.05 661.737C5026.19 661.737 4936.82 768.542 4936.82 929.84C4936.82 1097.68 5031.64 1196.85 5168.96 1196.85C5269.22 1196.85 5350.96 1142.36 5379.3 1064.98L5520.98 1126.01C5465.4 1265.51 5325.9 1342.89 5167.87 1342.89C4935.73 1342.89 4779.88 1180.51 4779.88 932.02C4779.88 683.534 4936.82 516.787 5170.05 516.787C5342.24 516.787 5468.67 610.514 5507.9 748.925ZM5593.95 1058.44C5593.95 891.695 5707.29 773.991 5877.31 773.991C6047.33 773.991 6159.58 891.695 6159.58 1058.44C6159.58 1226.28 6047.33 1342.89 5877.31 1342.89C5707.29 1342.89 5593.95 1226.28 5593.95 1058.44ZM5737.81 1058.44C5737.81 1151.08 5792.3 1215.38 5877.31 1215.38C5961.23 1215.38 6016.81 1151.08 6016.81 1058.44C6016.81 965.805 5961.23 901.504 5877.31 901.504C5792.3 901.504 5737.81 965.805 5737.81 1058.44ZM6231.47 1058.44C6231.47 891.695 6344.81 773.991 6514.83 773.991C6684.84 773.991 6797.1 891.695 6797.1 1058.44C6797.1 1226.28 6684.84 1342.89 6514.83 1342.89C6344.81 1342.89 6231.47 1226.28 6231.47 1058.44ZM6375.33 1058.44C6375.33 1151.08 6429.82 1215.38 6514.83 1215.38C6598.75 1215.38 6654.33 1151.08 6654.33 1058.44C6654.33 965.805 6598.75 901.504 6514.83 901.504C6429.82 901.504 6375.33 965.805 6375.33 1058.44ZM7039 1329.81H6896.23V515.697H7039V999.59L7238.45 789.249H7416.09L7181.77 1036.65L7401.92 1329.81H7228.64L7088.05 1134.73L7039 1187.04V1329.81ZM7566.48 691.163C7518.53 691.163 7480.38 654.108 7480.38 605.065C7480.38 557.112 7518.53 520.057 7566.48 520.057C7614.43 520.057 7652.58 557.112 7652.58 605.065C7652.58 654.108 7614.43 691.163 7566.48 691.163ZM7495.64 789.249H7638.41V1329.81H7495.64V789.249ZM8282.31 1059.53V1109.66H7874.7C7883.42 1190.31 7946.63 1223.01 8012.03 1223.01C8077.42 1223.01 8118.83 1192.49 8142.81 1145.63L8260.51 1192.49C8221.28 1287.31 8125.37 1343.98 8012.03 1343.98C7851.82 1343.98 7740.65 1230.64 7740.65 1059.53C7740.65 889.515 7849.64 772.902 8014.21 772.902C8175.5 772.902 8282.31 886.246 8282.31 1059.53ZM8012.03 890.605C7937.92 890.605 7889.96 933.109 7876.88 1011.58H8137.36C8131.91 929.84 8081.78 890.605 8012.03 890.605ZM8485.54 1168.52C8487.72 1206.66 8521.5 1230.64 8573.82 1230.64C8617.41 1230.64 8651.2 1214.29 8651.2 1176.15C8651.2 1147.81 8632.67 1132.55 8598.88 1123.83L8526.95 1104.22C8410.34 1073.7 8370.02 1015.94 8370.02 945.098C8370.02 848.101 8444.13 772.902 8574.91 772.902C8681.71 772.902 8765.63 824.125 8781.98 915.672L8654.47 945.098C8650.11 908.043 8619.59 887.336 8579.27 887.336C8537.85 887.336 8509.52 908.043 8509.52 942.918C8509.52 969.074 8526.95 985.422 8570.55 997.411L8641.39 1015.94C8740.56 1042.09 8793.97 1096.59 8793.97 1176.15C8793.97 1275.32 8715.5 1343.98 8576 1343.98C8440.86 1343.98 8367.84 1278.59 8354.76 1190.31L8485.54 1168.52Z" fill="#060819"/>
</svg>
