<svg width="5703" height="1972" viewBox="0 0 5703 1972" fill="none" xmlns="http://www.w3.org/2000/svg">
<path d="M1857.24 692.087C1847.55 688.362 1837.12 684.637 1827.44 680.167C1584.57 580.34 1390.13 385.9 1290.31 143.036C1286.58 133.352 1282.86 123.667 1279.13 114.727C1245.61 49.1689 1127.16 0 985.609 0C844.063 0 724.866 48.4239 692.087 114.727C688.362 124.412 684.637 134.097 680.912 143.781C753.92 340.456 857.473 522.232 986.354 683.148C994.549 693.577 1003.49 704.007 1011.68 714.437C1020.62 724.867 1028.82 735.296 1037.76 744.981C1042.97 750.941 1048.19 756.901 1053.4 762.861C1069.05 779.995 1084.69 797.874 1101.08 814.264C1141.31 855.983 1183.77 896.212 1226.98 934.951C1247.1 952.831 1267.96 969.965 1288.82 986.355C1219.53 1041.48 1154.72 1101.83 1093.63 1165.9C1071.28 1184.52 1045.21 1200.91 1037.76 1195.69L1051.17 1212.08L1063.09 1226.98C1180.79 1373.74 1276.9 1535.41 1349.9 1708.24C1457.93 1522 1626.29 1374.49 1827.44 1291.8C1837.12 1288.07 1846.81 1283.6 1857.24 1279.88C1922.8 1246.35 1971.22 1127.16 1971.22 986.355C1971.22 844.063 1922.8 725.612 1857.24 692.087Z" fill="#0E8DFF"/>
<path d="M959.535 1257.53C950.596 1247.1 942.401 1236.67 933.461 1226.98C928.246 1221.02 923.031 1215.06 917.816 1209.1C902.172 1191.97 886.527 1174.09 870.138 1157.7C829.909 1115.98 787.445 1075.75 744.236 1037.76C724.121 1019.88 703.262 1002.74 682.402 986.353C750.941 931.97 815.009 872.371 875.352 809.048C897.702 789.679 924.521 772.544 932.716 778.504L920.051 760.624L908.132 745.725C790.425 598.963 694.322 437.302 621.314 264.467C513.292 450.712 344.926 598.218 143.781 680.911C134.097 684.636 124.412 689.106 113.982 692.831C48.4237 726.355 0 845.552 0 986.353C0 1127.9 48.4237 1246.35 113.982 1279.88C123.667 1283.6 134.097 1287.33 143.781 1291.8C386.645 1391.62 581.085 1586.06 680.912 1828.93C684.637 1838.61 688.362 1848.3 692.087 1857.24C725.611 1922.79 844.063 1971.96 985.61 1971.96C1127.16 1971.96 1246.35 1923.54 1279.13 1857.24C1282.86 1847.55 1286.58 1837.87 1290.31 1828.18C1217.3 1631.51 1113.75 1449.73 984.865 1288.82C976.67 1278.39 968.475 1267.96 959.535 1257.53Z" fill="#0E8DFF"/>
<path d="M2670.47 530.953C2836.13 530.953 2936.39 632.309 2936.39 793.607C2936.39 948.365 2837.22 1057.35 2669.38 1057.35H2500.46V1329.81H2351.15V530.953H2500.46H2670.47ZM2642.14 927.658C2739.13 927.658 2779.46 863.357 2779.46 790.337C2779.46 724.946 2739.13 662.825 2643.23 662.825H2500.46V927.658H2642.14ZM2970.44 1058.44C2970.44 891.693 3083.78 773.99 3253.8 773.99C3423.81 773.99 3536.07 891.693 3536.07 1058.44C3536.07 1226.28 3423.81 1342.89 3253.8 1342.89C3083.78 1342.89 2970.44 1226.28 2970.44 1058.44ZM3114.3 1058.44C3114.3 1151.08 3168.79 1215.38 3253.8 1215.38C3337.71 1215.38 3393.3 1151.08 3393.3 1058.44C3393.3 965.803 3337.71 901.502 3253.8 901.502C3168.79 901.502 3114.3 965.803 3114.3 1058.44ZM3635.2 1329.81V515.695H3777.97V1329.81H3635.2ZM4286.12 789.247H4434.34L4174.96 1457.32C4108.48 1629.52 3968.98 1608.81 3865.44 1570.67L3903.58 1442.07C3962.44 1478.03 4032.19 1481.3 4058.34 1407.19L4075.78 1361.42L3844.73 789.247H3995.13L4142.26 1179.41L4286.12 789.247ZM4652.83 1329.81H4510.06V515.695H4652.83V999.588L4852.27 789.247H5029.92L4795.6 1036.64L5015.75 1329.81H4842.46L4701.87 1134.73L4652.83 1187.04V1329.81ZM5180.31 691.161C5132.36 691.161 5094.21 654.106 5094.21 605.063C5094.21 557.11 5132.36 520.055 5180.31 520.055C5228.26 520.055 5266.41 557.11 5266.41 605.063C5266.41 654.106 5228.26 691.161 5180.31 691.161ZM5109.47 789.247H5252.24V1329.81H5109.47V789.247ZM5684.7 789.247V906.951H5581.17V1329.81H5441.67V906.951H5337.04V789.247H5441.67V621.411H5581.17V789.247H5684.7Z" fill="#060819"/>
</svg>
