<svg width="4569" height="5771" viewBox="0 0 4569 5771" fill="none" xmlns="http://www.w3.org/2000/svg">
<g clip-path="url(#clip0_102_533)">
<path fill-rule="evenodd" clip-rule="evenodd" d="M4016.18 452.092C4009.21 452.068 4002.36 453.865 3996.3 457.304C3990.24 460.744 3985.18 465.707 3981.63 471.701L3886.94 631.506C3883.28 637.679 3881.35 644.722 3881.35 651.897V775.803C3881.35 783.469 3883.56 790.974 3887.7 797.424L3918.95 846.018L3888.99 887.287C3884.02 894.123 3881.35 902.355 3881.35 910.803V1001.7C3881.35 1012.19 3885.48 1022.27 3892.84 1029.75L3911.27 1048.5L3892.84 1067.25C3885.48 1074.73 3881.35 1084.8 3881.35 1095.3V1188.89C3881.35 1197.62 3884.2 1206.11 3889.48 1213.07L3916.72 1248.99L3890.06 1282.46C3884.69 1289.2 3881.64 1297.49 3881.36 1306.1C3881.09 1314.71 3883.6 1323.19 3888.52 1330.26L3917.93 1372.48L3889.5 1409.89C3884.21 1416.85 3881.35 1425.36 3881.35 1434.1V2099.32C3872.72 2103.62 3864.73 2109.24 3857.8 2116.17C3842.83 2131.05 3833.72 2150.68 3831.78 2171.49C3822.27 2170.21 3812.75 2169.89 3803.4 2170.51C3766.4 2172.99 3732.66 2188.21 3702.56 2208.61C3642.38 2249.43 3594.19 2311.97 3563.89 2367.68C3530.88 2428.45 3522.66 2501.43 3520.43 2560.33C3519.4 2587.64 3520 2611.57 3520.88 2630.04C3515.34 2632.41 3510.06 2635.27 3505.1 2638.63C3466.75 2664.7 3448.92 2717.15 3467.27 2765.64C3469.25 2770.89 3471.61 2775.85 3474.18 2780.7C3397.23 2865.57 3317.77 2906.45 3233.31 2918.59C3146.93 2931.01 3053.04 2912.39 2952.82 2870.27C2890.87 2589.8 2833.14 2328.34 2815.38 2247.97C2808.39 2216.36 2784.77 2190.86 2753.91 2181.37C2753.87 2181.37 2753.83 2181.37 2753.79 2181.37C2648.51 2149.34 2543.41 2124.77 2438.54 2106.74C2428.74 2061.87 2322.96 1577.25 2293.07 1447.71C2260.33 1305.78 2169.67 1094.96 1983.87 969.101C1868.02 890.622 1720.92 859.598 1580.69 863.672C1440.45 867.745 1306.31 906.285 1214.01 977.441C1020.47 1126.59 935.38 1409.92 954.163 1605.16C963.349 1700.7 1000.51 1870.31 1035.47 2019.3C1063.15 2137.25 1084.79 2222.52 1094.55 2260.66C995.304 2301.05 896.392 2347.81 797.873 2401.02C797.82 2401.05 797.766 2401.08 797.712 2401.12C763.042 2420.05 744.528 2459.86 752.615 2498.6L841.345 2924.2C309.614 3194.86 214.869 3562.55 128.923 3910.37C114.025 3913.87 100.594 3919.58 88.9428 3927.54C65.8588 3943.3 51.2228 3968.21 48.6108 3993.64C45.7378 4021.6 57.0996 4048.88 77.5366 4068.79C69.5926 4091.53 58.8181 4123.45 46.0131 4166.7C24.9071 4238 2.70887 4324.47 0.231875 4395C-1.98813 4458.24 11.5979 4543.88 46.8139 4617.72C64.4219 4654.63 87.6726 4688.82 120.037 4713.62C145.271 4732.95 176.963 4745.55 211.501 4747.11C219.935 4762.38 229.824 4777.05 241.872 4790.22C264.857 4815.33 300.413 4835.64 340.408 4830.61C394.587 4823.79 440.77 4802.87 471.794 4768.93C480.068 4772.85 489.052 4775.92 498.845 4777.91C544.292 4787.16 600.478 4779.23 642.537 4739.06C678.681 4704.54 698.306 4648.67 692.087 4574.85C709.295 4565.99 723.814 4552.03 733.083 4534.53C754.684 4493.67 755.726 4442.37 753.884 4386.03C752.044 4329.7 747.395 4275.8 719.978 4234.65C694.639 4196.7 637.828 4121.76 605.915 4080.04C617.714 4063.76 623.959 4043.67 622.4 4023.89C620.046 3994.02 602.98 3968.44 576.013 3950.39C676.451 3721.16 786.147 3517.2 944.646 3419.73L1142.24 4367.68C1143.55 4373.11 1145.98 4378.21 1149.37 4382.65C1152.76 4387.08 1157.05 4390.76 1161.95 4393.44C1169.7 4412.75 1180.65 4428.06 1191.85 4439.12C1208.25 4455.32 1227.18 4466.9 1249.72 4477.21C1284.92 4493.3 1329.23 4505.42 1381.46 4514.49C1380.55 4532.65 1379.66 4552.17 1378.71 4573.83C1375.28 4652.08 1372.18 4748.22 1369.59 4841.72C1365.03 5005.86 1362.39 5142.2 1361.72 5177.89C1353.65 5182.26 1346.32 5187.57 1340.13 5193.85C1321.9 5212.36 1313.34 5236.56 1312.77 5259.92C1312.22 5282.28 1320.11 5305.53 1334.59 5324.24C1307.19 5384.32 1252.99 5534.24 1302.17 5702.03C1302.2 5702.13 1302.23 5702.23 1302.27 5702.32C1313.63 5740.01 1348.69 5766.14 1388.11 5766.17C1515.99 5766.37 1952.2 5766.36 2090.92 5766.36C2135.91 5766.36 2174.64 5732.25 2180.22 5687.49C2182.72 5666.41 2184.97 5639.59 2185.2 5609.86C2185.23 5609.71 2185.26 5609.57 2185.3 5609.43C2185.27 5608.98 2185.24 5608.53 2185.2 5608.08C2185.32 5582.11 2183.93 5554 2179.61 5525.29C2170.23 5462.94 2147.19 5396.07 2092.19 5350.42C2029 5297.89 1954.75 5269.04 1875.66 5271.36C1878.53 5239.44 1864.46 5206.69 1838.65 5187.14C1841.38 5153.22 1850.68 5036.26 1860.41 4888.82C1869.24 4755.07 1877.59 4615.7 1877.77 4525.72C1986.17 4517.74 2101.87 4504.36 2222.07 4484.8C2252.71 4479.81 2282.82 4474.48 2312.66 4468.98C2302.86 4580.7 2296.01 4725.15 2291.04 4859.04C2285.04 5020.44 2282.58 5142.1 2281.8 5182.75C2267.26 5187.4 2254.3 5194.62 2243.85 5204.55C2224.36 5223.05 2215.47 5249.54 2217.52 5273.96C2219.23 5294.38 2228.31 5313.5 2242.54 5328.86C2229.14 5376.96 2202.08 5489.32 2203.18 5608.49C2203.18 5608.54 2203.18 5608.6 2203.18 5608.65C2203.18 5608.7 2203.18 5608.76 2203.18 5608.81C2203.46 5637.38 2205.18 5666.19 2209.36 5694.49C2209.39 5694.72 2209.42 5694.95 2209.46 5695.17C2216.58 5738.25 2254.42 5770.25 2298.05 5770.25C2429.63 5770.55 2840.68 5770.52 2984.26 5770.52C3008.4 5770.52 3031.45 5760.81 3048.32 5743.76C3048.37 5743.7 3048.42 5743.64 3048.46 5743.58C3065.26 5726.42 3074.61 5703.18 3074.27 5679.13C3073.65 5640.19 3071.66 5585.18 3065.48 5533C3059.29 5480.82 3053.73 5433.58 3025.61 5396.51C2989.77 5349.25 2949.61 5315.14 2901.82 5297.16C2854.32 5279.29 2801.83 5278.03 2743.02 5287.8C2743.88 5281.39 2744.07 5274.97 2743.44 5268.72C2741.45 5248.91 2732.5 5230.45 2718.68 5215.83C2728.07 5154.67 2800.77 4677.73 2818 4448.84C2821.01 4408.73 2820.35 4371.76 2816.32 4337.9C2927.1 4298.51 3019.19 4256.65 3084.25 4213.95C3120.33 4190.27 3148.42 4166.75 3168.44 4140.67C3178.46 4127.64 3186.62 4114 3192.37 4096.81C3195.58 4087.2 3197.82 4075.65 3198.62 4063.1C3202.96 4058.4 3206.11 4052.74 3207.81 4046.58C3209.51 4040.42 3209.71 4033.94 3208.39 4027.69C3208.39 4027.69 3120.9 3631.55 3053.17 3324.89C3203.83 3357.61 3346.83 3369.66 3473.82 3336.44C3610.27 3300.73 3725.19 3208.74 3797.51 3045.67C3799.46 3045.67 3801.43 3045.68 3803.35 3045.51C3831.22 3043.26 3855.5 3030.85 3874.19 3013.6C3892.88 2996.35 3906.91 2973.67 3910.52 2946.59C3911.2 2941.49 3911.37 2936.24 3911.08 2930.92C3964.84 2918.74 4019.23 2893.27 4062.82 2839.99H4164.62C4188.54 2839.99 4211.45 2830.42 4228.29 2813.52C4245.09 2796.67 4254.62 2773.82 4254.62 2749.99V2703.09C4261.15 2695.45 4267.12 2687.25 4272.43 2678.52C4301.86 2630.16 4315.23 2568.15 4318.15 2495.1C4321.04 2423.02 4315.93 2361.54 4286.96 2311.63C4278.38 2296.85 4267.48 2283.82 4254.64 2272.58V2180.1C4254.64 2156.27 4245.13 2133.33 4228.18 2116.49C4221.24 2109.56 4213.27 2103.94 4204.64 2099.63V1715.32C4204.64 1708.9 4203.09 1702.57 4200.13 1696.88L4145.99 1592.64V646.606C4145.99 639.524 4144.11 632.568 4140.54 626.45L4050.6 472.251C4047.09 466.232 4042.06 461.237 4036.03 457.756C4029.99 454.276 4023.15 452.431 4016.18 452.407L4016.18 452.092ZM1621.53 1244.71C1680.82 1243.94 1726.82 1257.42 1764.11 1281.53C1818.34 1316.59 1857.83 1377.66 1885.4 1465.22C1933.21 1617.17 2011.07 1961.68 2035.59 2071.62C2027.85 2071.62 2020.09 2071.3 2012.35 2071.37C1829.52 2072.9 1647.52 2095.92 1466.53 2139.95C1426.03 1976.33 1362.22 1710.54 1339.87 1574.16C1323.71 1475.62 1336.5 1404.04 1368.54 1353.85C1400.58 1303.66 1453.49 1270.66 1532.02 1254.97C1564.88 1248.39 1594.58 1245.1 1621.53 1244.75V1244.71Z" fill="black"/>
<path fill-rule="evenodd" clip-rule="evenodd" d="M1371.41 5649.2H2103.56C2102.81 5659.49 2101.87 5669.13 2100.87 5677.6C2100.19 5683.04 2096.39 5686.35 2090.94 5686.35C1952.22 5686.35 1515.85 5686.35 1388.25 5686.16C1388.22 5686.16 1388.18 5686.16 1388.15 5686.16C1383.75 5686.16 1380.2 5683.52 1378.89 5679.26C1375.94 5669.17 1373.5 5659.15 1371.41 5649.2Z" fill="white"/>
<path fill-rule="evenodd" clip-rule="evenodd" d="M2284.91 5648.4H2993.46C2993.84 5659.73 2994.09 5670.43 2994.24 5680.04C2994.24 5682.75 2993.27 5685.24 2991.33 5687.27C2989.41 5689.17 2986.84 5690.25 2984.24 5690.25C2840.64 5690.25 2429.25 5690.25 2298.11 5689.98C2298.07 5689.98 2298.04 5689.98 2298.01 5689.98C2292.95 5689.98 2289.25 5686.75 2288.4 5681.88C2286.8 5670.92 2285.73 5659.71 2284.91 5648.4Z" fill="white"/>
<path fill-rule="evenodd" clip-rule="evenodd" d="M2806.78 5361.37C2832.68 5360.93 2854.32 5364.46 2873.62 5371.72C2904.49 5383.33 2931.95 5405.11 2961.84 5444.53C2966.27 5450.36 2980.36 5494.53 2986 5542.09C2987.02 5550.69 2987.8 5559.57 2988.6 5568.4H2284.44C2288.72 5486.11 2305.5 5407.52 2316.49 5363.44C2319.8 5363.69 2323.16 5363.82 2326.57 5363.79C2344.04 5363.66 2406.55 5365.5 2472.64 5366.49C2521.92 5367.22 2573.44 5367.57 2614.93 5365.98C2611.25 5369.91 2607.59 5373.85 2604.12 5377.77C2569.69 5416.71 2548.1 5450.43 2538.23 5472.89C2533.96 5482.6 2533.73 5493.6 2537.58 5503.49C2541.43 5513.37 2549.05 5521.32 2558.75 5525.58C2563.56 5527.7 2568.74 5528.84 2573.99 5528.96C2579.25 5529.07 2584.47 5528.15 2589.36 5526.24C2594.26 5524.33 2598.73 5521.48 2602.52 5517.85C2606.32 5514.21 2609.36 5509.87 2611.47 5505.06C2612.19 5503.42 2635.34 5463.24 2664.05 5430.78C2692.76 5398.32 2729.82 5370.76 2755.16 5366.52C2774.18 5363.32 2791.24 5361.63 2806.78 5361.37Z" fill="white"/>
<path fill-rule="evenodd" clip-rule="evenodd" d="M1891.18 5349.89C1944.83 5350.53 1993.06 5371.79 2041.12 5411.74C2074.45 5439.4 2092.84 5485.67 2100.55 5536.96C2102.16 5547.65 2103.2 5558.46 2103.95 5569.2H1362.6C1361.21 5477.26 1388.48 5400.48 1405.3 5362.07C1435 5364.21 1493.76 5363.96 1560.88 5363.69C1600.64 5363.53 1641.93 5363.31 1679.46 5363.25C1672.13 5371.07 1665.05 5378.93 1658.42 5386.57C1624.55 5425.59 1601.29 5461.33 1601.29 5461.33C1598.43 5465.73 1596.45 5470.65 1595.49 5475.82C1594.52 5480.98 1594.58 5486.29 1595.67 5491.43C1596.75 5496.57 1598.84 5501.44 1601.81 5505.77C1604.78 5510.11 1608.57 5513.82 1612.97 5516.68C1617.37 5519.55 1622.3 5521.52 1627.46 5522.49C1632.62 5523.45 1637.93 5523.39 1643.07 5522.31C1648.21 5521.22 1653.08 5519.14 1657.42 5516.17C1661.75 5513.2 1665.46 5509.4 1668.32 5505C1668.32 5505 1688.91 5473.46 1718.83 5438.99C1748.75 5404.51 1789.89 5369.52 1814.15 5361.98C1841.28 5353.57 1866.79 5349.59 1891.18 5349.89Z" fill="white"/>
<path fill-rule="evenodd" clip-rule="evenodd" d="M2322.64 5256.39C2322.67 5256.39 2322.71 5256.39 2322.74 5256.39C2366.77 5256.29 2600.93 5261.28 2644.99 5263.73C2648.96 5263.95 2652.12 5264.66 2654.61 5265.67C2655.09 5265.92 2655.56 5266.16 2656.04 5266.39C2662.14 5269.45 2663.66 5274.27 2663.87 5276.41C2664.02 5277.95 2664.23 5277.44 2663.38 5278.36C2662.53 5279.27 2658.83 5282.79 2646.06 5283.96C2646.02 5283.96 2645.99 5283.96 2645.96 5283.96C2610.19 5287.31 2539.13 5287.47 2473.83 5286.5C2408.53 5285.53 2349.49 5283.62 2325.98 5283.79C2319.32 5283.89 2314.23 5283.02 2310.29 5281.7C2308.19 5280.33 2305.97 5279.17 2303.65 5278.22C2298.73 5274.47 2297.49 5269.76 2297.27 5267.05C2297.06 5264.55 2297.1 5264.08 2298.95 5262.32C2300.79 5260.57 2306.58 5256.41 2322.64 5256.39Z" fill="white"/>
<path fill-rule="evenodd" clip-rule="evenodd" d="M1596.86 5244.65C1674.32 5244.65 1755.62 5245.83 1786 5249.04C1794.12 5249.89 1796.92 5256.58 1795.94 5264.32C1794.97 5272.05 1794.41 5283.99 1752.62 5283.46C1702.8 5282.8 1628.45 5283.36 1560.41 5283.66C1492.39 5283.93 1428.42 5283.66 1409.71 5282.17C1407.32 5281.98 1405.36 5281.56 1403.58 5281.04C1403.49 5280.98 1403.41 5280.92 1403.33 5280.86C1402.38 5280.5 1401.43 5280.17 1400.46 5279.88C1393.6 5276.47 1392.45 5269.8 1392.65 5261.81C1392.78 5256.44 1394.64 5252.34 1397.02 5249.92C1399.4 5247.5 1402.62 5244.75 1414.34 5244.94C1444.6 5245.48 1519.36 5244.63 1596.82 5244.63L1596.86 5244.65Z" fill="white"/>
<path fill-rule="evenodd" clip-rule="evenodd" d="M1646.14 4285.06C1652.28 4284.96 1658.54 4285.06 1664.89 4285.45C1715.74 4288.29 1739.92 4303.72 1759.36 4332.48C1778.81 4361.24 1791.03 4408.45 1796.3 4469.92C1800.81 4522.59 1791.77 4713.6 1780.57 4883.32C1771.65 5018.49 1763.54 5121.67 1759.93 5167.05C1716.56 5164.94 1656.84 5164.67 1596.96 5164.67H1596.86C1536.82 5164.67 1478.05 5165.11 1441.96 5165.12C1442.9 5116.39 1445.32 4995.69 1449.54 4843.91C1452.13 4750.64 1455.2 4654.81 1458.6 4577.33C1461.99 4499.86 1466.79 4436.32 1469.01 4424.47C1485.43 4336.94 1553.92 4286.42 1646.1 4285.06H1646.14Z" fill="black"/>
<path fill-rule="evenodd" clip-rule="evenodd" d="M2599.75 4182.7C2644.49 4184.2 2677.98 4202.52 2703.7 4243.32C2729.41 4284.12 2745.16 4350.3 2738.23 4442.52C2722.65 4649.57 2658.26 5080.01 2642.56 5183.56C2590.92 5181.07 2439.46 5177.78 2361.94 5176.82C2362.85 5130.19 2365.23 5015.94 2370.96 4861.78C2378.03 4671.62 2389.92 4454.2 2405.77 4359.94C2419 4281.35 2455.12 4239.77 2494.48 4214.38C2533.81 4188.99 2579.21 4182.05 2599.75 4182.7Z" fill="black"/>
<path fill-rule="evenodd" clip-rule="evenodd" d="M151.432 4099.82C219.823 4106.39 406.735 4118.63 506.999 4121.39C516.868 4121.65 526.351 4120.98 535.456 4119.59C565.661 4159.16 630.544 4244.68 653.463 4279C659.1 4287.5 672.35 4339.6 673.952 4388.61C675.555 4437.63 665.583 4490.99 662.389 4497.07C661.619 4498.49 648.482 4507.62 640.417 4502.77C636.38 4500.35 628.961 4493.82 623.385 4472.48C617.809 4451.14 615.413 4415.96 622.35 4364.88C623.057 4359.68 622.732 4354.38 621.393 4349.3C620.054 4344.22 617.726 4339.46 614.545 4335.28C611.364 4331.1 607.392 4327.58 602.853 4324.94C598.314 4322.29 593.298 4320.57 588.092 4319.86C577.582 4318.44 566.935 4321.24 558.493 4327.66C550.05 4334.08 544.504 4343.59 543.073 4354.1C535.185 4412.18 536.643 4456.95 545.983 4492.7C555.324 4528.44 573.893 4556.13 599.225 4571.35C603.504 4573.92 607.858 4575.99 612.233 4577.83C618.623 4636.16 604.065 4665.17 587.292 4681.19C568.203 4699.42 538.145 4704.24 514.811 4699.49C500.741 4696.63 476.268 4668.44 460.592 4632.85C444.915 4597.26 437.37 4562.56 437.37 4562.56C436.274 4557.42 434.178 4552.55 431.2 4548.22C428.222 4543.9 424.421 4540.2 420.014 4537.34C415.607 4534.48 410.68 4532.52 405.514 4531.56C400.349 4530.61 395.046 4530.68 389.909 4531.78C379.537 4533.99 370.468 4540.23 364.696 4549.13C358.924 4558.02 356.921 4568.85 359.127 4579.22C359.127 4579.22 367.794 4620.66 387.37 4665.1C394.453 4681.18 402.908 4698.72 413.717 4715.18C398.235 4734.21 373.575 4745.78 330.436 4751.21C319.991 4752.53 313.149 4749.55 300.905 4736.17C288.661 4722.8 275.861 4699.67 266.022 4675.02C246.345 4625.72 237.467 4572.85 237.467 4572.85C236.623 4567.67 234.766 4562.7 232.001 4558.23C229.236 4553.77 225.618 4549.89 221.354 4546.82C217.09 4543.75 212.264 4541.55 207.15 4540.35C202.036 4539.14 196.734 4538.96 191.549 4539.8C186.364 4540.65 181.397 4542.51 176.93 4545.27C172.463 4548.04 168.583 4551.65 165.514 4555.92C162.445 4560.18 160.248 4565.01 159.044 4570.12C157.841 4575.24 157.657 4580.54 158.502 4585.72C158.502 4585.72 163.361 4615.7 174.596 4654.3C172.631 4652.98 170.667 4651.61 168.698 4650.1C150.389 4636.07 132.932 4612.41 119.03 4583.26C91.2268 4524.97 78.5217 4445.65 80.2017 4397.79C82.1357 4342.72 102.43 4257.94 122.721 4189.39C133.759 4152.1 143.817 4121.89 151.432 4099.82Z" fill="white"/>
<path fill-rule="evenodd" clip-rule="evenodd" d="M165.103 3986.23C167.517 3986.23 170.08 3986.23 172.799 3986.37H172.899C243.247 3989.8 401.538 3995.76 485.477 4002.78C534.718 4006.92 542.49 4027.22 542.723 4030.18C542.843 4031.66 543.503 4031.66 540.086 4034.44C536.67 4037.21 527.422 4041.9 509.227 4041.43C409.342 4038.69 206.173 4025.19 151.395 4019.53C151.361 4019.53 151.328 4019.53 151.295 4019.53C147.763 4019.17 144.923 4018.56 142.369 4017.85C141.329 4017.33 140.267 4016.86 139.185 4016.43C138.615 4016.33 138.041 4016.24 137.467 4016.16C128.394 4011.99 127.819 4005.45 128.189 4001.84C128.439 3999.38 128.759 3997.25 134.049 3993.64C138.672 3990.48 148.251 3986.5 165.142 3986.26L165.103 3986.23Z" fill="white"/>
<path fill-rule="evenodd" clip-rule="evenodd" d="M2193.29 2997.85C2237.31 2999.51 2290.96 3015.69 2356.71 3057.77C2511.08 3156.58 2552.68 3253.03 2559.09 3277.38C2568.63 3313.75 2558.85 3352.71 2539.83 3378.24C2520.82 3403.77 2498.49 3414.34 2472.82 3407.32C2439.46 3398.14 2410.93 3376.41 2389.26 3352.21C2367.6 3328 2353.09 3300.6 2349.03 3289.77C2345.63 3280.72 2339.07 3273.22 2330.57 3268.63C2322.06 3264.05 2312.19 3262.69 2302.76 3264.82C2293.34 3266.96 2285 3272.43 2279.3 3280.22C2273.59 3288.02 2270.9 3297.62 2271.73 3307.25C2271.73 3307.25 2274.94 3345.57 2272.14 3387.95C2270.73 3409.14 2267.7 3431.07 2262.86 3447.89C2258.02 3464.71 2250.79 3474.94 2248.42 3476.8C2229.08 3491.97 2211.89 3492.91 2193.89 3486.17C2175.9 3479.43 2158.11 3462.68 2148.91 3438.2C2125.25 3375.19 2116.76 3305.65 2116.76 3305.65C2115.75 3296.94 2111.9 3288.81 2105.82 3282.5C2099.73 3276.19 2091.74 3272.06 2083.08 3270.74C2074.41 3269.41 2065.55 3270.97 2057.86 3275.17C2050.16 3279.37 2044.06 3285.98 2040.49 3293.98C2040.49 3293.98 2021.63 3336.14 1993.17 3379.51C1964.71 3422.89 1923.36 3461.32 1905.49 3464.47C1905.46 3464.47 1905.43 3464.47 1905.39 3464.47C1876.27 3469.65 1840.08 3459.03 1817.62 3438.56C1795.17 3418.08 1783.73 3392.85 1796.62 3352.54C1809.41 3312.59 1862.27 3239.73 1919.55 3177.23C1976.83 3114.73 2039.93 3058.16 2066.02 3039.26C2083.22 3026.8 2104.02 3014.36 2129.24 3006.37C2134.86 3006.09 2140.36 3004.63 2145.37 3002.09C2154.7 3000.04 2164.49 2998.54 2174.96 2997.97C2180.87 2997.65 2186.96 2997.6 2193.25 2997.83L2193.29 2997.85Z" fill="#FF5312"/>
<path fill-rule="evenodd" clip-rule="evenodd" d="M1643.25 2871.05C1650.56 2908.56 1661.34 2946.75 1677.15 2981.29C1722.48 2943.39 1773.64 2912.8 1836.06 2896.6C1791.97 2947.1 1758.35 3002.3 1730.75 3060.1C1762.21 3090.5 1803.21 3109.69 1856.61 3109.69C1862.62 3109.69 1868.41 3109.32 1874.11 3108.77C1869.6 3113.57 1865.09 3118.3 1860.59 3123.22C1844.06 3141.26 1827.79 3159.7 1812.33 3178.34C1661 3144.85 1539.5 3087.11 1457.62 2994.67C1433.35 2967.26 1412.36 2936.48 1394.81 2902.05L1643.25 2871.05Z" fill="white"/>
<path fill-rule="evenodd" clip-rule="evenodd" d="M3524.77 2843.69C3543.17 2862.34 3563.93 2881.28 3585.49 2900.02C3636.66 2944.47 3692.22 2988.34 3720.43 3015.04C3721.17 3015.74 3721.94 3016.39 3722.7 3017.07C3659.04 3159.7 3568.32 3228.69 3453.56 3258.71C3364.89 3281.91 3260.04 3279.47 3145.4 3260.62C3119.42 3179.71 3114.5 3092.78 3130.08 2999.94C3168.58 3003.64 3206.82 3003.23 3244.67 2997.79C3344.45 2983.45 3439.52 2933.8 3524.77 2843.69Z" fill="#005DC7"/>
<path fill-rule="evenodd" clip-rule="evenodd" d="M2079.4 2816.64C2090.35 2855.76 2093.67 2895.87 2090.3 2937.68C2064.8 2946.61 2042.77 2958.31 2024.54 2970.84C2039.52 2925.27 2045.4 2873.01 2043.19 2821.15L2079.4 2816.64Z" fill="black"/>
<path fill-rule="evenodd" clip-rule="evenodd" d="M4169.73 2758.01C4168.17 2758.98 4166.47 2759.65 4164.63 2759.65H4163.62C4165.67 2759.13 4167.71 2758.6 4169.73 2758.01Z" fill="black"/>
<path fill-rule="evenodd" clip-rule="evenodd" d="M2660.45 2715.16C2664.37 2749.21 2663.56 2781.67 2658.23 2812.58C2642.76 2902.26 2589.36 2983.41 2491.9 3058.22C2465.77 3035.98 2435.49 3013.23 2399.87 2990.43C2313.62 2935.23 2236.3 2918.29 2171.62 2921.64C2171.49 2921.65 2171.36 2921.64 2171.23 2921.64C2172.37 2882.04 2168.3 2842.77 2158.58 2804.34L2352.46 2769.88C2356.77 2794.87 2362.9 2820.49 2371.68 2844.18C2416.34 2826.38 2463.66 2813.88 2516.53 2812.58C2475.45 2841.58 2440.53 2874.67 2410.55 2911.17C2430.11 2931.97 2455.27 2945.27 2487.6 2945.47C2583.58 2946.27 2631.36 2825.75 2633.62 2719.9L2660.45 2715.16Z" fill="white"/>
<path fill-rule="evenodd" clip-rule="evenodd" d="M3561.27 2700.18C3561.55 2700.18 3561.88 2700.18 3562.17 2700.18C3563.92 2700.44 3565.68 2700.59 3567.45 2700.62C3567.62 2700.59 3567.8 2700.56 3567.98 2700.52C3574.49 2701.69 3582.51 2705.58 3592.99 2714.69C3653 2766.81 3796.46 2898.03 3826.76 2925.58C3832.56 2930.86 3831.8 2931.39 3831.22 2935.76C3830.64 2940.13 3826.8 2948.19 3819.93 2954.53C3813.06 2960.87 3804.06 2964.91 3796.9 2965.49C3793.96 2965.73 3791.28 2965.69 3788.54 2965.02C3788.08 2964.79 3787.62 2964.57 3787.16 2964.36C3786.69 2964.27 3786.22 2964.18 3785.75 2964.11C3782.65 2962.84 3779.35 2960.67 3775.4 2956.94C3741.37 2924.74 3687.01 2882.27 3637.96 2839.65C3613.42 2818.34 3590.39 2797.15 3572.94 2778.56C3555.48 2759.97 3544.1 2742.69 3542.08 2737.35C3535.75 2720.64 3541.7 2710.51 3550.07 2704.83C3553.2 2702.7 3556.8 2700.73 3561.27 2700.18Z" fill="white"/>
<path fill-rule="evenodd" clip-rule="evenodd" d="M3911.37 2655.92C3927.49 2698.41 3953.18 2728.17 3984.71 2745.16C3996.72 2751.63 4008.95 2756.27 4021.18 2759.65H3921.35C3918.75 2759.65 3916.22 2758.62 3914.32 2756.72C3912.37 2754.77 3911.37 2752.22 3911.37 2749.67V2655.92Z" fill="#005DC7"/>
<path fill-rule="evenodd" clip-rule="evenodd" d="M1335.53 2601.13L2040.45 2740.88L1363.77 2825.29C1344.06 2761.9 1334.07 2687.96 1335.53 2601.13Z" fill="#FF5312"/>
<path fill-rule="evenodd" clip-rule="evenodd" d="M2585.3 2503.95C2611.61 2550.57 2631.01 2594.85 2643.79 2636.87L2131.1 2727.97C2130.55 2726.81 2129.97 2725.66 2129.42 2724.51L2585.3 2503.95Z" fill="#FF5312"/>
<path fill-rule="evenodd" clip-rule="evenodd" d="M4116.29 2303.95C4119.45 2303.95 4122.67 2304.15 4125.92 2304.44C4179.69 2309.21 4202.01 2324.26 4217.8 2351.47C4233.59 2378.68 4240.87 2425.99 4238.25 2491.6C4235.66 2556.26 4222.88 2605.78 4204.11 2636.62C4198.98 2645.05 4193.65 2652.2 4187.91 2658.24C4186.94 2659.15 4186 2660.1 4185.12 2661.1C4170.43 2675.32 4152.86 2682.61 4128.7 2684.75C4088.37 2688.3 4047.94 2688.35 4022.66 2674.73C4002.55 2663.89 3984.7 2645.26 3976.96 2596.88C4026.8 2593.42 4068.58 2571.62 4092.41 2535.88C4110.83 2508.25 4106.53 2477.69 4098.01 2450.92C4089.49 2424.15 4074.82 2397.18 4056.31 2369.3C4048.72 2357.87 4040.34 2346.33 4031.55 2334.79C4054.42 2316.92 4082.58 2303.51 4116.29 2303.95Z" fill="white"/>
<path fill-rule="evenodd" clip-rule="evenodd" d="M3815.34 2250.14C3830.43 2250.3 3844.02 2255.01 3860.26 2269.01C3908.48 2310.61 3957.93 2365.75 3989.65 2413.54C4005.52 2437.43 4016.84 2459.7 4021.76 2475.18C4025.34 2486.44 4024.52 2491.85 4024.79 2492.56C4025.1 2492.23 4025.65 2491.77 4025.82 2491.51C4025.12 2492.55 4024.88 2492.83 4024.79 2492.56C4018.61 2499.29 3986.9 2519.1 3954.87 2517.17C3937.59 2516.13 3919.63 2511.46 3902.33 2498.15C3899.52 2494.7 3896.16 2491.75 3892.39 2489.42C3879.58 2476.71 3867.29 2458.55 3856.1 2432.64C3851.89 2422.9 3843.99 2415.23 3834.13 2411.32C3824.27 2407.41 3813.26 2407.57 3803.52 2411.78C3793.78 2415.99 3786.11 2423.89 3782.2 2433.75C3778.29 2443.61 3778.45 2454.62 3782.66 2464.36C3795.82 2494.83 3812.58 2519.52 3831.35 2539.1V2749.69C3831.35 2773.53 3840.86 2796.38 3857.66 2813.22C3874.5 2830.11 3897.42 2839.67 3921.33 2839.67H3937.76C3917.15 2848.95 3894.86 2853.85 3870.34 2857.05C3832.01 2822.13 3704.89 2705.9 3645.45 2654.26C3631.6 2642.23 3616.36 2633.65 3600.78 2628.34C3599.95 2611.75 3599.38 2589.14 3600.35 2563.36C3602.35 2510.57 3612.1 2446.51 3634.16 2405.88C3658.96 2360.29 3703.32 2304.76 3747.46 2274.83C3769.54 2259.86 3790.91 2251.53 3808.75 2250.33C3810.98 2250.18 3813.18 2250.11 3815.34 2250.14Z" fill="white"/>
<path fill-rule="evenodd" clip-rule="evenodd" d="M3921.35 2169.79H4164.63C4167.24 2169.79 4169.75 2170.83 4171.65 2172.74C4171.71 2172.79 4171.77 2172.84 4171.83 2172.9C4173.6 2174.65 4174.64 2177.06 4174.64 2179.79V2231.8C4161.48 2228.46 4147.6 2226.05 4133.02 2224.75C4069.32 2219.08 4017.57 2244.06 3980.01 2273.79C3958.46 2250.6 3935.63 2228.37 3912.49 2208.41C3912.12 2208.09 3911.73 2207.83 3911.36 2207.52V2179.79C3911.36 2177.06 3912.4 2174.65 3914.17 2172.9C3914.22 2172.84 3914.28 2172.79 3914.33 2172.74C3916.23 2170.83 3918.75 2169.79 3921.35 2169.79Z" fill="#005DC7"/>
<path fill-rule="evenodd" clip-rule="evenodd" d="M2012.8 2150.74C2250.28 2148.89 2489.31 2184.52 2730.38 2257.83C2733.98 2258.94 2736.46 2261.65 2737.25 2265.24C2740.34 2279.22 2756.07 2350.4 2761.18 2373.52C2756.54 2364.31 2748.53 2357.25 2738.81 2353.81C2733.85 2352.09 2728.6 2351.35 2723.35 2351.66C2718.11 2351.96 2712.98 2353.3 2708.25 2355.59L2068.87 2664.94L1306.16 2513.75C1305.56 2513.61 1304.95 2513.49 1304.34 2513.38L1106.96 2474.26C1101.81 2473.24 1096.5 2473.24 1091.35 2474.27C1086.2 2475.3 1081.3 2477.33 1076.94 2480.26C1072.57 2483.18 1068.82 2486.93 1065.91 2491.3C1062.99 2495.67 1060.97 2500.57 1059.95 2505.72C1057.88 2516.13 1060.04 2526.93 1065.94 2535.74C1071.83 2544.56 1080.99 2550.67 1091.39 2552.74L1255.88 2585.35C1250.08 2786.69 1301.3 2938.86 1397.72 3047.72C1487.57 3149.15 1613.43 3211.25 1760.24 3248.26C1742.85 3275.12 1728.86 3301.93 1720.45 3328.21C1698.92 3395.5 1721.9 3459.57 1763.74 3497.72C1805.56 3535.85 1863.5 3553.19 1919.36 3543.29C1986.52 3531.44 2027.46 3473.09 2060.04 3423.42C2060.14 3423.3 2060.14 3423.22 2060.22 3423.11C2064.31 3437.3 2068.51 3451.69 2074.01 3466.35C2090.81 3511.08 2124.27 3545.54 2165.81 3561.1C2207.34 3576.65 2257.96 3571 2297.76 3539.79C2321.68 3521.05 2332.42 3495.42 2339.72 3470.04C2344.35 3453.96 2345.47 3437.69 2347.47 3421.39C2374.69 3447.67 2407.88 3472.45 2451.55 3484.48C2451.59 3484.48 2451.62 3484.48 2451.65 3484.48C2512.05 3501.04 2570.34 3471.25 2604.02 3426.04C2637.69 3380.83 2652.67 3318.67 2636.48 3257.04C2628.27 3225.85 2604.75 3174.07 2550.15 3114.15C2653.5 3031.86 2718.26 2935.34 2737.08 2826.18C2746.17 2773.48 2744.53 2718.79 2732.79 2662.31C2732.75 2662.11 2732.72 2661.9 2732.69 2661.7C2732.65 2661.63 2732.62 2661.55 2732.59 2661.48C2719.57 2599.42 2694.19 2535.18 2657.37 2469.06L2743.05 2427.59C2749.59 2424.39 2755.12 2419.46 2759.06 2413.35C2763 2407.23 2765.2 2400.16 2765.42 2392.89C2842.04 2739.75 3063.8 3743.81 3102.51 3919.08C3094.51 3915.39 3086.21 3911.85 3077.29 3908.55C3019.2 3887.05 2941.14 3873.29 2846.67 3866.26C2657.73 3852.21 2404 3866.04 2128.66 3910.85C1853.32 3955.66 1608.31 4022.99 1433.58 4096.23C1346.22 4132.84 1276.55 4170.66 1228.27 4209.47C1216.56 4218.88 1206.14 4228.28 1196.9 4238.02L1011.69 3349.43C1010.46 3343.55 1007.92 3338.02 1004.27 3333.25C1000.61 3328.48 995.93 3324.6 990.567 3321.89C985.204 3319.18 979.299 3317.71 973.291 3317.6C967.284 3317.48 961.33 3318.72 955.867 3321.23C735.624 3422.04 611.677 3667.2 500.145 3923.94C497.466 3923.61 494.815 3923.25 492.078 3923.02C413.981 3916.49 289.183 3911.49 211.824 3908.02C296.693 3562.36 380.088 3237.17 904.168 2981.44C912.166 2977.54 918.633 2971.08 922.549 2963.09C926.465 2955.1 927.606 2946.03 925.789 2937.32L830.906 2482.22C829.976 2477.75 831.876 2473.57 836.023 2471.3C1225.45 2261 1616.96 2153.82 2012.76 2150.73L2012.8 2150.74Z" fill="#005DC7"/>
<path fill-rule="evenodd" clip-rule="evenodd" d="M3619.36 1306.84C3614.13 1306.38 3608.85 1306.96 3603.84 1308.54C3598.83 1310.12 3594.18 1312.68 3590.16 1316.06L3424.91 1454.87C3416.79 1461.69 3411.71 1471.46 3410.79 1482.02C3409.87 1492.59 3413.18 1503.09 3420 1511.21C3426.83 1519.33 3436.6 1524.41 3447.16 1525.33C3457.73 1526.25 3468.23 1522.94 3476.35 1516.12L3641.62 1377.33C3649.75 1370.5 3654.82 1360.74 3655.74 1350.17C3656.66 1339.6 3653.35 1329.1 3646.53 1320.98C3643.15 1316.95 3639.01 1313.63 3634.35 1311.21C3629.69 1308.78 3624.59 1307.3 3619.36 1306.84Z" fill="black"/>
<path fill-rule="evenodd" clip-rule="evenodd" d="M4281.84 1222.89C4271.24 1222.77 4261.01 1226.85 4253.42 1234.26C4245.83 1241.67 4241.48 1251.79 4241.35 1262.39C4241.21 1273 4245.3 1283.23 4252.7 1290.82L4426.78 1469.32C4434.19 1476.92 4444.31 1481.26 4454.92 1481.39C4465.52 1481.53 4475.75 1477.44 4483.35 1470.04C4487.11 1466.37 4490.12 1462 4492.19 1457.17C4494.26 1452.34 4495.36 1447.15 4495.43 1441.9C4495.5 1436.64 4494.53 1431.43 4492.58 1426.55C4490.63 1421.67 4487.74 1417.22 4484.07 1413.46L4309.98 1234.96C4306.32 1231.2 4301.94 1228.2 4297.11 1226.13C4292.28 1224.05 4287.09 1222.96 4281.84 1222.89Z" fill="black"/>
<path fill-rule="evenodd" clip-rule="evenodd" d="M1582.99 943.655C1709.58 939.978 1841.38 969.214 1938.99 1035.33C2099.83 1144.28 2185.86 1339.04 2215.08 1465.71C2242.83 1585.96 2334.62 2006 2353.75 2093.62C2275.01 2082.89 2196.39 2075.93 2117.91 2073.07C2101.03 1996.41 2016.09 1614.04 1961.7 1441.19C1930.74 1342.85 1882.42 1262.77 1807.54 1214.36C1751.39 1178.05 1682.37 1161.55 1601.33 1165.59C1574.32 1166.93 1545.97 1170.55 1516.31 1176.49C1422.7 1195.2 1346.5 1239.63 1301.08 1310.78C1255.65 1381.94 1242.63 1475.64 1260.9 1587.09C1284.53 1731.23 1348.5 1996.34 1389.09 2160.1C1315.77 2180.42 1242.62 2204.11 1169.65 2231.37C1158.5 2187.63 1138.8 2109.58 1113.32 2001.02C1078.61 1853.06 1041.8 1680.96 1033.77 1597.5C1018.11 1434.73 1100.82 1165.67 1262.82 1040.82C1335.78 984.579 1456.38 947.352 1582.97 943.675L1582.99 943.655Z" fill="#00B1CD"/>
<path fill-rule="evenodd" clip-rule="evenodd" d="M3375.71 863.789C3365.1 863.789 3354.92 868.004 3347.42 875.505C3339.92 883.007 3335.71 893.18 3335.71 903.789C3335.71 914.398 3339.92 924.571 3347.42 932.073C3354.92 939.574 3365.1 943.789 3375.71 943.789H3615.9C3626.51 943.789 3636.68 939.574 3644.19 932.073C3651.69 924.571 3655.9 914.398 3655.9 903.789C3655.9 893.18 3651.69 883.007 3644.19 875.505C3636.68 868.004 3626.51 863.789 3615.9 863.789H3375.71Z" fill="black"/>
<path fill-rule="evenodd" clip-rule="evenodd" d="M4282.05 753.592C4271.45 753.404 4261.2 757.435 4253.57 764.801C4245.93 772.166 4241.54 782.264 4241.35 792.87C4241.25 798.123 4242.19 803.344 4244.12 808.233C4246.04 813.123 4248.91 817.586 4252.55 821.368C4256.2 825.15 4260.56 828.174 4265.37 830.272C4270.19 832.369 4275.37 833.498 4280.63 833.592L4527.42 837.987C4538.03 838.175 4548.28 834.144 4555.91 826.778C4563.54 819.412 4567.94 809.315 4568.13 798.709C4568.32 788.104 4564.28 777.856 4556.92 770.223C4549.55 762.59 4539.46 758.196 4528.85 758.006L4282.05 753.592Z" fill="black"/>
<path fill-rule="evenodd" clip-rule="evenodd" d="M4015.77 571.018L4065.98 657.111V1602.09C4065.98 1608.51 4067.53 1614.83 4070.49 1620.53L4124.63 1724.77V2089.79H3961.35V1447.56L3999.24 1397.7C4004.36 1390.96 4007.21 1382.78 4007.39 1374.32C4007.57 1365.86 4005.06 1357.57 4000.22 1350.63L3971.22 1309.01L3998.68 1274.51C4004.22 1267.56 4007.29 1258.96 4007.39 1250.06C4007.5 1241.17 4004.64 1232.5 3999.27 1225.41L3961.36 1175.43V1111.68L3995.91 1076.54C4003.27 1069.06 4007.4 1058.99 4007.4 1048.49C4007.4 1037.99 4003.27 1027.91 3995.91 1020.43L3961.36 985.314V923.791L3999.76 870.9C4004.49 864.382 4007.15 856.586 4007.38 848.532C4007.61 840.478 4005.4 832.542 4001.05 825.764L3961.36 764.045V662.854L4015.77 571.018Z" fill="#00B1CD"/>
<path fill-rule="evenodd" clip-rule="evenodd" d="M4418.68 251.347C4411.69 251.998 4404.99 254.477 4399.26 258.535L4203.15 397.343C4198.86 400.377 4195.21 404.227 4192.41 408.671C4189.61 413.116 4187.71 418.068 4186.82 423.247C4185.94 428.425 4186.08 433.726 4187.24 438.85C4188.4 443.973 4190.56 448.817 4193.6 453.105C4196.63 457.392 4200.48 461.041 4204.93 463.84C4209.37 466.639 4214.33 468.533 4219.5 469.418C4224.68 470.303 4229.99 470.16 4235.11 468.996C4240.23 467.832 4245.07 465.672 4249.36 462.636L4445.47 323.847C4449.76 320.813 4453.41 316.963 4456.21 312.519C4459.01 308.075 4460.91 303.122 4461.8 297.944C4462.69 292.766 4462.54 287.464 4461.38 282.341C4460.22 277.218 4458.06 272.374 4455.02 268.085C4451.99 263.794 4448.14 260.142 4443.69 257.341C4439.24 254.539 4434.29 252.643 4429.11 251.757C4425.66 251.166 4422.16 251.028 4418.68 251.347Z" fill="black"/>
<path fill-rule="evenodd" clip-rule="evenodd" d="M3533.13 231.389C3522.52 231.426 3512.36 235.677 3504.89 243.205C3501.18 246.932 3498.25 251.352 3496.26 256.213C3494.26 261.074 3493.24 266.281 3493.26 271.535C3493.28 276.79 3494.33 281.988 3496.36 286.835C3498.39 291.683 3501.35 296.085 3505.08 299.787L3664.82 458.381C3668.55 462.085 3672.97 465.019 3677.83 467.014C3682.69 469.009 3687.9 470.027 3693.15 470.009C3698.41 469.992 3703.61 468.939 3708.46 466.911C3713.3 464.883 3717.7 461.919 3721.41 458.19C3725.11 454.462 3728.04 450.042 3730.03 445.18C3732.03 440.318 3733.04 435.11 3733.02 429.855C3733 424.601 3731.95 419.402 3729.92 414.555C3727.89 409.708 3724.93 405.309 3721.2 401.608L3561.45 243.015C3553.92 235.539 3543.74 231.354 3533.13 231.389Z" fill="black"/>
<path fill-rule="evenodd" clip-rule="evenodd" d="M3995.24 -0.000560949C3984.63 -0.0889948 3974.42 4.03888 3966.86 11.474C3959.3 18.9092 3955 29.0424 3954.9 39.6479L3952.7 290.839C3952.65 296.092 3953.64 301.303 3955.61 306.174C3957.57 311.045 3960.48 315.481 3964.16 319.228C3967.85 322.975 3972.23 325.959 3977.06 328.012C3981.9 330.065 3987.09 331.145 3992.35 331.191C3997.6 331.237 4002.81 330.248 4007.68 328.281C4012.55 326.313 4016.99 323.405 4020.73 319.724C4024.48 316.042 4027.47 311.659 4029.52 306.823C4031.57 301.988 4032.65 296.795 4032.7 291.542L4034.88 40.351C4034.93 35.098 4033.94 29.8874 4031.97 25.0165C4030.01 20.1457 4027.1 15.7094 4023.42 11.9623C4019.74 8.21525 4015.35 5.23092 4010.52 3.17815C4005.68 1.12538 4000.49 0.0453309 3995.24 -0.000560949Z" fill="black"/>
<path fill-rule="evenodd" clip-rule="evenodd" d="M449.421 4276.6C438.815 4276.46 428.586 4280.53 420.983 4287.93C382.554 4325.36 369.017 4381.06 384.792 4433.01C386.317 4438.04 388.819 4442.71 392.153 4446.77C395.486 4450.84 399.587 4454.2 404.221 4456.67C408.855 4459.15 413.931 4460.69 419.16 4461.2C424.388 4461.72 429.667 4461.19 434.694 4459.67C444.845 4456.58 453.353 4449.59 458.349 4440.23C463.345 4430.88 464.419 4419.92 461.335 4409.77C452.208 4379.71 455.893 4365.62 476.804 4345.25C484.402 4337.85 488.75 4327.73 488.889 4317.13C489.027 4306.52 484.946 4296.29 477.543 4288.69C470.143 4281.09 460.028 4276.74 449.421 4276.6Z" fill="black"/>
<path fill-rule="evenodd" clip-rule="evenodd" d="M334.4 4270.14C331.517 4269.91 328.612 4269.91 325.728 4270.14C319.953 4270.61 314.35 4271.98 309.239 4274.18C304.129 4276.38 299.611 4279.36 295.943 4282.95C248.798 4329.14 250.704 4387.51 276.373 4435.24C280.999 4443.83 289.714 4450.61 300.599 4454.08C311.485 4457.55 323.65 4457.42 334.42 4453.73C345.188 4450.04 353.678 4443.09 358.026 4434.4C362.373 4425.71 362.222 4416 357.603 4407.4C339.392 4373.54 337.963 4353.52 364.478 4327.54C368.146 4323.95 370.891 4319.82 372.557 4315.38C374.223 4310.94 374.777 4306.28 374.188 4301.67C373.599 4297.06 371.877 4292.58 369.122 4288.5C366.367 4284.42 362.632 4280.82 358.131 4277.89C351.357 4273.49 343.099 4270.78 334.4 4270.12V4270.14Z" fill="black"/>
<path fill-rule="evenodd" clip-rule="evenodd" d="M196.863 4270C193.971 4270.06 191.092 4270.34 188.269 4270.84C176.836 4272.9 166.895 4278.5 160.632 4286.41C125.422 4330.9 127.806 4386.16 158.152 4436.6C160.663 4440.78 164.182 4444.52 168.506 4447.62C172.83 4450.71 177.875 4453.09 183.352 4454.63C188.83 4456.17 194.633 4456.82 200.43 4456.57C206.227 4456.32 211.903 4455.15 217.136 4453.15C222.369 4451.14 227.055 4448.33 230.928 4444.88C234.8 4441.42 237.785 4437.4 239.707 4433.02C241.63 4428.65 242.454 4424.02 242.134 4419.39C241.813 4414.76 240.354 4410.23 237.839 4406.06C216.125 4369.96 216.87 4347.47 235.359 4324.1C241.619 4316.19 243.687 4306.62 241.108 4297.49C238.53 4288.37 231.516 4280.43 221.609 4275.43C214.214 4271.71 205.603 4269.82 196.863 4270Z" fill="black"/>
</g>
<defs>
<clipPath id="clip0_102_533">
<rect width="4568.14" height="5770.52" fill="white"/>
</clipPath>
</defs>
</svg>
