<svg width="7172" height="1972" viewBox="0 0 7172 1972" fill="none" xmlns="http://www.w3.org/2000/svg">
<path d="M1857.24 692.086C1847.55 688.362 1837.12 684.637 1827.44 680.167C1584.57 580.34 1390.13 385.9 1290.31 143.036C1286.58 133.351 1282.86 123.666 1279.13 114.726C1245.61 49.168 1127.16 0 985.609 0C844.063 0 724.866 48.423 692.087 114.726C688.362 124.411 684.637 134.096 680.912 143.781C753.92 340.456 857.473 522.231 986.354 683.147C994.549 693.577 1003.49 704.006 1011.68 714.436C1019.88 724.866 1028.82 735.296 1037.76 744.981C1042.97 750.941 1048.19 756.9 1053.4 762.86C1069.05 780.739 1084.69 797.874 1101.08 814.263C1141.31 855.982 1183.77 896.212 1226.98 934.951C1247.1 952.83 1267.96 969.964 1288.82 986.354C1219.53 1041.48 1154.72 1101.83 1093.63 1165.9C1071.28 1184.52 1045.21 1200.91 1037.76 1195.69L1051.17 1212.08L1063.09 1226.98C1180.79 1373.74 1276.9 1535.4 1349.9 1708.24C1457.93 1522 1626.29 1374.49 1827.44 1291.8C1837.12 1288.07 1846.81 1283.6 1857.24 1279.88C1922.8 1246.35 1971.22 1127.16 1971.22 986.354C1971.22 845.552 1922.8 725.611 1857.24 692.086Z" fill="#0FB800"/>
<path d="M959.535 1257.52C950.596 1247.09 942.401 1236.66 933.461 1226.98C928.246 1221.02 923.031 1215.06 917.816 1209.1C902.172 1191.97 886.527 1174.09 870.138 1157.7C829.909 1115.98 787.445 1075.75 744.236 1037.01C724.121 1019.13 703.262 1001.99 682.402 985.605C750.941 931.222 815.009 871.624 875.352 808.3C897.702 788.931 924.521 771.796 932.716 777.755L920.051 759.877L908.132 744.977C790.425 598.216 694.322 436.554 621.314 263.719C513.292 449.964 344.926 597.47 143.781 680.163C134.097 683.888 124.412 688.358 113.982 692.083C48.4237 725.607 0 844.804 0 985.605C0 1126.41 48.4237 1245.6 113.982 1279.13C123.667 1282.85 134.097 1286.58 143.781 1291.05C386.645 1390.87 581.085 1585.31 680.912 1828.18C684.637 1837.86 688.362 1847.55 692.087 1856.49C725.611 1922.05 844.063 1971.22 985.61 1971.22C1127.16 1971.22 1246.35 1922.79 1279.13 1856.49C1282.86 1846.8 1286.58 1837.12 1290.31 1827.43C1217.3 1630.76 1113.75 1448.98 984.865 1288.07C976.67 1278.38 968.475 1267.95 959.535 1257.52Z" fill="#0FB800"/>
<path d="M2670.47 530.953C2836.13 530.953 2936.39 632.309 2936.39 793.607C2936.39 948.365 2837.22 1057.35 2669.38 1057.35H2500.46V1329.81H2351.15V530.953H2500.46H2670.47ZM2642.14 927.658C2739.13 927.658 2779.46 863.357 2779.46 790.337C2779.46 724.946 2739.13 662.825 2643.23 662.825H2500.46V927.658H2642.14ZM2970.44 1058.44C2970.44 891.693 3083.78 773.99 3253.8 773.99C3423.81 773.99 3536.07 891.693 3536.07 1058.44C3536.07 1226.28 3423.81 1342.89 3253.8 1342.89C3083.78 1342.89 2970.44 1226.28 2970.44 1058.44ZM3114.3 1058.44C3114.3 1151.08 3168.79 1215.38 3253.8 1215.38C3337.71 1215.38 3393.3 1151.08 3393.3 1058.44C3393.3 965.803 3337.71 901.502 3253.8 901.502C3168.79 901.502 3114.3 965.803 3114.3 1058.44ZM3635.2 1329.81V515.695H3777.97V1329.81H3635.2ZM4286.12 789.247H4434.34L4174.96 1457.32C4108.48 1629.52 3968.98 1608.81 3865.44 1570.67L3903.58 1442.07C3962.44 1478.03 4032.19 1481.3 4058.34 1407.19L4075.78 1361.42L3844.73 789.247H3995.13L4142.26 1179.41L4286.12 789.247ZM5095.31 1050.81C5098.58 1240.44 4979.78 1343.98 4830.48 1343.98C4754.19 1343.98 4684.44 1313.46 4650.65 1266.6V1582.66H4513.33V789.247H4639.75L4646.29 851.369C4675.72 808.865 4737.84 772.9 4826.12 772.9C4980.87 772.9 5090.95 872.076 5095.31 1050.81ZM4805.41 1215.38C4891.51 1215.38 4953.63 1154.35 4953.63 1058.44C4953.63 961.444 4891.51 901.502 4805.41 901.502C4718.22 901.502 4655.01 961.444 4655.01 1058.44C4655.01 1154.35 4718.22 1215.38 4805.41 1215.38ZM5332.82 852.459C5364.42 787.068 5461.42 770.72 5542.07 789.247V920.029C5413.47 889.514 5337.18 951.635 5337.18 1073.7V1329.81H5193.32V790.337H5325.19L5332.82 852.459ZM6118.57 1059.53V1109.66H5710.97C5719.69 1190.31 5782.9 1223.01 5848.29 1223.01C5913.68 1223.01 5955.1 1192.49 5979.07 1145.63L6096.78 1192.49C6057.54 1287.31 5961.64 1343.98 5848.29 1343.98C5688.08 1343.98 5576.92 1230.64 5576.92 1059.53C5576.92 889.514 5685.9 772.9 5850.47 772.9C6011.77 772.9 6118.57 886.244 6118.57 1059.53ZM5848.29 890.603C5774.18 890.603 5726.23 933.107 5713.15 1011.58H5973.62C5968.18 929.838 5918.04 890.603 5848.29 890.603ZM6321.81 1168.51C6323.99 1206.66 6357.77 1230.64 6410.08 1230.64C6453.68 1230.64 6487.46 1214.29 6487.46 1176.14C6487.46 1147.81 6468.94 1132.55 6435.15 1123.83L6363.22 1104.21C6246.61 1073.7 6206.28 1015.94 6206.28 945.096C6206.28 848.099 6280.39 772.9 6411.17 772.9C6517.98 772.9 6601.9 824.123 6618.24 915.67L6490.73 945.096C6486.37 908.041 6455.86 887.334 6415.53 887.334C6374.12 887.334 6345.78 908.041 6345.78 942.916C6345.78 969.072 6363.22 985.42 6406.81 997.409L6477.65 1015.94C6576.83 1042.09 6630.23 1096.58 6630.23 1176.14C6630.23 1275.32 6551.76 1343.98 6412.26 1343.98C6277.12 1343.98 6204.1 1278.59 6191.02 1190.31L6321.81 1168.51ZM6827.35 1168.51C6829.53 1206.66 6863.32 1230.64 6915.63 1230.64C6959.22 1230.64 6993.01 1214.29 6993.01 1176.14C6993.01 1147.81 6974.48 1132.55 6940.7 1123.83L6868.77 1104.21C6752.15 1073.7 6711.83 1015.94 6711.83 945.096C6711.83 848.099 6785.94 772.9 6916.72 772.9C7023.52 772.9 7107.44 824.123 7123.79 915.67L6996.28 945.096C6991.92 908.041 6961.4 887.334 6921.08 887.334C6879.66 887.334 6851.33 908.041 6851.33 942.916C6851.33 969.072 6868.77 985.42 6912.36 997.409L6983.2 1015.94C7082.38 1042.09 7135.78 1096.58 7135.78 1176.14C7135.78 1275.32 7057.31 1343.98 6917.81 1343.98C6782.67 1343.98 6709.65 1278.59 6696.57 1190.31L6827.35 1168.51Z" fill="#060819"/>
</svg>
