<?xml version="1.0" encoding="utf-8"?>
<!-- Generator: Adobe Illustrator 28.1.0, SVG Export Plug-In . SVG Version: 6.00 Build 0)  -->
<svg version="1.1" id="Layer_1" xmlns="http://www.w3.org/2000/svg" xmlns:xlink="http://www.w3.org/1999/xlink" x="0px" y="0px"
	 viewBox="0 0 191.3 67" style="enable-background:new 0 0 191.3 67;" xml:space="preserve">
<style type="text/css">
	.st0{clip-path:url(#SVGID_00000132801276979014620370000017810491527644533900_);}
	.st1{fill:#1F8DF0;}
	.st2{fill:#FFFFFF;}
</style>
<g>
	<g>
		<g>
			<defs>
				<rect id="SVGID_1_" width="191.3" height="67"/>
			</defs>
			<clipPath id="SVGID_00000132776115588196892840000017660341903409908616_">
				<use xlink:href="#SVGID_1_"  style="overflow:visible;"/>
			</clipPath>
			<g style="clip-path:url(#SVGID_00000132776115588196892840000017660341903409908616_);">
				<path class="st1" d="M63.2,23.5c-0.3-0.1-0.7-0.3-1-0.4c-8.3-3.4-14.9-10-18.2-18.2c-0.1-0.3-0.3-0.6-0.4-1l0,0
					C42.4,1.7,38.3,0,33.5,0s-8.9,1.7-10,3.9l0,0c-0.1,0.3-0.3,0.7-0.4,1c2.5,6.7,6,12.9,10.4,18.3c0.3,0.4,0.6,0.7,0.9,1.1
					c0.3,0.3,0.6,0.7,0.9,1l0,0c0.2,0.2,0.4,0.4,0.5,0.6c0.5,0.6,1.1,1.2,1.6,1.8c1.4,1.4,2.8,2.8,4.3,4.1c0.7,0.6,1.4,1.2,2.1,1.8
					c-2.3,1.9-4.6,3.9-6.6,6.1c-0.8,0.6-1.6,1.2-1.9,1l0.5,0.6l0.4,0.5c4,5,7.3,10.5,9.8,16.3c3.7-6.3,9.4-11.4,16.2-14.2
					c0.3-0.1,0.7-0.3,1-0.4c2.2-1.1,3.9-5.2,3.9-10C67,28.7,65.4,24.7,63.2,23.5z"/>
				<path class="st1" d="M32.7,42.7c-0.3-0.3-0.6-0.7-0.9-1l0,0c-0.2-0.2-0.4-0.4-0.5-0.6c-0.5-0.6-1.1-1.2-1.6-1.8
					c-1.4-1.4-2.8-2.8-4.3-4.1c-0.7-0.6-1.4-1.2-2.1-1.8c2.3-1.9,4.5-3.9,6.6-6c0.8-0.7,1.7-1.2,2-1l-0.4-0.6l-0.4-0.5
					c-4-5-7.3-10.5-9.8-16.3c-3.7,6.3-9.4,11.4-16.2,14.2c-0.3,0.1-0.7,0.3-1,0.4C1.6,24.7,0,28.7,0,33.5s1.6,8.8,3.9,10
					c0.3,0.1,0.7,0.3,1,0.4c8.3,3.4,14.9,10,18.2,18.2c0.1,0.3,0.3,0.6,0.4,1l0,0c1.1,2.2,5.2,3.9,10,3.9s8.9-1.7,10-3.9l0,0
					c0.1-0.3,0.3-0.7,0.4-1c-2.5-6.7-6-12.9-10.4-18.3C33.2,43.4,32.9,43.1,32.7,42.7z"/>
				<path class="st2" d="M99.8,28.2c0,5.3-3.4,9-9.1,9H85v9.3h-5V19.2h5h5.8C96.4,19.2,99.8,22.7,99.8,28.2z M94.5,28
					c0-2.2-1.4-4.3-4.6-4.3H85v9h4.8C93.1,32.7,94.5,30.5,94.5,28z"/>
				<path class="st2" d="M110.5,27.5c5.8,0,9.6,4,9.6,9.7s-3.8,9.7-9.6,9.7c-5.8,0-9.6-4-9.6-9.7S104.7,27.5,110.5,27.5z
					 M110.5,42.5c2.9,0,4.7-2.2,4.7-5.3s-1.9-5.3-4.7-5.3c-2.9,0-4.7,2.2-4.7,5.3S107.6,42.5,110.5,42.5z"/>
				<path class="st2" d="M123.1,18.7h4.9v27.7h-4.9V18.7z"/>
				<path class="st2" d="M149.9,28l-8.8,22.7c-2.3,5.9-7,5.1-10.5,3.9l1.3-4.4c2,1.2,4.4,1.3,5.3-1.2l0.6-1.6L129.9,28h5.1l5,13.3
					l4.9-13.3H149.9z"/>
				<path class="st2" d="M151.9,46.4V18.7h4.9v16.4l6.8-7.1h6l-8,8.4l7.5,10h-5.9l-4.8-6.6l-1.7,1.8v4.8
					C156.7,46.4,151.9,46.4,151.9,46.4z"/>
				<path class="st2" d="M171.2,21.7c0-1.6,1.3-2.9,2.9-2.9c1.6,0,2.9,1.3,2.9,2.9c0,1.7-1.3,2.9-2.9,2.9
					C172.5,24.7,171.2,23.4,171.2,21.7z M176.6,28v18.4h-4.9V28H176.6z"/>
				<path class="st2" d="M190.5,32H187v14.4h-4.7V32h-3.6v-4h3.6v-5.7h4.7V28h3.5V32z"/>
				<path class="st1" d="M63.2,23.5c-0.3-0.1-0.7-0.3-1-0.4c-8.3-3.4-14.9-10-18.2-18.2c-0.1-0.3-0.3-0.6-0.4-1l0,0
					C42.4,1.7,38.3,0,33.5,0s-8.9,1.7-10,3.9l0,0c-0.1,0.3-0.3,0.7-0.4,1c2.5,6.7,6,12.9,10.4,18.3c0.3,0.4,0.6,0.7,0.9,1.1
					c0.3,0.3,0.6,0.7,0.9,1l0,0c0.2,0.2,0.4,0.4,0.5,0.6c0.5,0.6,1.1,1.2,1.6,1.8c1.4,1.4,2.8,2.8,4.3,4.1c0.7,0.6,1.4,1.2,2.1,1.8
					c-2.3,1.9-4.6,3.9-6.6,6.1c-0.8,0.6-1.6,1.2-1.9,1l0.5,0.6l0.4,0.5c4,5,7.3,10.5,9.8,16.3c3.7-6.3,9.4-11.4,16.2-14.2
					c0.3-0.1,0.7-0.3,1-0.4c2.2-1.1,3.9-5.2,3.9-10C67,28.7,65.4,24.7,63.2,23.5z"/>
				<path class="st1" d="M32.7,42.7c-0.3-0.3-0.6-0.7-0.9-1l0,0c-0.2-0.2-0.4-0.4-0.5-0.6c-0.5-0.6-1.1-1.2-1.6-1.8
					c-1.4-1.4-2.8-2.8-4.3-4.1c-0.7-0.6-1.4-1.2-2.1-1.8c2.3-1.9,4.5-3.9,6.6-6c0.8-0.7,1.7-1.2,2-1l-0.4-0.6l-0.4-0.5
					c-4-5-7.3-10.5-9.8-16.3c-3.7,6.3-9.4,11.4-16.2,14.2c-0.3,0.1-0.7,0.3-1,0.4C1.6,24.7,0,28.7,0,33.5s1.6,8.8,3.9,10
					c0.3,0.1,0.7,0.3,1,0.4c8.3,3.4,14.9,10,18.2,18.2c0.1,0.3,0.3,0.6,0.4,1l0,0c1.1,2.2,5.2,3.9,10,3.9s8.9-1.7,10-3.9l0,0
					c0.1-0.3,0.3-0.7,0.4-1c-2.5-6.7-6-12.9-10.4-18.3C33.2,43.4,32.9,43.1,32.7,42.7z"/>
				<path class="st2" d="M99.8,28.2c0,5.3-3.4,9-9.1,9H85v9.3h-5V19.2h5h5.8C96.4,19.2,99.8,22.7,99.8,28.2z M94.5,28
					c0-2.2-1.4-4.3-4.6-4.3H85v9h4.8C93.1,32.7,94.5,30.5,94.5,28z"/>
				<path class="st2" d="M110.5,27.5c5.8,0,9.6,4,9.6,9.7s-3.8,9.7-9.6,9.7c-5.8,0-9.6-4-9.6-9.7S104.7,27.5,110.5,27.5z
					 M110.5,42.5c2.9,0,4.7-2.2,4.7-5.3s-1.9-5.3-4.7-5.3c-2.9,0-4.7,2.2-4.7,5.3S107.6,42.5,110.5,42.5z"/>
				<path class="st2" d="M123.1,18.7h4.9v27.7h-4.9V18.7z"/>
				<path class="st2" d="M149.9,28l-8.8,22.7c-2.3,5.9-7,5.1-10.5,3.9l1.3-4.4c2,1.2,4.4,1.3,5.3-1.2l0.6-1.6L129.9,28h5.1l5,13.3
					l4.9-13.3H149.9z"/>
				<path class="st2" d="M151.9,46.4V18.7h4.9v16.4l6.8-7.1h6l-8,8.4l7.5,10h-5.9l-4.8-6.6l-1.7,1.8v4.8
					C156.7,46.4,151.9,46.4,151.9,46.4z"/>
				<path class="st2" d="M171.2,21.7c0-1.6,1.3-2.9,2.9-2.9c1.6,0,2.9,1.3,2.9,2.9c0,1.7-1.3,2.9-2.9,2.9
					C172.5,24.7,171.2,23.4,171.2,21.7z M176.6,28v18.4h-4.9V28H176.6z"/>
				<path class="st2" d="M190.5,32H187v14.4h-4.7V32h-3.6v-4h3.6v-5.7h4.7V28h3.5V32z"/>
			</g>
		</g>
	</g>
</g>
</svg>
