<svg width="169" height="234" viewBox="0 0 169 234" fill="none" xmlns="http://www.w3.org/2000/svg">
<path fill-rule="evenodd" clip-rule="evenodd" d="M164.219 0.00240979C163.167 -0.0387868 162.172 0.453085 161.491 1.10491C160.81 1.75687 160.333 2.55554 159.918 3.46314C159.088 5.27838 158.519 7.58721 158.044 10.2168C157.742 11.8834 157.464 13.5589 157.211 15.1216C156.817 15.1006 156.431 15.1369 156.07 15.2363C155.404 15.419 154.825 15.7173 154.307 16.082C154.166 15.9224 154.02 15.7716 153.865 15.6318C152.807 14.6762 151.396 14.3013 150.16 14.4959C149.342 14.6246 148.596 14.9467 147.953 15.4109C147.454 12.8941 146.661 9.79313 145.614 7.02573C144.902 5.14208 144.096 3.42422 143.044 2.09186C142.519 1.4257 141.924 0.838582 141.148 0.43468C140.759 0.232729 140.31 0.0915605 139.842 0.034937C139.374 -0.0216426 138.888 0.00642401 138.425 0.141935C136.968 0.567575 135.864 1.709 135.371 2.94784C134.877 4.18667 134.818 5.49187 134.884 6.81858C135.018 9.47195 135.73 12.3263 136.041 14.4976C136.424 17.1811 137.608 24.4787 138.331 28.9226C137.038 28.3055 135.736 27.9858 134.504 27.9562L134.509 27.9605C133.297 27.9312 132.132 28.1849 131.15 28.8122C130.169 29.4391 129.414 30.4974 129.195 31.7132C128.746 34.1926 130.276 36.1634 131.793 37.7949C133.31 39.4267 135.1 40.8806 136.143 41.949C136.972 42.8003 139.046 45.8829 140.69 48.5648C141.776 50.3375 142.564 51.6872 143.092 52.5991C142.985 52.7831 142.889 52.9719 142.817 53.1683C142.41 54.2793 142.547 55.4409 142.993 56.415C143.477 57.4725 144.404 58.374 145.56 58.8623C145.983 69.1746 143.74 75.1048 140.816 77.7093C137.924 80.284 134.102 80.2479 129.832 77.9019C126.885 61.8895 122.472 37.9202 121.545 32.8756C121.138 30.6755 119.098 29.1159 116.864 29.3044V29.3C102.805 30.4877 31.1114 36.5399 31.1114 36.5399C31.0598 36.5651 31.0096 36.5928 30.9607 36.623C30.901 36.6127 30.8407 36.6055 30.7801 36.6015C30.5929 36.7009 30.4253 36.8334 30.2854 36.9926C30.1175 37.0852 29.966 37.2047 29.8368 37.3463C29.7995 37.3734 29.7632 37.4018 29.7281 37.4318L25.2573 45.4343C24.8202 46.216 24.6622 47.1244 24.8097 48.0074L30.3042 80.9053C18.9845 87.144 12.7376 95.1502 9.34125 103.882C5.96567 112.561 5.27597 121.865 4.58799 131.002C4.20118 131.169 3.83017 131.345 3.48035 131.531C2.01625 132.308 0.990492 133.187 0.449326 134.343C-0.0918837 135.499 0.10317 136.929 0.767751 137.839C0.987188 138.14 1.23711 138.401 1.50817 138.629C1.3181 139.776 1.02932 141.577 0.706976 144.034C0.238123 147.608 -0.225095 151.512 0.119773 154.033C0.361913 155.806 0.646662 158.467 2.11164 160.776C3.48244 162.936 6.16482 164.545 9.89079 164.285C10.2176 164.519 10.5731 164.729 10.9625 164.91C13.5541 166.111 16.1354 165.906 18.1852 165.312C18.9564 165.719 19.8453 165.967 20.8088 165.953C23.4002 165.915 25.8685 165.06 27.5839 163.152C29.0619 161.508 29.9021 159.216 30.0971 156.359C31.2425 155.929 32.2061 155.149 32.8071 154.016C33.5728 152.57 33.5767 151.021 33.5672 149.174C33.5576 147.327 33.3653 145.362 32.9569 143.753C32.5402 142.111 31.6129 139.808 30.7699 137.795C30.3917 136.893 30.042 136.088 29.7598 135.446C30.3841 134.758 30.7522 133.864 30.7733 132.973C30.825 130.791 29.117 128.829 26.4737 128.125C26.8905 119.771 28.5777 112.335 34.5884 106.555L49.2582 194.404C49.2582 194.406 49.2582 194.408 49.2582 194.409C49.6175 196.526 51.6554 197.992 53.7786 197.648L58.1381 196.946C57.9873 201.114 58.0028 204.942 58.0499 208.691C57.267 209.206 56.6501 209.811 56.2216 210.508C55.5786 211.554 55.4129 212.85 55.8467 213.939C56.1907 214.804 56.8386 215.44 57.6511 215.833C57.2121 218.308 56.5803 223.184 57.4396 227.626C57.6866 228.899 58.0638 230.141 58.6414 231.291C58.6478 231.304 58.6544 231.317 58.6611 231.33C59.3415 232.604 60.6757 233.406 62.1227 233.406C67.4638 233.428 88.8675 233.428 95.44 233.428C97.4531 233.428 99.1627 231.878 99.3664 229.88C99.368 229.87 99.3694 229.859 99.3708 229.849C99.4301 229.141 99.4853 228.277 99.4992 227.318C99.5294 225.135 99.3614 222.454 98.5585 219.855C97.7556 217.256 96.2641 214.674 93.6314 213.072C90.8501 211.382 86.9709 210.43 83.0755 210.537C82.0425 210.566 81.0006 210.676 79.9803 210.878C80.166 210.376 80.2378 209.834 80.1617 209.302C80.0412 208.459 79.6282 207.751 79.0139 207.194L78.9718 193.596L106.166 189.222C105.991 195.981 106.29 200.275 106.658 204.095C106.302 204.221 105.969 204.362 105.652 204.536C104.373 205.237 103.454 206.068 102.953 207.112C102.451 208.156 102.508 209.407 103.001 210.314C103.485 211.203 104.261 211.832 105.158 212.141C103.745 215.866 102.08 222.784 105.289 230.012C105.29 230.015 105.292 230.018 105.293 230.02C105.927 231.43 107.333 232.338 108.877 232.338C115.499 232.351 144.338 232.352 152.147 232.352C154.191 232.352 155.917 230.752 156.081 228.719C156.083 228.71 156.084 228.701 156.085 228.692C156.225 226.531 156.219 223.035 155.121 219.347C154.023 215.659 151.767 211.74 147.504 209.098C144.591 207.291 141.615 206.504 138.881 206.358C137.97 206.31 137.085 206.333 136.239 206.412C133.36 206.684 130.931 207.573 129.168 208.601C129.114 208.519 129.053 208.408 128.989 208.267C129.502 207.539 129.716 206.624 129.611 205.816C129.474 204.765 128.953 203.832 128.164 203.113C127.917 197.689 127.73 192.185 127.892 185.983C133.357 185.076 138.266 182.076 141.53 177.573C144.913 172.901 146.242 167.044 145.196 161.366C141.845 143.167 138.244 123.599 133.583 98.2738C145.084 100.233 153.922 96.4247 159.26 88.6209C164.829 80.4805 166.79 68.3697 165.662 54.1223C166.397 53.6881 166.984 53.0996 167.331 52.3821C167.861 51.2889 167.77 50.0509 167.314 49.0694C166.817 47.999 165.889 47.1375 164.733 46.6701C164.892 45.896 165.129 44.9184 165.423 43.8077C165.946 41.8266 166.579 39.4198 166.945 36.7878C167.241 34.6543 167.591 30.1137 167.925 25.5351C168.259 20.9565 168.569 16.3797 168.731 14.546C168.917 12.4317 169.164 9.24019 168.849 6.37229C168.692 4.93839 168.416 3.57438 167.763 2.36973C167.11 1.1653 165.806 0.0664517 164.222 0.00465674L164.219 0.00240979Z" fill="#070922"/>
<path fill-rule="evenodd" clip-rule="evenodd" d="M119.132 39.124C122.593 57.9408 135.221 126.554 141.747 161.998C142.62 166.733 141.512 171.615 138.689 175.514C135.863 179.413 131.568 181.977 126.801 182.623C104.69 185.616 71.0582 190.175 61.7015 191.441C61.2199 191.507 60.8068 191.207 60.7205 190.728C57.3361 172.083 37.2991 61.7379 34.6953 47.3988L119.132 39.124Z" fill="#FFB900"/>
<path fill-rule="evenodd" clip-rule="evenodd" d="M61.4806 229.045H95.9115C95.9001 229.206 95.8905 229.381 95.8782 229.53C95.8519 229.764 95.6795 229.922 95.4417 229.922C88.8678 229.922 67.4288 229.922 62.1321 229.9C62.1295 229.9 62.1268 229.9 62.1242 229.9C61.9713 229.9 61.8394 229.816 61.7647 229.684C61.6636 229.481 61.569 229.267 61.4806 229.045Z" fill="white"/>
<path fill-rule="evenodd" clip-rule="evenodd" d="M108.373 228.302H152.585C152.581 228.344 152.585 228.403 152.581 228.444C152.558 228.686 152.385 228.846 152.144 228.846C144.334 228.846 115.477 228.846 108.878 228.833C108.877 228.833 108.875 228.833 108.874 228.833C108.709 228.833 108.558 228.734 108.489 228.584C108.448 228.49 108.413 228.396 108.373 228.302Z" fill="white"/>
<path fill-rule="evenodd" clip-rule="evenodd" d="M68.0675 214.266C68.3647 216.206 69.1955 217.788 70.3392 218.965C69.0827 221.53 68.4226 223.933 68.076 225.54H60.6812C60.3064 222.007 60.852 218.027 61.1811 216.114C61.4707 216.041 61.76 215.95 62.0465 215.833C64.0491 215.013 66.0754 214.557 68.0675 214.266Z" fill="white"/>
<path fill-rule="evenodd" clip-rule="evenodd" d="M83.169 214.04C86.3895 213.952 89.8152 214.857 91.8067 216.067C93.5172 217.108 94.5677 218.82 95.2067 220.889C95.6659 222.375 95.8822 224.011 95.9591 225.539H71.6895C72.2483 223.343 73.3731 220.014 75.49 217.218C77.0553 215.151 79.9482 214.128 83.169 214.04Z" fill="white"/>
<path fill-rule="evenodd" clip-rule="evenodd" d="M74.0106 213.685C73.5359 214.108 73.0924 214.576 72.6941 215.102C72.5161 215.337 72.3496 215.575 72.1839 215.813C71.8439 215.31 71.6173 214.695 71.5137 213.886C72.3613 213.815 73.1946 213.751 74.0106 213.685Z" fill="white"/>
<path fill-rule="evenodd" clip-rule="evenodd" d="M137.607 209.84C140.089 209.78 142.851 210.341 145.649 212.078C149.077 214.2 150.831 217.246 151.754 220.347C152.209 221.876 152.445 223.407 152.553 224.795H107.299C106.086 218.606 108.389 213.242 109.198 211.611C111.437 210.868 114.89 210.251 118.329 209.952C119.367 212.17 120.763 214.14 122.725 215.462C121.867 216.944 121.429 218.042 121.429 218.042C121.342 218.256 121.299 218.484 121.301 218.714C121.303 218.944 121.351 219.172 121.44 219.384C121.53 219.596 121.661 219.788 121.825 219.949C121.99 220.111 122.184 220.238 122.398 220.324C122.611 220.41 122.839 220.454 123.07 220.452C123.3 220.45 123.527 220.402 123.739 220.312C123.951 220.222 124.143 220.092 124.305 219.927C124.466 219.763 124.593 219.569 124.68 219.355C124.68 219.355 126.756 214.494 130.297 212.025C131.495 211.188 133.823 210.161 136.561 209.903C136.904 209.87 137.253 209.849 137.607 209.84Z" fill="white"/>
<path fill-rule="evenodd" clip-rule="evenodd" d="M122.645 209.758C123.373 209.762 124.072 209.785 124.725 209.832C125.11 209.86 125.482 209.86 125.84 209.832C125.992 210.151 126.17 210.451 126.379 210.731C125.758 211.326 125.196 211.945 124.696 212.565C123.706 211.909 122.888 210.966 122.18 209.76C122.335 209.76 122.493 209.755 122.645 209.756V209.758Z" fill="white"/>
<path fill-rule="evenodd" clip-rule="evenodd" d="M74.2932 209.293C74.5295 209.293 74.7462 209.293 74.9394 209.302C75.6763 209.326 76.0711 209.431 76.2945 209.534C76.3506 209.572 76.4089 209.607 76.4691 209.638C76.5046 209.666 76.5408 209.694 76.5598 209.713C76.4458 209.799 76.2415 209.946 75.7047 210.006C75.7032 210.006 75.7018 210.006 75.7003 210.006C71.8363 210.447 66.3397 210.284 60.7112 212.589C60.2216 212.789 59.88 212.85 59.6378 212.85C59.6139 212.849 59.5899 212.849 59.5659 212.85C59.1946 212.828 59.0993 212.648 59.0986 212.646C59.0986 212.646 59.0384 212.617 59.2039 212.347C59.3561 212.1 59.7561 211.687 60.5572 211.293C60.5817 211.282 60.6059 211.27 60.6299 211.258C60.6772 211.235 60.7203 211.212 60.7703 211.19C61.7105 210.773 64.6112 210.156 67.4872 209.796C70.0045 209.482 72.6368 209.3 74.2914 209.295L74.2932 209.293Z" fill="white"/>
<path fill-rule="evenodd" clip-rule="evenodd" d="M123.787 205.115C124.051 205.121 124.28 205.135 124.469 205.158C125.591 205.291 126.037 206.023 126.093 206.216C125.994 206.267 125.706 206.388 124.979 206.335C119.077 205.908 111.166 206.856 106.751 208.787C106.518 208.889 106.158 208.687 106.1 208.65C106.054 208.737 106.079 208.633 106.079 208.637C106.079 208.637 106.095 208.647 106.1 208.65C106.105 208.642 106.106 208.642 106.111 208.63C106.178 208.492 106.483 208.077 107.336 207.609C107.369 207.591 108.564 207.166 109.994 206.842C111.424 206.518 113.228 206.181 115.091 205.893C118.352 205.389 121.932 205.069 123.786 205.115L123.787 205.115Z" fill="white"/>
<path fill-rule="evenodd" clip-rule="evenodd" d="M75.4765 197.354L75.5024 205.824C75.3569 205.812 75.2103 205.802 75.0615 205.797C73.1146 205.731 70.0759 205.939 67.0582 206.316C65.0576 206.566 63.1507 206.855 61.543 207.262C61.5276 205.67 61.5189 204.067 61.5312 202.427C65.7237 200.174 70.3544 198.46 75.4785 197.354L75.4765 197.354Z" fill="#FFB900"/>
<path fill-rule="evenodd" clip-rule="evenodd" d="M124.322 191.273C124.334 194.892 124.443 198.311 124.586 201.648C124.032 201.598 123.42 201.578 122.754 201.586C120.406 201.617 117.456 201.98 114.557 202.429C112.974 202.673 111.447 202.951 110.097 203.235C109.891 201.04 109.717 198.704 109.648 195.796C113.812 194.086 119.351 192.388 124.323 191.274L124.322 191.273Z" fill="#FFB900"/>
<path fill-rule="evenodd" clip-rule="evenodd" d="M111.106 168.978C110.876 168.974 110.647 169.016 110.433 169.1C110.219 169.185 110.023 169.311 109.858 169.471C109.693 169.631 109.56 169.822 109.469 170.033C109.377 170.245 109.328 170.472 109.324 170.702C109.321 170.932 109.362 171.161 109.447 171.375C109.532 171.589 109.658 171.784 109.818 171.95L117.623 180.014C117.784 180.179 117.975 180.312 118.186 180.403C118.397 180.495 118.624 180.544 118.855 180.548C119.085 180.551 119.313 180.51 119.528 180.425C119.742 180.34 119.937 180.214 120.102 180.054C120.268 179.894 120.4 179.703 120.492 179.492C120.583 179.281 120.632 179.053 120.636 178.823C120.64 178.593 120.598 178.364 120.513 178.15C120.429 177.936 120.303 177.741 120.143 177.575L112.337 169.511C112.014 169.177 111.571 168.985 111.106 168.978Z" fill="#070922"/>
<path fill-rule="evenodd" clip-rule="evenodd" d="M115.85 165.228C115.62 165.224 115.391 165.266 115.177 165.35C114.963 165.435 114.768 165.561 114.602 165.721C114.437 165.881 114.304 166.072 114.213 166.283C114.121 166.495 114.072 166.722 114.069 166.952C114.065 167.182 114.106 167.411 114.191 167.625C114.276 167.839 114.402 168.034 114.562 168.2L122.368 176.264C122.528 176.429 122.719 176.562 122.93 176.653C123.141 176.745 123.368 176.794 123.599 176.798C123.829 176.801 124.058 176.76 124.272 176.675C124.486 176.59 124.681 176.464 124.846 176.304C125.012 176.144 125.144 175.953 125.236 175.742C125.327 175.531 125.376 175.303 125.38 175.073C125.384 174.843 125.342 174.614 125.258 174.4C125.173 174.186 125.047 173.991 124.887 173.825L117.081 165.761C116.758 165.427 116.315 165.235 115.85 165.228Z" fill="#070922"/>
<path fill-rule="evenodd" clip-rule="evenodd" d="M120.593 161.477C120.363 161.473 120.134 161.515 119.92 161.599C119.706 161.684 119.51 161.81 119.345 161.97C119.179 162.13 119.047 162.321 118.955 162.532C118.864 162.743 118.815 162.971 118.811 163.201C118.807 163.431 118.849 163.66 118.933 163.874C119.018 164.088 119.144 164.283 119.304 164.449L127.109 172.513C127.269 172.678 127.461 172.811 127.672 172.902C127.883 172.994 128.11 173.043 128.34 173.047C128.571 173.05 128.799 173.009 129.013 172.924C129.228 172.839 129.423 172.713 129.588 172.553C129.754 172.393 129.886 172.202 129.978 171.991C130.069 171.78 130.118 171.553 130.122 171.322C130.126 171.092 130.085 170.864 130 170.649C129.915 170.435 129.789 170.24 129.629 170.074L121.824 162.01C121.5 161.676 121.058 161.484 120.593 161.477Z" fill="#070922"/>
<path fill-rule="evenodd" clip-rule="evenodd" d="M89.752 157.549C89.0239 157.555 88.2781 157.755 87.5949 158.182C86.3446 158.963 83.8999 160.712 81.6005 162.235C79.704 163.495 79.1526 165.873 79.9707 167.564C80.7884 169.255 82.997 170.291 85.0894 169.534H85.0938C86.1352 169.157 87.0688 168.501 88.2019 167.654C89.3359 166.806 90.6035 165.763 91.9494 164.637C92.8818 163.856 93.5074 162.88 93.669 161.824C93.8307 160.768 93.4888 159.725 92.8858 158.99C92.2828 158.254 91.4165 157.767 90.4728 157.607C90.2369 157.567 89.9965 157.547 89.7538 157.549H89.752Z" fill="#070922"/>
<path fill-rule="evenodd" clip-rule="evenodd" d="M89.818 161.044C89.8531 161.044 89.8865 161.05 89.9173 161.058C90.0407 161.088 90.1295 161.159 90.1724 161.211C90.2153 161.263 90.2096 161.237 90.2013 161.291C90.193 161.346 90.1417 161.573 89.6954 161.947C88.3639 163.061 87.1291 164.074 86.0994 164.844C85.0695 165.613 84.1782 166.133 83.897 166.235C83.8955 166.235 83.8941 166.235 83.8926 166.235C83.2686 166.461 83.231 166.257 83.1232 166.034C83.0154 165.812 82.8604 165.602 83.5365 165.153C85.9082 163.582 88.4842 161.756 89.4513 161.152C89.5882 161.066 89.711 161.038 89.8161 161.042L89.818 161.044Z" fill="#01B89E"/>
<path fill-rule="evenodd" clip-rule="evenodd" d="M106.025 154.619C105.297 154.625 104.552 154.825 103.868 155.252C102.618 156.033 100.173 157.781 97.8739 159.304C95.9774 160.564 95.4261 162.942 96.2441 164.633C97.0619 166.324 99.2705 167.361 101.363 166.603H101.368C102.409 166.227 103.343 165.57 104.476 164.723C105.61 163.876 106.878 162.832 108.224 161.707C109.156 160.925 109.782 159.95 109.943 158.894C110.105 157.838 109.763 156.794 109.16 156.059C108.557 155.323 107.691 154.838 106.747 154.677H106.743C106.507 154.637 106.266 154.618 106.024 154.62L106.025 154.619Z" fill="#070922"/>
<path fill-rule="evenodd" clip-rule="evenodd" d="M106.093 158.112C106.128 158.112 106.16 158.119 106.191 158.126H106.196C106.319 158.156 106.408 158.227 106.451 158.279C106.494 158.332 106.488 158.306 106.479 158.361C106.471 158.415 106.42 158.642 105.974 159.016C104.642 160.13 103.407 161.143 102.378 161.913C101.348 162.683 100.457 163.202 100.176 163.304C100.175 163.304 100.173 163.304 100.172 163.304C99.5476 163.53 99.5099 163.327 99.4021 163.104C99.2944 162.882 99.1403 162.672 99.8164 162.223H99.812C102.184 160.652 104.761 158.825 105.729 158.221C105.865 158.135 105.989 158.107 106.094 158.111L106.093 158.112Z" fill="#01B89E"/>
<path fill-rule="evenodd" clip-rule="evenodd" d="M125.333 157.727C125.102 157.723 124.874 157.765 124.66 157.849C124.445 157.934 124.25 158.06 124.085 158.22C123.919 158.38 123.787 158.571 123.695 158.782C123.604 158.994 123.555 159.221 123.551 159.451C123.547 159.681 123.589 159.91 123.674 160.124C123.758 160.338 123.884 160.533 124.044 160.699L131.85 168.763C132.01 168.928 132.201 169.061 132.412 169.152C132.624 169.244 132.851 169.293 133.081 169.297C133.311 169.3 133.54 169.259 133.754 169.174C133.968 169.089 134.163 168.963 134.329 168.803C134.494 168.643 134.627 168.452 134.718 168.241C134.81 168.03 134.859 167.802 134.862 167.572C134.866 167.342 134.825 167.113 134.74 166.899C134.655 166.685 134.529 166.49 134.369 166.324L126.564 158.26C126.24 157.926 125.797 157.734 125.333 157.727Z" fill="#070922"/>
<path fill-rule="evenodd" clip-rule="evenodd" d="M130.075 153.977C129.845 153.973 129.616 154.015 129.402 154.099C129.188 154.184 128.992 154.31 128.827 154.47C128.661 154.63 128.529 154.821 128.438 155.032C128.346 155.244 128.297 155.471 128.293 155.701C128.289 155.931 128.331 156.16 128.416 156.374C128.5 156.588 128.626 156.783 128.786 156.949L136.592 165.013C136.752 165.178 136.943 165.311 137.155 165.402C137.366 165.494 137.593 165.543 137.823 165.547C138.053 165.551 138.282 165.509 138.496 165.425C138.71 165.34 138.906 165.214 139.071 165.054C139.236 164.894 139.369 164.703 139.46 164.492C139.552 164.28 139.601 164.053 139.605 163.823C139.608 163.593 139.567 163.364 139.482 163.15C139.398 162.936 139.272 162.741 139.111 162.575L131.306 154.511C130.982 154.177 130.54 153.985 130.075 153.978V153.977Z" fill="#070922"/>
<path fill-rule="evenodd" clip-rule="evenodd" d="M113.976 131.003C109.856 131.003 106.479 134.38 106.479 138.5C106.479 142.62 109.856 145.997 113.976 145.997C118.096 145.997 121.474 142.62 121.474 138.5C121.474 134.38 118.096 131.003 113.976 131.003Z" fill="#070922"/>
<path fill-rule="evenodd" clip-rule="evenodd" d="M113.978 134.51C116.203 134.51 117.969 136.275 117.969 138.5C117.969 140.725 116.203 142.492 113.978 142.492C111.753 142.492 109.986 140.725 109.986 138.5C109.986 136.275 111.753 134.51 113.978 134.51Z" fill="#FF5345"/>
<path fill-rule="evenodd" clip-rule="evenodd" d="M69.324 128.083C69.2137 128.088 69.1031 128.099 68.9919 128.115L68.9972 128.11C67.6151 128.312 65.6171 128.605 64.1806 128.816C64.1791 128.816 64.1776 128.816 64.1762 128.816C63.2443 128.954 62.3922 129.464 61.8376 130.239C61.2905 131.003 61.0696 131.966 61.235 132.898C61.4592 134.164 61.7615 135.846 61.9796 137.085C61.9796 137.087 61.9796 137.089 61.9796 137.091C60.9256 137.284 59.5834 137.534 58.5327 137.726C57.6144 137.892 56.7978 138.425 56.2738 139.191C55.7518 139.95 55.5375 140.893 55.7164 141.824C55.9922 143.308 56.3856 145.431 56.6564 146.902C56.6564 146.904 56.6564 146.906 56.6564 146.908C57.0036 148.765 58.8094 150.031 60.6726 149.727C60.6756 149.727 60.6784 149.727 60.6813 149.727C61.9033 149.522 63.5547 149.251 64.7746 149.049C65.033 150.314 65.3879 152.052 65.6511 153.333C66.0328 155.198 67.8922 156.432 69.7581 156.069C71.038 155.819 72.7802 155.478 74.0603 155.223C75.9232 154.857 77.1738 153.023 76.8354 151.157C76.5957 149.862 76.2721 148.083 76.0307 146.766C76.0351 146.761 76.0308 146.762 76.0387 146.762C76.9352 146.614 78.0259 146.436 78.937 146.288C79.895 146.137 80.7391 145.596 81.2798 144.792C81.8251 143.989 82.0051 143.009 81.8054 142.08C81.804 142.075 81.8025 142.071 81.801 142.066C81.5135 140.781 81.1372 139.066 80.8637 137.849C80.4907 136.166 78.9131 134.986 77.1924 135.108C77.191 135.108 77.1895 135.108 77.188 135.108C76.2185 135.178 74.9658 135.27 74.0029 135.34C74.0029 135.35 73.9819 135.334 74.0029 135.334C73.6881 134.031 73.2279 132.112 72.9081 130.776C72.5121 129.143 70.9791 128.014 69.3241 128.094L69.324 128.083Z" fill="#070922"/>
<path fill-rule="evenodd" clip-rule="evenodd" d="M69.5101 131.57C69.5057 131.57 69.5022 131.57 69.5048 131.586C69.8249 132.923 70.2837 134.839 70.5996 136.146V136.137C70.9917 137.801 72.5653 138.946 74.2624 138.825C74.2638 138.825 74.2653 138.825 74.2668 138.825C75.2307 138.755 76.4811 138.662 77.4476 138.592C77.4476 138.594 77.4476 138.596 77.4476 138.598C77.7165 139.796 78.0912 141.505 78.3815 142.803C78.3812 142.808 78.3815 142.814 78.3815 142.809C77.4651 142.958 76.3661 143.138 75.4617 143.287C75.4591 143.287 75.4564 143.287 75.4538 143.287C74.5357 143.443 73.7081 143.962 73.1683 144.726C72.6216 145.496 72.4144 146.451 72.5794 147.371C72.5794 147.374 72.5794 147.376 72.5794 147.378C72.8197 148.689 73.1439 150.469 73.3857 151.775C73.3837 151.775 73.3817 151.775 73.3796 151.775C72.1093 152.029 70.3646 152.371 69.086 152.62C69.079 152.626 69.0862 152.637 69.0817 152.62C68.8191 151.343 68.4646 149.604 68.206 148.337C67.8333 146.508 66.0377 145.271 64.194 145.582H64.1896C62.9757 145.783 61.3324 146.054 60.1032 146.26C60.0905 146.265 60.0987 146.273 60.097 146.256C59.8252 144.778 59.4322 142.655 59.1562 141.17C60.2161 140.976 61.5589 140.727 62.6059 140.535C64.4822 140.189 65.7576 138.343 65.4203 136.467V136.473C65.2003 135.223 64.8976 133.54 64.6748 132.281C64.6616 132.281 64.6704 132.281 64.6748 132.277C64.6704 132.281 64.6748 132.277 64.6748 132.281C66.113 132.071 68.109 131.778 69.4871 131.577L69.5042 131.585C69.5134 131.58 69.5125 131.577 69.5094 131.576L69.5101 131.57Z" fill="#005DC7"/>
<path fill-rule="evenodd" clip-rule="evenodd" d="M23.5059 131.335C24.1235 131.335 24.6114 131.353 24.9268 131.391C26.96 131.631 27.2718 132.618 27.2654 132.89C27.261 133.027 27.2742 133.043 27.1062 133.145C26.9381 133.246 26.4587 133.409 25.5089 133.2C20.1327 132.024 17.2373 132.656 14.9992 133.353C14.7793 133.421 14.575 133.532 14.3981 133.679C14.2211 133.827 14.0748 134.007 13.9677 134.211C13.8606 134.415 13.7948 134.638 13.774 134.868C13.7531 135.097 13.7777 135.328 13.8462 135.548C13.9845 135.992 14.2934 136.363 14.7049 136.579C15.1165 136.795 15.5971 136.838 16.0409 136.7C18.139 136.047 19.8353 135.549 24.7599 136.626C25.3727 136.76 25.9651 136.82 26.5284 136.804C26.8068 137.437 27.1587 138.247 27.5376 139.152C28.3584 141.111 29.2709 143.476 29.5603 144.616C29.8583 145.79 30.0545 147.596 30.0627 149.192C30.071 150.788 29.7218 152.353 29.7101 152.375C29.6258 152.532 28.4835 153.3 27.5949 153.239C27.1504 153.208 26.8108 153.076 26.5027 152.771C26.1946 152.466 25.864 151.922 25.7195 150.838C25.3721 148.233 25.4471 146.353 25.5936 145.157C25.7402 143.961 25.9078 143.576 25.9078 143.576C25.9914 143.362 26.032 143.133 26.0271 142.903C26.0222 142.672 25.972 142.446 25.8794 142.235C25.7868 142.024 25.6535 141.833 25.4873 141.674C25.3211 141.515 25.1251 141.39 24.9106 141.306C24.696 141.223 24.467 141.182 24.2368 141.187C24.0066 141.192 23.7795 141.242 23.5687 141.335C23.3579 141.428 23.1674 141.561 23.0082 141.727C22.8489 141.894 22.724 142.09 22.6405 142.304C22.6405 142.304 22.2963 143.236 22.1132 144.731C21.9302 146.226 21.8588 148.411 22.2442 151.302C22.4659 152.964 23.0873 154.323 24.0366 155.263C24.7687 155.988 25.6639 156.421 26.5592 156.619C26.3528 158.618 25.7515 159.948 24.9773 160.809C24.0056 161.89 22.6581 162.42 20.7582 162.448C20.2479 162.456 19.9015 162.345 19.577 162.098C19.5405 162.067 19.5028 162.038 19.464 162.01C19.3483 161.909 19.2335 161.789 19.113 161.65C18.6195 161.077 18.1714 160.134 17.8667 159.122C17.2575 157.098 17.1913 154.957 17.1913 154.957C17.186 154.726 17.1354 154.5 17.0424 154.289C16.9494 154.078 16.8158 153.888 16.6493 153.729C16.4828 153.57 16.2865 153.446 16.0718 153.362C15.8571 153.279 15.6282 153.239 15.3981 153.245C15.1678 153.25 14.9409 153.301 14.7303 153.394C14.5196 153.487 14.3294 153.62 14.1704 153.787C14.0114 153.954 13.8868 154.15 13.8037 154.365C13.7206 154.579 13.6806 154.809 13.6861 155.039C13.6861 155.039 13.7282 157.537 14.5096 160.133C14.7241 160.846 14.9958 161.577 15.3578 162.282C14.4125 162.333 13.431 162.19 12.4381 161.73C11.1894 161.152 10.4117 159.642 10.0157 158.03C9.61965 156.418 9.64503 154.989 9.64503 154.989C9.65014 154.759 9.60993 154.53 9.52658 154.315C9.44323 154.101 9.31839 153.905 9.15926 153.738C9.00012 153.572 8.80981 153.439 8.59912 153.346C8.38844 153.253 8.16151 153.203 7.93135 153.198C7.46653 153.187 7.01664 153.362 6.68066 153.683C6.34467 154.005 6.15012 154.446 6.13979 154.911C6.13979 154.911 6.09174 156.751 6.61143 158.867C6.74975 159.43 6.93286 160.033 7.17552 160.638C6.16344 160.331 5.58232 159.701 5.07324 158.899C4.19439 157.514 3.83885 155.346 3.59496 153.56C3.39901 152.128 3.72709 147.982 4.18473 144.493C4.44247 142.529 4.69281 140.901 4.88749 139.693C5.47888 139.656 6.08037 139.523 6.66878 139.29C7.79652 138.84 10.5789 138.101 10.5789 138.101C10.8018 138.043 11.0112 137.942 11.1951 137.804C11.379 137.665 11.5339 137.492 11.6508 137.294C11.7677 137.095 11.8444 136.876 11.8766 136.648C11.9087 136.42 11.8956 136.188 11.838 135.965C11.7218 135.515 11.4316 135.129 11.0313 134.893C10.631 134.657 10.1533 134.59 9.70323 134.706C9.70323 134.706 7.01756 135.376 5.37197 136.032C4.69442 136.3 3.79078 135.909 3.65488 135.796C3.73985 135.64 4.11188 135.168 5.12545 134.63C7.24857 133.503 11.5513 132.493 15.5984 131.938C18.6336 131.521 21.654 131.338 23.5068 131.336L23.5059 131.335Z" fill="white"/>
<path fill-rule="evenodd" clip-rule="evenodd" d="M126.304 119.514C122.184 119.514 118.807 122.89 118.807 127.01C118.807 131.13 122.184 134.508 126.304 134.508C130.424 134.508 133.802 131.13 133.802 127.01C133.802 122.89 130.424 119.514 126.304 119.514Z" fill="#070922"/>
<path fill-rule="evenodd" clip-rule="evenodd" d="M126.306 123.02C128.531 123.02 130.297 124.785 130.297 127.01C130.297 129.235 128.531 131.002 126.306 131.002C124.081 131.002 122.314 129.235 122.314 127.01C122.314 124.785 124.081 123.019 126.306 123.02Z" fill="#FF5345"/>
<path fill-rule="evenodd" clip-rule="evenodd" d="M104.88 107.969L74.7803 111.286C74.5515 111.311 74.3298 111.381 74.128 111.492C73.9262 111.603 73.7481 111.753 73.6041 111.932C73.4601 112.112 73.3528 112.318 73.2885 112.539C73.2242 112.76 73.2041 112.992 73.2293 113.221C73.2546 113.45 73.3247 113.671 73.4356 113.873C73.5465 114.075 73.6962 114.253 73.8759 114.397C74.0556 114.541 74.262 114.648 74.4831 114.712C74.7042 114.776 74.9358 114.796 75.1647 114.771L105.264 111.453C105.726 111.402 106.149 111.17 106.44 110.807C106.731 110.444 106.865 109.981 106.815 109.519C106.764 109.057 106.531 108.634 106.168 108.343C105.805 108.052 105.342 107.918 104.88 107.969Z" fill="#070922"/>
<path fill-rule="evenodd" clip-rule="evenodd" d="M162.234 55.2949C163.16 68.6512 161.115 79.6942 156.363 86.6401C152.858 91.765 147.988 94.8575 141.327 95.2863C138.785 91.827 137.622 87.6689 137.578 82.9414C139.6 82.6343 141.502 81.792 143.146 80.3281C147.267 76.6589 149.483 69.7211 149.074 58.991C150.685 58.5326 157.908 56.5358 162.234 55.2949Z" fill="#FFB900"/>
<path fill-rule="evenodd" clip-rule="evenodd" d="M31.6491 50.2568C34.8105 67.6661 53.9379 172.998 57.2695 191.352C57.4097 192.127 57.7641 192.811 58.2453 193.378L53.219 194.186C53.2175 194.186 53.2161 194.186 53.2146 194.186C52.9624 194.227 52.7561 194.081 52.7122 193.822L37.5253 102.874C37.4756 102.577 37.3499 102.297 37.1605 102.062C36.9711 101.828 36.7244 101.646 36.4442 101.534C36.1638 101.423 35.8594 101.386 35.5606 101.427C35.2617 101.468 34.9785 101.586 34.7383 101.768C25.8453 108.522 23.5028 118.051 22.9874 127.813C22.3775 127.817 21.7293 127.835 21.0238 127.874H21.0194C19.2619 127.971 17.2405 128.172 15.1183 128.463C12.7719 128.786 10.381 129.212 8.20117 129.791C8.86387 121.179 9.65234 112.752 12.6068 105.156C15.8571 96.7995 21.624 89.3577 33.0451 83.3704C33.3721 83.199 33.6366 82.9286 33.8009 82.598C33.9652 82.2674 34.0209 81.8934 33.9602 81.5292L29.2925 53.584L31.6491 50.2568Z" fill="#FFB900"/>
<path fill-rule="evenodd" clip-rule="evenodd" d="M162.829 49.7879C162.885 49.7879 162.939 49.7931 162.992 49.7988C163.62 49.8723 164.003 50.2601 164.134 50.5435C164.222 50.7328 164.203 50.7921 164.175 50.8517C164.146 50.9112 164.036 51.1182 163.39 51.3122C160.086 52.2988 149.661 55.1744 147.879 55.6847C146.916 55.9616 146.422 55.4779 146.182 54.9544C146.062 54.6927 146.071 54.4794 146.11 54.3732C146.128 54.3248 146.148 54.2733 146.202 54.2166C146.241 54.1907 146.278 54.1633 146.314 54.1345C146.388 54.0882 146.483 54.0396 146.641 53.9847C146.642 53.9847 146.644 53.9847 146.645 53.9847C149.09 53.1269 160.398 50.2866 162.28 49.8476C162.478 49.8013 162.661 49.7837 162.829 49.7879Z" fill="white"/>
<path fill-rule="evenodd" clip-rule="evenodd" d="M113.489 42.0987C102.197 43.0675 54.7103 47.1476 43.3986 48.1206C42.2913 48.2153 41.2673 48.7728 40.591 49.6699C39.9133 50.5635 39.6537 51.706 39.8643 52.7976C41.7096 62.3528 48.5548 97.7502 50.3911 107.243C50.8185 109.452 52.8945 110.996 55.1324 110.771C64.7653 109.807 101.05 106.179 117.665 104.518C120.321 104.255 122.75 102.899 124.368 100.774C125.991 98.6524 126.654 95.9533 126.216 93.3266C123.932 79.7928 119.532 53.7329 118.187 45.7409C117.811 43.5036 115.746 41.9081 113.491 42.103L113.489 42.0987Z" fill="#070922"/>
<path fill-rule="evenodd" clip-rule="evenodd" d="M113.788 45.5916H113.793C114.263 45.5509 114.651 45.8478 114.73 46.3183C116.076 54.3142 120.476 80.3725 122.759 93.9057C123.038 95.581 122.615 97.2966 121.584 98.6444C121.582 98.6459 121.581 98.6473 121.579 98.6488C120.55 100.002 119.009 100.862 117.319 101.029C100.705 102.69 64.4164 106.319 54.783 107.283C54.3125 107.33 53.9244 107.042 53.8346 106.578C51.9983 97.0852 45.1526 61.6861 43.3078 52.1331C43.2823 52.0002 43.3121 51.8832 43.3848 51.7873C43.3869 51.7847 43.3889 51.782 43.3909 51.7794C43.4593 51.6885 43.5717 51.6241 43.6982 51.6133C55.0093 50.6404 102.5 46.56 113.789 45.5915L113.788 45.5916Z" fill="#01B89E"/>
<path fill-rule="evenodd" clip-rule="evenodd" d="M30.406 43.4082C30.4253 43.5156 30.7459 45.2785 30.7732 45.4292L28.4749 48.6733L28.2678 47.4313C28.2516 47.333 28.2678 47.2331 28.3174 47.1471L30.406 43.4082Z" fill="#FFB900"/>
<path fill-rule="evenodd" clip-rule="evenodd" d="M117.159 32.7955C117.626 32.756 118.013 33.0545 118.098 33.5102C118.142 33.7517 118.443 35.3886 118.494 35.6647L34.066 43.9378C34.0182 43.6744 33.3439 39.9613 33.3281 39.8744C36.4071 39.6145 103.413 33.9584 117.159 32.7972L117.159 32.7955Z" fill="#FFB900"/>
<path fill-rule="evenodd" clip-rule="evenodd" d="M157.269 18.5401C157.296 18.5397 157.324 18.5484 157.354 18.5633C157.42 18.6347 157.491 18.7005 157.567 18.7601C157.64 18.8438 157.721 18.9428 157.84 19.0974C159.007 20.6123 159.343 22.9313 159.187 25.1244C159.03 27.3175 158.305 29.4629 158.147 29.7706C157.888 30.2769 157.583 30.437 157.388 30.446C157.233 30.453 156.864 30.3973 156.305 29.7646C157.135 26.1486 156.617 22.3792 156.055 19.8695C156.012 19.6788 155.965 19.4954 155.916 19.314C156.364 18.9305 156.771 18.6802 156.998 18.6181C157.126 18.583 157.199 18.5411 157.269 18.5401Z" fill="white"/>
<path fill-rule="evenodd" clip-rule="evenodd" d="M150.906 17.9414C151.095 17.9414 151.262 18.0057 151.515 18.2342C151.852 18.5389 152.326 19.2505 152.632 20.6292C152.632 20.6306 152.632 20.6321 152.632 20.6336C153.17 23.0337 153.57 26.929 152.67 29.8071C152.67 29.8086 152.67 29.81 152.67 29.8115C152.569 30.1359 150.721 30.7323 150.075 29.0771C148.771 25.7216 148.96 22.0575 149.132 19.9087C149.211 18.9202 150.131 18.052 150.707 17.9613C150.779 17.9499 150.844 17.9429 150.907 17.9425L150.906 17.9414Z" fill="white"/>
<path fill-rule="evenodd" clip-rule="evenodd" d="M139.433 3.49414C139.44 3.49414 139.458 3.50902 139.53 3.54636C139.673 3.62073 139.967 3.85289 140.292 4.26538C140.944 5.09036 141.691 6.56799 142.334 8.26709C143.619 11.6654 144.571 15.9851 144.907 18.3608C144.907 18.3626 144.907 18.3643 144.907 18.366C145.118 19.8294 145.319 21.2639 145.494 22.5176C145.479 24.7409 145.716 27.5431 146.806 30.3463C148.107 33.6899 152.218 34.5916 154.56 32.8997C155.482 33.617 156.505 33.9964 157.549 33.9483C159.257 33.8696 160.575 32.7195 161.267 31.3675C161.894 30.1458 162.494 28.05 162.685 25.3697C162.876 22.6894 162.581 19.5023 160.619 16.9545C160.577 16.9013 160.535 16.8498 160.492 16.7987C160.777 15.0019 161.124 12.8807 161.493 10.8403C161.943 8.35537 162.506 6.23598 163.107 4.92202C163.407 4.26507 163.721 3.82418 163.916 3.63805C164.11 3.45183 164.075 3.50597 164.082 3.50623C164.362 3.51719 164.391 3.51239 164.676 4.03865C164.961 4.56474 165.229 5.56773 165.359 6.75296C165.619 9.12339 165.416 12.178 165.234 14.2359C165.062 16.1845 164.758 20.7115 164.425 25.2772C164.092 29.8429 163.721 34.4879 163.469 36.3031C163.139 38.6757 162.551 40.9356 162.029 42.9096C161.675 44.2483 161.338 45.4143 161.156 46.5115C158.803 47.0673 149.496 49.3599 145.939 50.5235C145.376 49.5552 144.612 48.2577 143.677 46.7324C141.997 43.9916 140.162 41.0524 138.651 39.5011C137.353 38.1721 135.632 36.7776 134.36 35.4095C133.087 34.0413 132.549 32.8613 132.643 32.3391C132.694 32.0549 132.779 31.9353 133.036 31.7707C133.294 31.6062 133.767 31.4537 134.423 31.4694C135.734 31.5009 137.688 32.2179 139.516 34.0476C144.084 38.6111 150.028 40.5847 150.028 40.5847C150.468 40.7347 150.95 40.7036 151.367 40.4985C151.784 40.2933 152.103 39.9309 152.253 39.4908C152.403 39.0507 152.372 38.5691 152.167 38.1519C151.962 37.7347 151.599 37.416 151.159 37.2661C151.159 37.2661 146.171 35.5122 142.371 31.9231C142.203 30.8963 139.983 17.3127 139.512 14.0065C139.161 11.5542 138.493 8.76584 138.386 6.64768C138.333 5.58862 138.438 4.7261 138.628 4.25093C138.817 3.77573 138.914 3.65714 139.407 3.51308C139.431 3.50607 139.426 3.49688 139.433 3.49863L139.433 3.49414Z" fill="white"/>
<path fill-rule="evenodd" clip-rule="evenodd" d="M7.09773 144.355C6.65207 144.379 6.21873 144.533 5.87389 144.792C5.52905 145.051 5.29474 145.398 5.212 145.771C4.85381 147.389 5.18133 148.844 5.7487 150.059C5.92763 150.442 6.28587 150.738 6.74463 150.882C7.2034 151.026 7.72514 151.006 8.19509 150.826C8.66499 150.646 9.04452 150.321 9.2503 149.923C9.45609 149.525 9.47129 149.086 9.29246 148.702C8.89062 147.841 8.72982 147.067 8.93808 146.126C9.03127 145.705 8.92433 145.283 8.64084 144.952C8.35736 144.621 7.92055 144.409 7.42642 144.362C7.31803 144.351 7.20805 144.349 7.09773 144.355Z" fill="#070922"/>
<path fill-rule="evenodd" clip-rule="evenodd" d="M12.0859 143.119C11.6401 143.143 11.2067 143.298 10.8619 143.557C10.517 143.816 10.2827 144.163 10.2002 144.536C9.84201 146.154 10.17 147.608 10.7369 148.824C10.8255 149.014 10.9591 149.184 11.13 149.325C11.301 149.467 11.5059 149.576 11.7332 149.647C11.9604 149.719 12.2056 149.75 12.4545 149.74C12.7035 149.731 12.9514 149.68 13.1842 149.591C13.6539 149.411 14.0333 149.086 14.2389 148.687C14.4446 148.289 14.4596 147.85 14.2807 147.467C13.8788 146.606 13.7188 145.831 13.9271 144.891C13.9733 144.682 13.9708 144.471 13.9198 144.27C13.8687 144.068 13.7701 143.88 13.6297 143.716C13.4892 143.552 13.3096 143.416 13.1011 143.315C12.8926 143.214 12.6594 143.15 12.4146 143.126C12.3062 143.116 12.1962 143.114 12.0859 143.119Z" fill="#070922"/>
<path fill-rule="evenodd" clip-rule="evenodd" d="M17.0736 142.258C16.6281 142.282 16.195 142.437 15.8503 142.696C15.5056 142.955 15.2714 143.301 15.1887 143.674C14.8305 145.292 15.1572 146.746 15.7246 147.962C15.8131 148.152 15.9466 148.322 16.1175 148.464C16.2884 148.605 16.4934 148.715 16.7206 148.786C16.9479 148.857 17.193 148.889 17.442 148.879C17.691 148.87 17.939 148.819 18.1718 148.73C18.6416 148.549 19.021 148.225 19.2266 147.826C19.4322 147.428 19.4472 146.989 19.2683 146.606C18.8665 145.745 18.7065 144.97 18.9148 144.029C18.9611 143.821 18.9586 143.61 18.9076 143.408C18.8567 143.207 18.7581 143.019 18.6177 142.855C18.4772 142.691 18.2977 142.554 18.0891 142.453C17.8806 142.352 17.6471 142.288 17.4023 142.264C17.2939 142.254 17.1839 142.252 17.0736 142.258Z" fill="#070922"/>
<path fill-rule="evenodd" clip-rule="evenodd" d="M102.683 49.8235C94.8584 50.4372 66.5443 52.6675 58.1239 53.3338C57.0232 53.4206 56.0105 53.9684 55.3317 54.8267C55.3297 54.8293 55.3277 54.8319 55.3256 54.8346C54.6472 55.7023 54.3631 56.8219 54.5432 57.9101C55.3222 62.6413 56.976 72.6759 58.5859 82.4434C58.5759 82.6632 58.612 82.8827 58.6921 83.0896C59.7493 89.5039 60.8879 96.4072 61.367 99.3216C61.367 99.323 61.367 99.3245 61.367 99.326C61.7032 101.343 63.5649 102.784 65.5974 102.612C65.5994 102.612 65.6014 102.612 65.6035 102.612C73.4065 101.924 101.535 99.4604 109.868 98.7284C110.954 98.6334 111.956 98.0884 112.628 97.2236C113.305 96.3605 113.59 95.2532 113.417 94.1754C112.369 87.5972 109.637 70.4233 107.979 60.0004C107.976 59.9813 107.973 59.9622 107.97 59.9432C107.641 57.8739 107.082 54.3646 106.887 53.1397C106.567 51.1236 104.717 49.6625 102.679 49.8271L102.683 49.8235Z" fill="#070922"/>
<path fill-rule="evenodd" clip-rule="evenodd" d="M82.72 73.8477C84.1049 75.7508 85.6647 77.3887 87.3783 78.6574C87.5577 79.0459 87.8415 79.6687 88.2069 80.5329C88.732 81.7749 89.2818 83.3465 89.347 83.7351C89.3216 83.5834 89.2792 83.8748 89.0954 84.0004C88.9109 84.1265 88.9481 84.215 88.6117 83.9689C88.61 83.9674 88.6083 83.9659 88.6065 83.9645C88.8133 84.1147 88.347 83.6479 87.9928 83.0195C87.6385 82.3911 87.2446 81.5738 86.8885 80.7785C86.1765 79.188 85.614 77.6961 85.614 77.6961C85.533 77.4806 85.4102 77.2832 85.2529 77.1151C85.0955 76.9471 84.9067 76.8116 84.697 76.7166C84.4873 76.6215 84.261 76.5687 84.0309 76.5611C83.8008 76.5535 83.5714 76.5913 83.3559 76.6724C82.9208 76.8362 82.5686 77.1661 82.3768 77.5896C82.185 78.013 82.1693 78.4954 82.333 78.9305C82.333 78.9305 82.9232 80.5022 83.688 82.2106C84.0705 83.0648 84.4958 83.9564 84.9386 84.7417C85.3808 85.526 85.6907 86.178 86.5436 86.7986C87.9905 87.8557 89.8955 87.6994 91.0743 86.8937C92.254 86.0873 93.0698 84.7628 92.8076 83.1659C92.6955 82.4914 92.4735 81.7809 92.2076 81.0661C92.6148 81.1766 93.0274 81.269 93.4462 81.3383C97.8566 82.0683 102.553 80.2407 106.896 75.5151C108.139 83.3239 109.365 91.0329 109.954 94.731C109.954 94.7325 109.954 94.7338 109.954 94.7353C109.973 94.8555 109.943 94.9718 109.871 95.0632C109.867 95.0677 109.863 95.0723 109.86 95.0768C109.787 95.171 109.681 95.2291 109.561 95.2395C101.232 95.9712 73.1119 98.4336 65.3008 99.1222C65.0555 99.1423 64.8667 98.9976 64.8258 98.7541C64.415 96.2555 63.4079 90.1471 62.5352 84.8513C63.5883 85.0435 64.6705 85.1457 65.7742 85.1457C73.3399 85.1457 79.765 80.4768 82.72 73.8519V73.8477Z" fill="white"/>
<path fill-rule="evenodd" clip-rule="evenodd" d="M98.4447 81.7014C98.215 81.7148 97.9901 81.7733 97.783 81.8735C97.3646 82.0762 97.0439 82.4369 96.8914 82.8761C96.7389 83.3153 96.7671 83.797 96.9698 84.2155C97.017 84.3127 97.0668 84.4088 97.1188 84.5039C94.2427 87.357 87.1399 90.832 74.2572 86.7663C74.3463 86.3596 74.2877 85.9345 74.092 85.567C73.8735 85.1568 73.5009 84.8501 73.0563 84.7145C72.6115 84.5791 72.1312 84.6259 71.721 84.8446C70.3581 85.5708 69.2615 86.4168 68.5059 87.4947C67.7503 88.5727 67.4065 89.9145 67.572 91.2071C67.6311 91.6681 67.8709 92.0868 68.2386 92.3711C68.6064 92.6554 69.072 92.782 69.5331 92.723C69.9894 92.6646 70.4044 92.4291 70.6887 92.0674C70.9729 91.7056 71.1036 91.2466 71.0524 90.7894C72.3606 92.1969 74.102 93.3384 76.0462 94.2544C79.0816 95.6846 82.6773 96.5491 86.2341 96.6383C89.791 96.7275 93.3408 96.0496 96.1643 94.1397C98.3505 92.6609 100.009 90.377 100.711 87.4348C100.999 87.5095 101.297 87.5601 101.604 87.5829C102.068 87.6171 102.526 87.4657 102.878 87.1622C103.23 86.8586 103.447 86.4278 103.481 85.9642C103.515 85.5007 103.364 85.0425 103.061 84.6905C102.757 84.3385 102.326 84.1214 101.863 84.0871C101.394 84.0524 101.073 83.9504 100.796 83.6993C100.71 83.5655 100.607 83.444 100.489 83.3381C100.37 83.1629 100.252 82.9489 100.126 82.6875C100.025 82.4802 99.885 82.2948 99.7129 82.1417C99.5408 81.9887 99.3402 81.8711 99.1226 81.7956C98.9052 81.7204 98.6751 81.6887 98.4455 81.7023L98.4447 81.7014Z" fill="#070922"/>
<path fill-rule="evenodd" clip-rule="evenodd" d="M95.9261 89.5801C95.4324 90.2106 94.876 90.7783 94.1987 91.2364C92.2095 92.582 89.3585 93.2103 86.3212 93.1341C83.4729 93.0626 80.508 92.3633 78.043 91.2869C86.0567 92.8875 91.9693 91.707 95.9261 89.5801Z" fill="#FF9CAE"/>
<path fill-rule="evenodd" clip-rule="evenodd" d="M67.3878 63.3564C67.0687 64.543 66.8905 65.8438 66.8905 67.2126C66.8905 68.7597 67.1156 70.2232 67.5179 71.5336C69.5442 70.4906 71.836 69.7283 74.4265 69.2944C72.4689 71.0606 70.8544 73.0899 69.6818 75.4609C70.7023 76.5434 71.9289 77.1788 73.2487 77.1788C76.7567 77.1788 79.6078 72.7128 79.6078 67.2126C79.6078 66.2993 79.5258 65.416 79.3784 64.5754C79.8586 64.7007 80.3395 64.8363 80.8207 64.9811C80.8295 65.2055 80.8368 65.4305 80.8368 65.6573C80.8368 74.6669 73.9804 81.7609 65.776 81.7609C64.4466 81.7609 63.1653 81.5751 61.9403 81.2293C60.837 74.5353 60.0603 69.8177 59.1875 64.5214C61.9239 63.8874 64.6546 63.4913 67.3878 63.3564Z" fill="white"/>
<path fill-rule="evenodd" clip-rule="evenodd" d="M98.6522 61.2363C100.488 61.2859 102.506 61.4736 104.717 61.8141C105.182 64.7417 105.583 67.2573 106.161 70.8875C101.76 76.8423 97.6532 78.4764 94.0187 77.8749C90.4263 77.2802 86.8409 74.2189 84.0859 69.5325C84.298 68.4448 84.4176 67.3254 84.4472 66.1847C85.1387 65.3242 85.942 64.5679 86.885 63.919C86.8097 64.481 86.7686 65.0601 86.7686 65.6532C86.7686 67.6078 87.1982 69.4182 87.9301 70.8995C89.8322 69.5058 91.9881 68.1645 94.4467 66.8935C92.5973 69.1243 91.1514 71.3557 90.0119 73.5864C90.9279 74.3227 91.9842 74.7428 93.1105 74.7428C96.6122 74.7428 99.4516 70.6669 99.4516 65.6532C99.4516 64.0503 99.1609 62.5451 98.6522 61.2363Z" fill="white"/>
<path fill-rule="evenodd" clip-rule="evenodd" d="M77.3352 55.3428C78.6501 57.0258 79.6549 59.0039 80.2439 61.178C76.755 60.2722 73.2788 59.8338 69.8232 59.8024C66.0599 59.7682 62.3212 60.2174 58.6184 61.0573C58.4569 60.0774 58.1243 58.0579 58.0064 57.3415C57.9853 57.2133 58.0173 57.099 58.0902 57.0034C58.1732 56.9009 58.2795 56.8437 58.4035 56.8339C61.9801 56.5509 69.6722 55.9467 77.3352 55.3428Z" fill="white"/>
<path fill-rule="evenodd" clip-rule="evenodd" d="M102.962 53.3191C103.204 53.2998 103.387 53.4428 103.426 53.688C103.555 54.4982 103.95 56.9833 104.142 58.1871C101.864 57.8766 99.7556 57.7191 97.8031 57.712C95.1784 57.7024 92.8351 57.9631 90.7404 58.4841C88.1187 59.1362 85.8902 60.2217 84.0655 61.6658C83.5858 59.2625 82.6817 57.0175 81.4316 55.0199C90.2237 54.3273 99.1806 53.6206 102.96 53.3243C102.961 53.3243 102.962 53.3243 102.964 53.3243L102.962 53.3191Z" fill="white"/>
</svg>
