<svg width="3759" height="5556" viewBox="0 0 3759 5556" fill="none" xmlns="http://www.w3.org/2000/svg">
<g clip-path="url(#clip0_102_210)">
<path d="M1830.95 498.34L1830.85 498.44C1638.34 498.66 1469.11 552.692 1326.73 632.131C1098.91 759.242 938.173 949.169 845.615 1088.01C706.543 1296.6 680.977 1593.86 686.142 1839.69C690.772 2060.05 719.105 2220.11 725.537 2255.18C557.381 2366.46 351.519 2488.4 240.771 2838.13C103.439 3271.78 250.535 3570.96 352.49 3709.46C355.249 3711.67 358.29 3713.51 361.533 3714.92C354.21 3752.18 356.989 3791.89 375.537 3825.33C369.142 3829.08 362.944 3833.19 357.021 3837.76C334.522 3855.09 315.109 3880.39 310.42 3912.31C305.819 3943.74 310.869 3973.29 319.384 3999.26C310.472 4014.37 304.007 4032.72 300.537 4053.44C297.548 4071.21 297.68 4088.3 299.875 4104.34C290.565 4107.89 282.135 4113.14 275.5 4119.53C260.399 4134.09 251.809 4153.68 250.346 4175.02C247.419 4217.71 277.722 4264.01 334.936 4287.15C435.723 4327.92 538.017 4330.9 619.582 4284.9C649.367 4268.11 681.805 4242.26 712.69 4213.38V4240.04C712.682 4240.5 712.682 4240.95 712.69 4241.41L716.694 4357.72C716.694 4357.75 716.694 4357.78 716.694 4357.82C719.259 4429.53 756.687 4495.62 816.909 4534.67L923.022 4603.56C924.164 4626.67 923.572 4650.54 920.346 4674.75C899.803 4828.98 831.949 4935.22 819.914 4953.09C796.459 4972.83 651.734 5102.4 670.19 5284.08C678.85 5369.34 679.222 5421.15 710.307 5465.32C725.849 5487.4 748.894 5502.91 775.229 5513.42C801.564 5523.94 832.267 5531.09 871.967 5539.22C1010.96 5567.72 1260.37 5554.18 1396.64 5534.08C1397.99 5533.89 1399.33 5533.62 1400.66 5533.29C1430.12 5525.79 1455.15 5506.34 1469.76 5479.71C1469.79 5479.65 1469.83 5479.6 1469.86 5479.54C1484.31 5452.91 1487.14 5421.42 1477.55 5392.58C1462.11 5345.59 1436.96 5285.75 1395.39 5233.72C1353.79 5181.66 1293.09 5136.83 1213.32 5130.19C1176.64 5127.13 1141.28 5127.83 1106.93 5130.4C1105.85 5109.75 1103.55 5094.72 1101.54 5083.99C1112.94 5055.89 1168.17 4918.9 1196.23 4832.39C1212.89 4781.15 1220.76 4731.86 1222.73 4685.37C1229.16 4682.75 1235.53 4679.89 1241.74 4676.65L1508.22 4537.06C1549.51 4515.45 1582.58 4481.35 1603.12 4440.02C1623.36 4462.69 1635.59 4490.82 1642.77 4524.24C1653.57 4574.54 1650.53 4635.43 1640.42 4693.68C1621.1 4805.03 1578.73 4901.78 1574.94 4910.32C1567.61 4920.4 1533.59 4968.32 1502.73 5032.8C1468.16 5105.03 1434.81 5197.35 1464.35 5282.97C1470.56 5301.16 1478.67 5317.87 1487.95 5333.09C1560.48 5451.94 1703.81 5486.74 1788.47 5489.98C1829.04 5491.54 1937.54 5498.21 2033.18 5482.23C2081 5474.24 2126.7 5461.66 2162.08 5432.72C2197.47 5403.78 2215.46 5350.61 2198.2 5298.09C2198.13 5297.94 2198.07 5297.79 2198 5297.64C2197.96 5297.5 2197.92 5297.37 2197.88 5297.23V5297.13V5297.03C2197.77 5296.83 2197.66 5296.64 2197.55 5296.44C2196.9 5294.6 2196.12 5292.81 2195.2 5291.09C2195.37 5291.39 2195.31 5291.25 2195.46 5291.54L2195 5290.52C2196.12 5292.54 2195.98 5292.34 2196.68 5293.61C2164.18 5198.52 2112.34 5138.06 2056.96 5103.51C2000.85 5068.5 1943.01 5059.96 1900.04 5059.96C1881.96 5059.96 1864.24 5062.18 1846.82 5065.35C1846.92 5054.57 1845.8 5043.63 1843.01 5032.51C1843.61 5031.1 1844.05 5030.2 1844.71 5028.61C1849.38 5017.29 1855.47 5001.56 1862.29 4982.05C1875.94 4943.01 1892.54 4889 1906.08 4827.08C1933.15 4703.25 1949.54 4547.57 1897.25 4415.27C1856.51 4312.17 1778.61 4239.24 1700.53 4188.37L1759.44 4034.37C1860.7 3997.41 1944.52 3932.29 1985.71 3835.83C2174.21 3394.35 2318.71 3226.97 2464.07 3087.77C2475.92 3076.42 2488.17 3065.25 2500.12 3054.12C2574.51 3142.1 2671.33 3240.65 2779.77 3304.45C2875.72 3360.89 2973.17 3354.02 3049.4 3325.42C3125.63 3296.83 3184 3248.4 3216.37 3220.09C3299.48 3147.41 3356.06 3060.65 3395 2986.38C3434.6 2979.25 3473.76 2960.38 3499.71 2924.23C3513.96 2904.38 3522.62 2880.24 3525.16 2852.96C3567.84 2841.17 3612.21 2816.65 3635.49 2767.44C3662.26 2710.82 3649.55 2649.73 3630.53 2597.96C3635 2589.88 3638.11 2581.35 3638.93 2572.81C3639.97 2561.95 3639.25 2551.74 3637.31 2541.89C3687.79 2509.51 3721.76 2473.61 3740.88 2435.19C3763.44 2389.89 3763.2 2341.56 3747 2302.46C3734.63 2272.59 3703.97 2260.89 3676.06 2259.6C3670.82 2259.36 3665.45 2259.48 3660 2259.85C3660.87 2223.01 3659.46 2183.66 3651 2150.15C3639.1 2102.99 3600.36 2067.52 3555.59 2063.56C3552.06 2063.25 3548.52 2063.18 3544.99 2063.2C3548.59 1992.48 3548.87 1920.94 3546.45 1860.58C3544.92 1822.47 3542.36 1788.93 3538.68 1762.12C3536.83 1748.72 3534.77 1737.04 3532.02 1726.54C3529.27 1716.05 3527.98 1707.24 3517 1694.21C3505.58 1680.65 3489.12 1669.41 3468.64 1665.85C3448.15 1662.31 3424.99 1667.98 3406.32 1681.16C3368.95 1707.54 3344.14 1756.47 3325.12 1841.22C3285.71 2016.84 3216.43 2245.77 3172.5 2385.4C3166.76 2389.8 3160.42 2394.56 3155.47 2398.41C3119.65 2426.31 3081.86 2453.99 3053.58 2493.25C3025.29 2532.52 3009.81 2585.26 3020.65 2646.91C3028.29 2690.33 3050.31 2726.35 3075.92 2755.83C3068.87 2769.6 3063.22 2784.67 3060.73 2801.54C3056.41 2830.76 3066.75 2867.57 3094.42 2890.66C3108.98 2902.8 3124.56 2914.09 3140.88 2924.35C3061.46 3035.77 2996.53 3074.72 2949.38 3083.82C2897.46 3093.84 2857.32 3071.54 2823.17 3047.34C2811.6 3039.12 2784.7 3010.48 2757.29 2974.88C2734.14 2944.81 2709.25 2909.37 2685.53 2874.15C2765.65 2788.24 2850.5 2680.37 2943.5 2520.21C3202.68 2073.8 3193.78 1640.51 3030.36 1292.67C2866.94 944.826 2552.18 681.56 2201.8 562.258C2070.33 517.49 1946.45 498.251 1830.94 498.372L1830.95 498.34ZM790.285 2501.35C805.097 2605.27 810.272 2761.7 803.039 2920.41C794.266 3112.94 767.776 3308.49 731.399 3406.19C722.739 3429.45 718.508 3452.57 716.32 3475.53C707.824 3464.79 697.686 3455.79 686.086 3449.34C673.582 3442.38 660.163 3438.39 646.535 3436.76C632.907 3435.12 619.067 3435.85 605.676 3438.32C573.525 3444.26 542.169 3459.45 513.215 3481.64C449.572 3349.98 422.01 3181.28 448.391 3016.48C488.622 2765.27 694.878 2576.77 790.285 2501.35Z" fill="black"/>
<path d="M768.039 5401.27C957.438 5455.3 1189.95 5459.52 1401.65 5418.11C1404.1 5425.76 1403.33 5434.11 1399.5 5441.23C1395.63 5448.24 1389.02 5453.14 1381.42 5455.27C1254.1 5473.64 1000.71 5483.93 887.961 5460.82C849.662 5452.97 822.282 5446.05 804.836 5439.08C787.39 5432.12 780.958 5426.73 775.676 5419.22C772.896 5415.27 770.387 5409.29 768.039 5401.27Z" fill="white"/>
<path d="M2117.37 5365.66C2115.59 5367.29 2113.63 5368.95 2111.39 5370.78C2095.47 5383.81 2060.94 5396.47 2019.95 5403.32C1937.96 5417.02 1834.5 5411.69 1791.47 5410.04C1756.27 5408.69 1703.24 5397.55 1654.42 5373.98C1811.11 5396.45 1966.77 5405.89 2117.37 5365.66Z" fill="white"/>
<path d="M841.477 5046.76H841.577C848.031 5055.4 855.384 5064.26 864.448 5072.77C897.53 5103.86 952.991 5127.91 1025.74 5123.36C1026.25 5128.75 1025.9 5135.97 1026.09 5142.42C975.318 5155.28 930.326 5177.15 899.289 5214.39C892.5 5222.54 889.226 5233.06 890.185 5243.62C891.145 5254.18 896.26 5263.93 904.406 5270.72C912.555 5277.51 923.067 5280.79 933.63 5279.83C944.193 5278.87 953.943 5273.75 960.735 5265.61C980.508 5241.88 1019.84 5222.65 1073.16 5213.67C1112.48 5207.07 1158.52 5205.85 1206.69 5209.86C1260.82 5214.37 1300.43 5242.98 1332.9 5283.61C1347.33 5301.67 1359.72 5322.01 1370.34 5342.64C1160.63 5380.73 927.402 5370.83 753.86 5313.14C752.51 5301.3 751.194 5290.09 749.758 5275.96C739.655 5176.51 801.053 5092.04 841.516 5046.76H841.477Z" fill="white"/>
<path d="M1609.11 5006.04C1637.21 5035.88 1673.74 5054.12 1706.04 5061.93C1727.82 5067.2 1746.86 5068.42 1763.62 5069.24C1763.52 5076.93 1762.32 5086.67 1761.45 5096.04C1706.35 5126.06 1661.59 5173.49 1641.88 5235.25C1638.66 5245.36 1639.58 5256.33 1644.45 5265.75C1649.31 5275.17 1657.72 5282.28 1667.82 5285.51C1672.83 5287.11 1678.09 5287.7 1683.33 5287.26C1688.56 5286.82 1693.66 5285.36 1698.33 5282.95C1703 5280.54 1707.15 5277.24 1710.54 5273.23C1713.93 5269.22 1716.5 5264.57 1718.09 5259.57C1732.74 5213.67 1768.23 5177.58 1815.24 5157.29C1840.92 5146.17 1870 5140.02 1899.95 5140.02C1932.29 5140.02 1974.44 5146.47 2014.5 5171.46C2048.03 5192.38 2081.39 5226.35 2107.55 5285.35C1935.46 5334.23 1747.07 5309.81 1547.76 5275.92C1544.85 5269.88 1542.25 5263.63 1540.03 5257.13C1539.99 5257.08 1539.96 5257.02 1539.93 5256.97C1523.46 5209.37 1543.98 5131.77 1574.81 5067.36C1586.49 5042.96 1598.06 5024.24 1609.05 5006.09L1609.11 5006.04Z" fill="white"/>
<path d="M1193.21 4469.34C1254.96 4486.25 1317.67 4500.9 1380.89 4513.42L1219.6 4597.89C1214.49 4550.47 1204.49 4507.19 1193.21 4469.34Z" fill="#005DC7"/>
<path d="M1781.69 4370.74C1798.11 4393.34 1812.2 4417.91 1822.79 4444.71C1864.69 4550.74 1853.26 4693.97 1827.88 4810.02C1815.2 4868.04 1799.45 4919.24 1786.71 4955.66C1781.7 4969.99 1777.42 4981.22 1773.76 4990.43C1760.5 4990.02 1742.88 4988.52 1724.86 4984.16C1692.17 4976.25 1664.86 4963.3 1652.57 4932.13C1665.71 4901.14 1701.07 4812.1 1719.25 4707.32C1730.44 4642.84 1735.09 4573.06 1720.99 4507.4C1715.54 4482.04 1706.87 4457.12 1694.58 4433.87C1721.75 4409.23 1750.83 4388.26 1781.69 4370.74Z" fill="black"/>
<path d="M795.363 4317.71C808.939 4324.7 822.684 4331.47 836.516 4338.12C840.743 4353.29 847.385 4368.2 856.711 4382.19C867.299 4398.06 889.138 4440.35 905.012 4496.43L860.441 4467.5C822.08 4442.62 798.306 4400.66 796.652 4354.96V4354.86L795.363 4317.71Z" fill="#005DC7"/>
<path d="M1121.98 4288.52C1247.11 4332.65 1386.43 4363.49 1542 4378.87L1536.93 4392.13C1527.76 4416.03 1512.4 4436.74 1492.57 4452.29C1380.19 4433.98 1268.79 4409.13 1161.54 4377.05C1160.27 4373.63 1158.75 4369.53 1157.59 4366.33C1147.48 4338.52 1135.57 4312.38 1121.98 4288.52Z" fill="#005DC7"/>
<path d="M964.738 4246.8C978.798 4247.5 994.049 4255.62 1012.96 4274.53C1038.18 4299.75 1063.89 4342.79 1082.39 4393.67C1116.11 4486.45 1177.27 4632.01 1120.15 4807.64C1096.52 4880.5 1048.71 5000.73 1031.14 5044.46C971.324 5052.68 940.346 5034.35 919.191 5014.47C907.644 5003.62 899.987 4992.3 895.168 4983.58C921.002 4941.39 980.079 4832.11 999.641 4685.28C1021.5 4521.24 955.647 4386.35 923.273 4337.81C916.277 4327.32 912.596 4317.17 911.359 4307.66C911.33 4307.32 911.297 4306.98 911.259 4306.64C910.279 4297.92 911.359 4289.73 913.857 4282.35C919.24 4266.66 930.955 4254.19 950.986 4248.46C955.502 4247.17 960.051 4246.57 964.738 4246.8Z" fill="black"/>
<path d="M794.758 4123.79C827.043 4145.81 860.647 4166.62 895.559 4186.23C870.203 4201.53 850.981 4224.38 840.48 4250.86C824.315 4242.66 808.369 4234.25 792.668 4225.59V4126.56C793.368 4125.63 794.068 4124.71 794.758 4123.79Z" fill="black"/>
<path d="M394.914 4033.84C398.73 4034.02 406.3 4035.18 414.387 4038.59C417.807 4040.03 439.447 4052.47 464.25 4065.17C483.119 4074.83 505.317 4085.17 529.895 4092.83C531.325 4097.4 532.715 4101.68 533.957 4105.35C529.494 4107.44 524.803 4109.56 517.981 4111.21C500.856 4115.33 477.732 4116.86 454.035 4116.15C429.07 4115.4 403.848 4112.35 382.531 4109.04C378.591 4095.1 377.055 4080.7 379.426 4066.64C382.55 4047.98 385.963 4040.27 388.567 4036.87C389.674 4036.02 390.737 4035.12 391.75 4034.16C392.06 4034.05 392.31 4034 392.47 4033.95C392.79 4033.84 393.643 4033.78 394.914 4033.84Z" fill="white"/>
<path d="M838.02 3969.92C1075.98 4134.3 1332.7 4218.91 1606.5 4210.21L1571.73 4301.11C1260.25 4273.64 1021.25 4183.92 830.188 4050.94C833.026 4031.97 836.049 4003.91 838.02 3969.92Z" fill="#005DC7"/>
<path d="M434.56 3885.64C458.786 3904.64 484.344 3922.47 509.247 3938.85C508.467 3960.55 509.347 3980.61 511.103 3999.12C507.57 3997.42 504.085 3995.7 500.693 3993.96C478.937 3982.83 463.082 3972.32 445.517 3964.9C431.904 3959.14 412.808 3952.02 390.419 3953.44C388.677 3943.07 388.22 3933.01 389.557 3923.87C390.573 3916.98 394.753 3909.64 405.846 3901.09C413.175 3895.45 423.217 3890.06 434.56 3885.64Z" fill="white"/>
<path d="M828.78 3750.64C920.592 3848.53 1053.78 3930.98 1191.77 3996.31C1335.15 4064.19 1502.81 4086.76 1650.69 4062.56C1655.21 4061.82 1659.55 4060.6 1664.03 4059.77L1637.69 4128.67C1352.06 4146.32 1088.72 4057.52 839.678 3872.73C838.788 3833.04 835.892 3791.89 829.327 3753.34C829.177 3752.43 828.95 3751.55 828.78 3750.64Z" fill="#005DC7"/>
<path d="M629.249 3515.9C637.469 3515.5 643.22 3517.06 647.179 3519.26C652.458 3522.2 657.374 3526.65 661.573 3541.13C668.889 3566.37 664.057 3580.2 656.163 3593.13C644.245 3612.64 622.921 3623.83 622.921 3623.83C618.17 3626.07 613.907 3629.23 610.377 3633.12C606.847 3637.01 604.119 3641.56 602.347 3646.51C600.575 3651.45 599.794 3656.7 600.05 3661.95C600.306 3667.19 601.594 3672.34 603.839 3677.09C608.37 3686.68 616.523 3694.08 626.507 3697.65C636.491 3701.23 647.49 3700.7 657.081 3696.17C657.081 3696.17 674.132 3688.53 693.272 3671.64C720.974 3700.59 745.267 3735.44 750.557 3766.68C767.132 3864.19 756.465 4006.64 750.438 4043.59C750.928 4040.6 745.638 4055.34 734.403 4070.96C723.168 4086.57 707.077 4105.48 689.051 4124.28C652.998 4161.88 607.653 4199.7 580.282 4215.14C525.05 4246.28 449.742 4247.2 364.93 4212.89C329.722 4198.65 329.879 4185.88 330.223 4180.68C335.004 4181.69 341.254 4182.92 347.662 4184.14C348.123 4184.24 348.587 4184.33 349.051 4184.41C374.656 4189.24 411.181 4194.88 451.629 4196.09C479.807 4196.93 508.912 4195.66 536.705 4188.96C564.498 4182.27 592.799 4169.76 612.059 4143.81C616.104 4138.35 618.694 4131.96 619.586 4125.23C620.478 4118.5 619.642 4111.65 617.157 4105.33C617.157 4105.33 582.383 4013.78 590.34 3922.11C590.394 3921.68 590.439 3921.26 590.479 3920.84C594.905 3871.77 610.615 3825.1 647.901 3788.61C655.484 3781.19 659.809 3771.06 659.925 3760.46C660.041 3749.85 655.939 3739.63 648.521 3732.05C641.103 3724.47 630.975 3720.14 620.367 3720.02C609.76 3719.91 599.542 3724.01 591.959 3731.43C555.956 3766.66 534.36 3808.54 522.291 3850.94C498.856 3834.43 475.977 3817.09 456.334 3799.91C433.292 3779.73 431.158 3756.79 443.443 3716.8C455.727 3676.81 486.154 3627.92 520.963 3585.32C552.958 3546.15 593.646 3521.89 620.181 3516.99C623.498 3516.38 626.509 3516.03 629.249 3515.9Z" fill="white"/>
<path d="M944.268 3435C970.231 3435.29 999.583 3438.99 1031.1 3446.06C1083.64 3457.83 1141.99 3478.88 1201.67 3506.04C1171.27 3592.29 1152.24 3646.82 1152.24 3646.82C1148.74 3656.83 1149.37 3667.82 1153.98 3677.37C1158.58 3686.92 1166.8 3694.26 1176.81 3697.75C1186.82 3701.25 1197.81 3700.62 1207.36 3696.01C1216.91 3691.41 1224.25 3683.2 1227.74 3673.18C1227.74 3673.18 1246.28 3620.13 1273.96 3541.6C1304.84 3557.92 1335.61 3575.48 1365.64 3594.1C1355.59 3620.27 1328.3 3690.81 1322.61 3705.76C1320.74 3710.67 1319.85 3715.9 1320 3721.15C1320.15 3726.4 1321.34 3731.57 1323.49 3736.37C1325.64 3741.16 1328.71 3745.48 1332.53 3749.09C1336.35 3752.7 1340.84 3755.51 1345.75 3757.38C1350.66 3759.25 1355.89 3760.14 1361.14 3759.99C1366.39 3759.84 1371.56 3758.65 1376.36 3756.5C1381.15 3754.35 1385.47 3751.28 1389.08 3747.46C1392.68 3743.64 1395.5 3739.15 1397.37 3734.24C1402.18 3721.61 1425.98 3660.13 1434.01 3639.2C1518.74 3698.02 1593.76 3762.16 1643.97 3819.75C1675.62 3856.04 1697.13 3889.95 1705.91 3914.57C1714.69 3939.19 1712.52 3948.54 1705.71 3956.72C1704.45 3958.62 1703.36 3960.63 1702.45 3962.72C1701.2 3964.39 1700.09 3966.16 1699.13 3968.01L1698.47 3969.77C1678.95 3975.29 1658.89 3980.16 1637.78 3983.61C1507.54 4004.92 1353.5 3984.37 1225.99 3924C1093.41 3861.24 966.956 3781.33 886.514 3695.31C860.997 3668.03 840.811 3640.92 825.381 3613.73C832.113 3598.48 838.883 3583.16 845.323 3568.48C849.583 3558.76 849.81 3547.75 845.952 3537.87C842.095 3527.99 834.471 3520.04 824.756 3515.78C815.079 3511.54 804.119 3511.31 794.268 3515.12C793.898 3508.77 793.539 3502.4 793.819 3496C800.342 3496.33 806.844 3495.05 812.762 3492.29C818.679 3489.53 823.828 3485.36 827.762 3480.14C844.166 3457.34 867.097 3444.26 901.453 3438.17C914.337 3435.88 928.69 3434.83 944.268 3435Z" fill="#FF5312"/>
<path d="M3212.92 2961.05C3242.75 2973.03 3273.45 2981.61 3303.7 2986.17C3269.31 3044.91 3223.64 3107.43 3163.66 3159.88C3133.54 3186.22 3081.9 3227.8 3021.26 3250.55C2960.62 3273.29 2894.31 3279.09 2820.26 3235.53C2767.38 3204.42 2715.16 3161.75 2666.92 3115.53C2682.2 3093.48 2699.49 3073.32 2718.66 3054.98C2738.31 3078.8 2757.05 3098.58 2776.84 3112.62C2816.99 3141.07 2882.44 3178.23 2964.46 3162.4C3040.96 3147.64 3123.43 3089.82 3212.92 2961.05Z" fill="#FFB900"/>
<path d="M3406.79 2357.79C3409.09 2357.79 3411.29 2357.94 3413.39 2358.16C3430.19 2359.93 3441.05 2364.9 3453.57 2382.87C3490.72 2436.14 3529.72 2491.1 3547.96 2529.41C3556.14 2546.59 3557.7 2557.6 3558.06 2561.48C3528.48 2568.89 3498.11 2567.39 3475.6 2557.57C3452.64 2547.57 3436.54 2531.68 3428.8 2500.37C3426.99 2493.05 3423.14 2486.39 3417.71 2481.16C3412.28 2475.93 3405.48 2472.34 3398.09 2470.81C3390.7 2469.28 3383.04 2469.86 3375.97 2472.5C3368.91 2475.14 3362.73 2479.72 3358.16 2485.72C3358.16 2485.72 3346.14 2501.48 3326.67 2519.57C3307.21 2537.66 3280.7 2555.95 3260.09 2561.21C3255 2562.5 3250.21 2564.79 3246 2567.94C3241.8 2571.09 3238.25 2575.03 3235.57 2579.55C3232.88 2584.07 3231.12 2589.07 3230.37 2594.27C3229.62 2599.47 3229.9 2604.77 3231.2 2609.86C3232.5 2614.95 3234.79 2619.74 3237.94 2623.94C3241.09 2628.15 3245.03 2631.69 3249.55 2634.37C3254.07 2637.05 3259.07 2638.82 3264.27 2639.56C3269.47 2640.31 3274.77 2640.03 3279.86 2638.73C3322.5 2627.85 3355.52 2601.71 3380.01 2579.06C3397.17 2602.09 3418.97 2620.17 3443.62 2630.91C3480.46 2646.97 3521.26 2649.86 3560.62 2642.89C3570.58 2678.54 3572.87 2712.68 3563.14 2733.26C3554.21 2752.11 3537.44 2764.33 3516.32 2772.07C3513.8 2763.33 3510.77 2754.43 3507.22 2745.39C3505.3 2740.5 3502.44 2736.03 3498.79 2732.25C3495.15 2728.47 3490.79 2725.44 3485.98 2723.34C3481.16 2721.24 3475.98 2720.11 3470.72 2720.01C3465.47 2719.91 3460.25 2720.85 3455.36 2722.77C3445.5 2726.65 3437.57 2734.29 3433.33 2744.01C3429.1 2753.73 3428.89 2764.74 3432.77 2774.61C3440.21 2793.56 3444.26 2809.33 3445.95 2822.67C3445.9 2823.83 3445.9 2824.98 3445.95 2826.13C3446.12 2826.79 3446.3 2827.44 3446.5 2828.08C3448.39 2851.27 3442.62 2866.48 3434.64 2877.6C3421.7 2895.62 3395.81 2907.43 3366.24 2909.51C3304.99 2913.82 3206.53 2880.13 3145.58 2829.28C3138.11 2823.04 3138.4 2822.24 3139.56 2814.74C3173.19 2840.45 3201.26 2855.33 3201.26 2855.33C3210.64 2860.28 3221.6 2861.31 3231.74 2858.19C3241.87 2855.06 3250.35 2848.04 3255.31 2838.67C3257.76 2834.03 3259.28 2828.95 3259.77 2823.72C3260.26 2818.48 3259.72 2813.21 3258.17 2808.19C3256.63 2803.17 3254.11 2798.5 3250.76 2794.45C3247.41 2790.41 3243.29 2787.06 3238.65 2784.61C3238.65 2784.61 3206.87 2767.73 3172.71 2738.87C3138.55 2710 3105.86 2670.09 3099.35 2633.07C3091.69 2589.56 3100.1 2565.43 3118.39 2540.04C3136.68 2514.65 3168.15 2489.89 3204.53 2461.56C3240.13 2433.83 3296.66 2391.98 3347.63 2371.29C3369.93 2362.23 3390.67 2357.62 3406.75 2357.79L3406.79 2357.79Z" fill="white"/>
<path d="M3668.07 2339.51C3669.65 2339.41 3671.07 2339.41 3672.33 2339.51C3674.15 2339.61 3673.42 2339.51 3674.32 2339.65C3680.15 2357.38 3680.86 2376.21 3669.23 2399.57C3659.25 2419.62 3639.56 2443.07 3605.38 2467C3591.53 2442.5 3574.82 2417.24 3557.39 2391.98C3573.09 2378.21 3592.28 2364.96 3615.93 2354.14C3638.73 2343.71 3657.07 2339.97 3668.07 2339.51Z" fill="white"/>
<path d="M3543.49 2143.3C3545.3 2143.17 3546.98 2143.19 3548.49 2143.3C3560.53 2144.37 3567.98 2148.28 3573.39 2169.77C3579.42 2193.64 3580.34 2241.55 3578.82 2283.18C3552.31 2295.73 3529.82 2310.72 3510.93 2326.43C3488.66 2300.17 3458.79 2284.55 3428.7 2279.71C3449.86 2236.97 3472.97 2195.96 3490.15 2176.25C3510.99 2152.28 3530.8 2144.21 3543.49 2143.28V2143.3Z" fill="white"/>
<path d="M437.998 1830.06L37.9985 1850.06C27.4062 1850.59 17.4586 1855.3 10.3422 1863.17C3.22591 1871.03 -0.476788 1881.4 0.0492812 1891.99C0.580028 1902.58 5.29601 1912.53 13.1596 1919.65C21.0232 1926.76 31.3903 1930.47 41.9829 1929.94L441.983 1909.94C452.575 1909.41 462.523 1904.69 469.639 1896.83C476.755 1888.97 480.458 1878.6 479.932 1868.01C479.401 1857.41 474.685 1847.47 466.822 1840.35C458.958 1833.23 448.591 1829.53 437.998 1830.06Z" fill="black"/>
<path d="M3454 1745.39C3454.25 1746.04 3454.41 1746.09 3454.61 1746.87C3456.08 1752.5 3457.85 1761.68 3459.41 1773.05C3462.54 1795.78 3465.04 1827.45 3466.5 1863.81C3469.19 1930.94 3468.34 2014.34 3463.04 2092.81C3451.38 2101.45 3440.23 2111.79 3429.84 2123.73C3392.79 2166.25 3360.62 2232.76 3334.88 2290.74C3329.06 2292.75 3323.29 2294.86 3317.59 2297.17C3303.96 2302.7 3290.68 2309.2 3277.71 2316.07C3319.6 2179.12 3370.63 2003.53 3403.12 1858.75C3420.01 1783.51 3443.84 1752.58 3452.4 1746.54C3455.08 1744.65 3454.09 1745.3 3454 1745.39Z" fill="white"/>
<path d="M3612.94 1250.1C3605.94 1249.59 3598.93 1250.93 3592.61 1253.98L3302.61 1393.98C3293.06 1398.6 3285.73 1406.81 3282.24 1416.83C3278.74 1426.84 3279.37 1437.83 3283.98 1447.38C3288.59 1456.93 3296.8 1464.26 3306.82 1467.75C3316.83 1471.25 3327.82 1470.62 3337.37 1466.02L3627.37 1326.02C3636.92 1321.4 3644.25 1313.19 3647.75 1303.17C3651.24 1293.16 3650.61 1282.17 3646.01 1272.62C3641.4 1263.06 3633.19 1255.73 3623.17 1252.23C3619.87 1251.07 3616.43 1250.36 3612.94 1250.1Z" fill="black"/>
<path d="M219.66 980.001C211.213 980.071 203.005 982.813 196.213 987.833C189.42 992.854 184.392 999.896 181.847 1007.95C180.265 1012.96 179.684 1018.23 180.138 1023.47C180.593 1028.7 182.073 1033.79 184.496 1038.45C186.919 1043.11 190.237 1047.25 194.259 1050.63C198.282 1054.01 202.932 1056.56 207.941 1058.15L587.941 1178.15C592.95 1179.73 598.223 1180.31 603.456 1179.85C608.69 1179.4 613.783 1177.92 618.444 1175.49C623.105 1173.07 627.243 1169.76 630.622 1165.73C634.001 1161.71 636.554 1157.06 638.136 1152.05C639.719 1147.04 640.3 1141.77 639.845 1136.54C639.391 1131.3 637.908 1126.21 635.485 1121.55C633.062 1116.89 629.744 1112.75 625.722 1109.37C621.699 1105.99 617.052 1103.44 612.043 1101.86L232.043 981.857C228.038 980.592 223.859 979.966 219.66 980.001Z" fill="black"/>
<path d="M1830.56 577.695C1937.24 577.695 2052.31 595.907 2176.01 638.027C2506.13 750.433 2804.78 1000.71 2957.94 1326.72C3111.1 1652.72 3121.92 2053.59 2874.31 2480.08C2696.98 2785.48 2558.38 2886.72 2408.74 3030.02C2259.11 3173.31 2103.6 3355.94 1912.1 3804.45C1888.93 3858.71 1846 3901.28 1790.26 3932.36C1789.5 3917.24 1786.36 3902.05 1781.24 3887.7C1766.96 3847.66 1739.89 3808.07 1704.25 3767.19C1644.33 3698.46 1559.07 3626.89 1463.6 3562.42C1581.15 3256.85 1837.3 2594.43 1837.3 2594.43C1841.12 2584.54 1840.86 2573.53 1836.58 2563.83C1832.29 2554.13 1824.32 2546.52 1814.42 2542.7C1804.53 2538.87 1793.52 2539.13 1783.82 2543.42C1774.12 2547.7 1766.51 2555.67 1762.69 2565.57C1762.69 2565.57 1515.44 3204.92 1394.83 3518.34C1364.02 3499.6 1332.64 3481.88 1300.99 3465.41C1396.96 3193.88 1566.11 2719.68 1667.18 2464.75C1740.53 2279.7 1778.47 2164.51 1798.23 2094.65C1818 2024.79 1819.95 1995.53 1819.95 1995.53C1820.19 1990.25 1819.38 1984.97 1817.57 1980.01C1815.75 1975.05 1812.98 1970.49 1809.39 1966.6C1805.81 1962.72 1801.49 1959.58 1796.69 1957.38C1791.89 1955.17 1786.7 1953.94 1781.42 1953.75C1776.14 1953.56 1770.87 1954.42 1765.92 1956.27C1760.97 1958.13 1756.44 1960.95 1752.59 1964.57C1724.34 1991.13 1523.39 2170.12 1523.39 2170.12C1519.46 2173.61 1516.26 2177.84 1513.98 2182.57C1511.69 2187.3 1510.35 2192.44 1510.05 2197.68C1509.74 2202.93 1510.47 2208.18 1512.2 2213.14C1513.93 2218.1 1516.61 2222.68 1520.11 2226.6C1523.6 2230.53 1527.83 2233.73 1532.56 2236.02C1537.29 2238.3 1542.42 2239.64 1547.67 2239.94C1552.91 2240.25 1558.17 2239.52 1563.13 2237.79C1568.1 2236.06 1572.67 2233.38 1576.59 2229.88C1576.59 2229.88 1647.42 2166.22 1709 2111.13C1688.19 2179.72 1655.32 2277.55 1592.8 2435.25C1491.48 2690.85 1325.09 3157.22 1228.64 3430.1C1167.3 3402.55 1106.31 3380.95 1048.59 3368.01C1019.92 3361.58 991.995 3357.23 965.069 3355.59C938.144 3353.95 912.223 3355.01 887.511 3359.39C864.815 3363.42 843.041 3370.8 823.155 3381.43C856.228 3262.95 875.234 3094.03 882.98 2924.06C891.957 2727.08 885.58 2533.61 857.745 2420.59C856.219 2414.39 853.235 2408.66 849.042 2403.85C844.848 2399.05 839.567 2395.32 833.639 2392.97C827.71 2390.62 821.308 2389.72 814.962 2390.35C808.616 2390.98 802.512 2393.12 797.159 2396.58C797.159 2396.58 429.32 2629.7 369.405 3003.83C338.709 3195.58 373.12 3389.61 453.898 3541.15C431.969 3568.55 411.274 3598.02 394.601 3628.83C305.244 3493.58 197.817 3238.7 317.042 2862.23C425.206 2520.65 614.316 2426.24 791.222 2307.4C797.753 2303.01 802.845 2296.8 805.86 2289.53C808.876 2282.26 809.681 2274.27 808.175 2266.54C808.175 2266.54 771.153 2076.4 766.144 1837.97C761.134 1599.54 790.571 1314.77 912.198 1132.34C999.638 1001.18 1153.66 820.269 1365.71 701.953C1498.25 628.006 1652.78 577.643 1830.58 577.695H1830.56Z" fill="#FFB900"/>
<path d="M3218.39 510.04C3207.79 510.463 3197.79 515.079 3190.6 522.872L2950.6 782.872C2947.04 786.732 2944.27 791.255 2942.45 796.185C2940.64 801.115 2939.81 806.354 2940.02 811.603C2940.23 816.851 2941.48 822.007 2943.68 826.776C2945.88 831.545 2949 835.833 2952.86 839.396C2960.66 846.591 2970.99 850.394 2981.59 849.969C2992.19 849.544 3002.19 844.926 3009.39 837.13L3249.39 577.13C3256.58 569.334 3260.39 559 3259.96 548.4C3259.54 537.799 3254.92 527.802 3247.12 520.607C3239.32 513.414 3228.99 509.614 3218.39 510.04Z" fill="black"/>
<path d="M2196.77 5293.98C2196.2 5292.98 2196.26 5293.1 2195.4 5291.56L2197.82 5297.05C2197.47 5296.01 2197.12 5295.02 2196.77 5293.98Z" fill="white"/>
<path d="M2196.63 5293.63C2196.63 5293.75 2196.73 5293.86 2196.77 5293.98C2198.96 5297.88 2198.91 5297.77 2196.63 5293.63Z" fill="white"/>
<path d="M792.92 290.078C785.918 290.494 779.149 292.743 773.291 296.601C768.904 299.491 765.128 303.215 762.18 307.563C759.233 311.912 757.17 316.798 756.111 321.943C755.052 327.089 755.016 332.392 756.006 337.551C756.997 342.71 758.995 347.624 761.885 352.012L926.592 602.012C932.43 610.869 941.547 617.044 951.939 619.18C962.33 621.315 973.144 619.236 982.002 613.398C990.86 607.56 997.035 598.443 999.17 588.052C1001.31 577.66 999.227 566.846 993.389 557.988L828.701 307.988C825.81 303.602 822.082 299.828 817.732 296.882C813.382 293.936 808.496 291.877 803.35 290.82C799.921 290.118 796.414 289.867 792.92 290.078Z" fill="black"/>
<path d="M2421.12 80.0159C2412.32 79.7679 2403.69 82.4301 2396.55 87.5891C2389.42 92.7482 2384.19 100.116 2381.67 108.551L2281.67 443.551C2278.64 453.714 2279.76 464.665 2284.8 473.998C2289.84 483.33 2298.38 490.28 2308.55 493.317C2318.71 496.35 2329.66 495.224 2338.99 490.184C2348.33 485.145 2355.27 476.604 2358.31 466.442L2458.31 131.442C2461.35 121.278 2460.22 110.327 2455.18 100.995C2450.14 91.6624 2441.6 84.7131 2431.44 81.676C2428.09 80.6743 2424.62 80.116 2421.12 80.0159Z" fill="black"/>
<path d="M1608.74 0.0195484C1603.49 0.183632 1598.32 1.37925 1593.54 3.54006C1588.75 5.70086 1584.43 8.78376 1580.84 12.6123C1577.24 16.4409 1574.43 20.9411 1572.58 25.8545C1570.72 30.768 1569.85 35.9997 1570.01 41.25L1580.01 361.25C1580.18 366.5 1581.37 371.667 1583.53 376.455C1585.69 381.243 1588.78 385.559 1592.6 389.155C1596.43 392.752 1600.93 395.559 1605.85 397.417C1610.76 399.275 1615.99 400.145 1621.24 399.98C1626.49 399.816 1631.66 398.621 1636.45 396.46C1641.24 394.299 1645.55 391.214 1649.15 387.385C1652.74 383.557 1655.55 379.059 1657.41 374.146C1659.26 369.232 1660.14 364 1659.97 358.75L1649.97 38.75C1649.64 28.1467 1645.11 18.108 1637.38 10.8447C1629.65 3.58149 1619.35 -0.311848 1608.74 0.0195484Z" fill="black"/>
<path d="M2199.13 1377.83C2163.6 1378.5 2129.51 1388.56 2099.36 1404.59C2059.17 1425.96 2023.85 1457.88 1992.33 1497.71C1929.3 1577.39 1881.64 1689.51 1860.42 1818.38C1839.2 1947.24 1848.4 2068.76 1882.57 2164.43C1899.65 2212.27 1922.86 2253.82 1954.09 2286.95C1985.32 2320.08 2026.58 2345.39 2074.85 2353.34C2123.13 2361.29 2170.34 2350.55 2210.54 2329.18C2240.38 2313.32 2267.53 2291.61 2292.43 2265.19C2304.03 2287.31 2317.45 2307.54 2332.98 2325.51C2365.31 2362.94 2409.01 2391.78 2461.3 2400.39C2509.58 2408.34 2556.77 2397.55 2596.96 2376.17C2609.78 2369.35 2622.05 2361.36 2633.91 2352.48C2643.43 2378.73 2644.87 2395.4 2644.15 2397.52C2643.6 2399.12 2646.49 2397.52 2640.13 2399.57C2633.76 2401.65 2618.16 2403.32 2595.14 2400.33C2588.09 2399.41 2580.92 2400.39 2574.37 2403.17C2567.82 2405.95 2562.13 2410.42 2557.88 2416.13C2553.64 2421.84 2550.99 2428.58 2550.22 2435.65C2549.45 2442.72 2550.57 2449.87 2553.48 2456.37C2563.59 2478.92 2566.74 2494.67 2566.82 2501.09C2564.58 2500.63 2535.95 2504.16 2490.79 2491.48C2481.24 2488.81 2471.04 2489.77 2462.16 2494.18C2453.28 2498.6 2446.36 2506.16 2442.74 2515.39C2433.36 2539.31 2423.04 2556.03 2414.29 2565.29C2405.53 2574.55 2400.07 2576.69 2393.37 2577.24C2379.96 2578.34 2346.22 2564.72 2299.68 2513.18C2294.68 2507.65 2288.24 2503.63 2281.07 2501.56C2273.91 2499.5 2266.31 2499.47 2259.14 2501.5C2251.96 2503.52 2245.5 2507.51 2240.47 2513.01C2235.44 2518.51 2232.04 2525.31 2230.67 2532.64C2224.67 2564.67 2212.57 2580.03 2200.54 2588.34C2188.51 2596.65 2174.33 2598.91 2159.29 2595.82C2129.19 2589.65 2103 2565.25 2109.44 2526.58C2110.76 2518.64 2109.66 2510.49 2106.28 2503.18C2102.89 2495.88 2097.38 2489.77 2090.47 2485.65C2083.56 2481.52 2075.56 2479.58 2067.53 2480.08C2059.49 2480.57 2051.79 2483.48 2045.44 2488.41C2028 2501.98 2017.14 2503.6 2013.39 2503.36C2009.64 2503.11 2008.76 2503.06 2004.73 2496.89C1996.69 2484.55 1990.96 2445.26 2007.12 2404.86C2009.95 2397.78 2010.7 2390.02 2009.27 2382.52C2007.85 2375.02 2004.3 2368.09 1999.06 2362.54C1993.82 2356.99 1987.1 2353.05 1979.7 2351.2C1972.29 2349.34 1964.51 2349.65 1957.27 2352.07C1906.99 2368.93 1882.14 2362.69 1882.37 2362.87C1882.49 2362.97 1881.79 2364.34 1881.1 2356.25C1880.41 2348.16 1882.04 2332.43 1888.31 2311.44C1891.34 2301.28 1890.22 2290.33 1885.18 2281C1880.14 2271.66 1871.6 2264.72 1861.43 2261.68C1851.27 2258.65 1840.32 2259.77 1830.99 2264.81C1821.65 2269.85 1814.71 2278.39 1811.67 2288.55C1803.64 2315.44 1799.4 2339.5 1801.4 2363.01C1803.39 2386.52 1813.92 2411.3 1833.9 2426.52C1858.01 2444.89 1886.01 2447.86 1917.14 2443.75C1914.17 2479.23 1919.71 2512.95 1937.74 2540.6C1952.47 2563.19 1978.46 2581.26 2008.15 2583.2C2017.5 2583.81 2026.66 2580.8 2035.87 2578.77C2052.16 2628.03 2095.24 2664.34 2143.19 2674.18C2176.89 2681.09 2214.6 2675.85 2246 2654.16C2261.61 2643.38 2275.09 2628.77 2285.83 2610.94C2323.12 2642.48 2360.01 2660.24 2399.89 2656.97C2427.88 2654.68 2453.49 2640.3 2472.45 2620.23C2484.02 2607.99 2493.34 2593.11 2501.84 2577.03C2542.88 2586.95 2579.06 2590.18 2612.9 2568.28C2634.19 2554.5 2646.83 2526.9 2646.92 2501.97C2646.92 2494.46 2645 2486.81 2643.7 2479.24C2650.81 2478.17 2658.17 2477.84 2664.95 2475.62C2689.12 2467.73 2711.52 2447.86 2719.89 2423.26C2734.05 2381.63 2720.94 2340.74 2696.12 2292.62C2698.77 2289.45 2701.44 2286.3 2704.03 2283.03C2767.07 2203.34 2814.72 2091.21 2835.93 1962.42C2857.13 1833.63 2847.94 1712.15 2813.78 1616.46C2796.7 1568.62 2773.43 1527.05 2742.22 1493.91C2711 1460.76 2669.77 1435.41 2621.49 1427.46C2566.26 1418.36 2513.11 1433.66 2468.76 1461.6C2445.6 1476.19 2424.07 1494.41 2404.01 1515.64C2390.58 1489.95 2374.67 1466.83 2355.81 1446.82C2324.58 1413.69 2283.32 1388.36 2235.05 1380.41C2222.98 1378.42 2210.97 1377.61 2199.13 1377.83Z" fill="black"/>
<path d="M2653.74 1205.64C2544.77 1204.84 2449.99 1412.95 2449.99 1412.95C2660.89 1309.78 2764.79 1400.77 2819.99 1580C2835.39 1465.74 2828.39 1298.85 2701.09 1220C2685.17 1210.14 2669.31 1205.76 2653.74 1205.64Z" fill="black"/>
<path d="M2231.79 1155.47C2199.34 1155.26 2162.06 1165.59 2119.99 1190C1912.89 1310.19 1919.99 1560 1919.99 1560C2105.49 1321.03 2264.69 1254.1 2386.79 1430C2411.97 1319.29 2359.1 1156.3 2231.79 1155.47Z" fill="black"/>
<path d="M2415.89 2049.88C2437.43 2058.33 2459.38 2065.67 2481.75 2071.84C2472.58 2158.43 2499.75 2231.19 2549.46 2242.52C2604.35 2255.03 2666.86 2188.22 2692.66 2091.7C2698.61 2091.2 2704.56 2090.62 2710.55 2089.94C2688.18 2150.16 2659.54 2202.27 2627.86 2242.32C2600.56 2276.84 2570.99 2302.26 2543.7 2316.78C2516.4 2331.3 2493.54 2334.96 2472.64 2331.52C2450.06 2327.81 2427.59 2315.26 2404.83 2288.93C2384.09 2264.91 2365.2 2230.21 2351.18 2188.16C2376.55 2147.49 2398.43 2100.91 2415.89 2049.88Z" fill="white"/>
<path d="M1940.67 2020.06C1982.77 2039.94 2025.17 2055.37 2067.66 2065.86C2064.22 2143.73 2090.87 2206.69 2136.82 2217.17C2190.02 2229.29 2250.34 2166.92 2277.51 2075.21C2289.88 2073.12 2302.23 2070.55 2314.56 2067.46C2293.83 2117.38 2268.74 2160.81 2241.43 2195.33C2214.14 2229.83 2184.58 2255.22 2157.29 2269.73C2130 2284.23 2107.12 2287.94 2086.2 2284.49C2065.28 2281.05 2044.78 2270.2 2023.58 2247.71C2002.38 2225.22 1982.54 2191.7 1967.74 2150.27C1954.27 2112.54 1944.98 2068.35 1940.67 2020.06Z" fill="white"/>
<path d="M2591.59 1495.24C2598 1494.96 2604.17 1495.35 2610.14 1496.33C2631.04 1499.77 2651.55 1510.6 2672.74 1533.11C2693.94 1555.61 2713.79 1589.14 2728.58 1630.59C2758.17 1713.48 2767.89 1827.25 2748.02 1947.95C2744.78 1967.57 2740.8 1986.72 2736.28 2005.41C2627.54 2025.09 2530.53 2010.46 2438.02 1972.58C2442.39 1953.91 2446.27 1934.86 2449.48 1915.37C2468 1802.91 2463.34 1696.07 2439.15 1607.09C2466.96 1567.15 2497.78 1536.54 2527.16 1518.03C2551.1 1502.95 2572.37 1496.07 2591.59 1495.24Z" fill="white"/>
<path d="M2207.63 1448.08C2213.14 1447.98 2218.49 1448.41 2223.72 1449.28C2244.64 1452.72 2265.12 1463.56 2286.32 1486.05C2307.52 1508.54 2327.38 1542.06 2342.18 1583.49C2371.77 1666.36 2381.46 1780.11 2361.57 1900.9C2357.46 1925.89 2352.2 1950.14 2346.03 1973.57C2213.28 2026.18 2080.64 2006.82 1938.55 1929.35C1939.77 1898.02 1942.92 1865.73 1948.33 1832.87C1968.22 1712.09 2013.87 1607.44 2068.47 1538.44C2095.76 1503.94 2125.32 1478.55 2152.61 1464.04C2173.08 1453.16 2191.09 1448.35 2207.63 1448.08Z" fill="white"/>
</g>
<defs>
<clipPath id="clip0_102_210">
<rect width="3758.56" height="5555.52" fill="white"/>
</clipPath>
</defs>
</svg>
