<svg width="243" height="172" viewBox="0 0 243 172" fill="none" xmlns="http://www.w3.org/2000/svg">
<path d="M165.374 0.00245865C165.02 -0.00950964 164.661 0.0220848 164.308 0.100135C159.398 1.19224 145.732 4.2283 134.608 6.7004L129.115 1.30565C128.417 0.619906 127.491 0.236659 126.536 0.206995C126.218 0.197164 125.897 0.226673 125.579 0.297158C125.578 0.297156 125.577 0.297156 125.575 0.297158L45.8603 18.2212L36.6111 3.06299C35.9599 1.9949 34.8351 1.33114 33.6298 1.23385H33.6256C33.2241 1.20137 32.8141 1.23386 32.4092 1.33153L2.9351 8.50699C1.86736 8.76799 0.959795 9.47714 0.446441 10.4505C-0.0711452 11.427 -0.140814 12.575 0.248583 13.6062L16.1031 55.6188C16.1509 55.7454 16.1347 55.8917 16.0588 56.0045C16.0588 56.0059 16.0588 56.0074 16.0588 56.0088C5.89573 71.1623 0.916011 84.6603 0.717764 96.7399C0.525887 108.431 4.90969 118.703 13.0818 127.466C12.4924 129.01 12.1671 130.8 12.3955 132.614C12.5885 134.146 13.3333 135.767 14.8358 136.756C16.1742 137.636 17.9304 137.962 20.0895 137.766C21.0935 139.08 22.2699 140.606 23.6017 142.284C26.9029 146.444 30.6453 150.996 33.2532 153.122C35.896 155.275 39.2927 156.235 42.4415 156.518C45.5903 156.801 48.4538 156.479 50.486 155.463C52.6765 154.367 53.9891 152.966 54.4398 151.408C54.7044 150.494 54.6457 149.633 54.4497 148.887C54.7114 148.621 54.948 148.332 55.1534 148.017C55.7005 147.176 55.9633 146.173 55.9415 145.134C57.659 150.397 61.636 155.785 66.7235 160.408C72.5958 165.745 79.9862 170.039 87.451 171.427C102.173 174.165 109.801 166.5 111.617 160.868C112.6 157.82 111.798 154.355 110.333 151.163C109.552 149.461 108.56 147.835 107.428 146.399C109.744 147.077 112.17 147.49 114.671 147.522C121.186 147.604 127.243 147.398 132.136 146.719C137.029 146.04 140.813 145.111 142.92 142.65C144.108 141.261 144.413 139.428 144.401 137.424C144.388 135.421 143.986 133.187 143.249 130.937C141.777 126.437 139.001 121.812 134.738 119.515C129.021 116.437 121.763 115.511 113.974 119.454C113.25 118.688 112.616 117.818 112.072 116.829C112.43 116.327 112.743 115.737 112.904 115.031C113.091 114.209 113.033 113.267 112.705 112.341C115.182 106.476 116.978 100.185 118.467 93.7169C132.972 88.2055 147.81 82.5664 151.668 81.1007C153.033 80.5815 154.038 79.3995 154.337 77.9776C154.371 77.8149 154.573 76.8364 154.612 76.6469C154.726 76.6946 154.841 76.7394 154.955 76.7863C152.674 82.5153 150.556 88.4094 148.548 94.4098C148.411 94.8185 148.434 95.2638 148.612 95.6565C148.789 96.0492 149.108 96.3604 149.506 96.5278C164.112 102.684 178.731 109.96 193.353 118.24C193.388 118.248 193.424 118.256 193.459 118.263C193.588 118.337 193.726 118.393 193.87 118.431L202.684 120.141C202.916 120.185 203.154 120.182 203.383 120.13C203.613 120.079 203.83 119.98 204.02 119.841C204.21 119.702 204.369 119.525 204.488 119.321C204.606 119.117 204.681 118.891 204.708 118.657C205.598 110.927 206.91 103.257 208.982 95.6614C209.5 93.7624 210.065 91.8681 210.684 89.9786C210.801 89.6191 210.93 89.2607 211.052 88.9017C217.841 87.5797 223.595 85.26 227.915 81.5425C232.386 77.6947 235.219 72.3306 235.974 65.4952C238.058 60.7363 238.501 56.1557 238.648 53.1487C238.732 51.4346 238.328 49.7729 237.541 48.2123C238.875 47.3018 240.24 46.4091 241.666 45.5533C241.91 45.4069 242.114 45.202 242.258 44.957C242.403 44.7121 242.484 44.435 242.495 44.1507C242.505 43.8665 242.445 43.5841 242.319 43.3291C242.192 43.0742 242.005 42.8547 241.772 42.6906C232.099 35.8665 222.139 29.0453 211.948 22.2245C213.194 20.0255 214.079 18.4001 214.079 18.4001C214.295 18.0013 214.344 17.5331 214.214 17.0985C214.085 16.6639 213.788 16.2984 213.389 16.0826C212.991 15.8667 212.522 15.818 212.088 15.9474C211.653 16.0767 211.288 16.3734 211.072 16.7721C211.072 16.7721 209.944 18.7519 209.066 20.3069C209.047 20.2945 209.028 20.2821 209.009 20.2692C209.976 18.1053 210.533 16.3113 210.656 14.8336C210.806 13.038 210.33 11.4648 209.234 10.5341C208.685 10.0688 208.066 9.81001 207.442 9.69597C206.818 9.58193 206.191 9.61307 205.627 9.72592C204.5 9.95237 203.499 10.4621 202.739 11.3322C201.736 12.4812 200.494 14.4909 199.08 17.2721C184.071 26.442 173.157 40.0305 164.537 56.0279C162.841 55.3256 161.119 54.5372 159.373 53.6653C163.181 35.2754 167.442 14.6977 169.421 5.14764C169.712 3.72893 169.261 2.25433 168.233 1.24053C167.461 0.47956 166.435 0.0473626 165.373 0.0108593L165.374 0.00245865ZM206.577 13.0394C206.82 13.0308 206.965 13.0894 207.021 13.137C207.094 13.1996 207.342 13.425 207.249 14.5437C207.178 15.3909 206.86 16.6628 206.15 18.3623C205.225 17.7483 204.31 17.1346 203.382 16.5206C204.228 15.0571 204.937 14.0103 205.315 13.577C205.423 13.4532 205.887 13.1566 206.3 13.0736C206.404 13.0531 206.495 13.0423 206.577 13.0394ZM26.6866 93.4113C26.6865 93.4113 26.6867 93.4113 26.6866 93.4155C28.5273 101.349 31.7916 107.648 36.0819 112.666C35.9102 112.55 35.7313 112.439 35.5359 112.342C34.9525 112.054 34.2877 111.891 33.569 111.859C32.8501 111.827 32.0772 111.927 31.2782 112.167C31.2344 112.18 31.1902 112.196 31.1463 112.21C27.7835 105.263 26.2048 98.99 26.6866 93.4155C26.6864 93.4155 26.6866 93.4155 26.6866 93.4113ZM94.0784 102.986C93.5787 104.645 92.9565 106.255 92.2309 107.831C92.0444 108.13 89.7945 111.769 87.8346 116.169C86.8125 118.464 85.8744 120.945 85.376 123.314C85.3708 123.338 85.367 123.363 85.3619 123.387C84.9622 122.808 84.4309 122.282 83.774 121.847C85.1118 116.625 86.1303 111.28 86.736 105.776C89.9175 104.567 90.6929 104.273 94.0784 102.986ZM37.6923 114.443C39.4466 116.265 41.352 117.895 43.3767 119.367C42.0238 118.9 40.6043 118.488 39.2601 118.118C39.0678 118.065 38.9012 118.024 38.7133 117.974C38.6661 117.319 38.4978 116.058 37.8793 114.795C37.8221 114.678 37.7594 114.561 37.6923 114.443ZM62.6015 114.948C62.2507 117.414 61.7161 119.883 60.9961 122.354C60.4136 123.035 58.1078 125.881 56.4595 130.358C56.216 129.986 55.9199 129.594 55.5304 129.091C54.9442 128.333 54.1963 127.427 53.3531 126.483C51.6667 124.594 49.6501 122.566 47.6478 121.289C47.4325 121.152 47.2022 121.019 46.9649 120.889C46.979 120.884 59.0411 116.301 62.6015 114.948ZM85.512 129.283C85.6094 129.521 85.7191 129.756 85.8493 129.986C87.2337 132.425 89.9024 135.591 93.4915 138.612C92.0988 138.386 90.6925 138.286 89.3006 138.342C89.2098 138.346 89.1199 138.356 89.0292 138.361C87.5582 135.943 86.2388 133.225 85.0571 130.234C85.2179 129.928 85.3717 129.61 85.512 129.281V129.283ZM44.3443 131.338C44.3862 131.439 44.429 131.541 44.472 131.644C44.1957 131.632 43.6409 131.609 43.2924 131.594C43.615 131.494 43.958 131.405 44.3443 131.338Z" fill="#070922"/>
<path d="M165.046 3.43981C165.333 3.37642 165.621 3.45902 165.832 3.66688C166.043 3.87552 166.13 4.16226 166.071 4.4533C164.037 14.2671 159.577 35.8062 155.748 54.2976C155.745 54.3092 155.742 54.3209 155.74 54.3326C153.978 62.8393 151.569 74.4664 150.988 77.2765C150.928 77.5644 150.726 77.8011 150.45 77.906C138.554 82.4255 52.1489 115.261 48.0938 116.802C48.2045 113.401 49.6479 69.0712 50.4355 44.8872C50.4355 44.8827 50.4355 44.8783 50.4355 44.8739C50.6043 39.6907 50.8624 31.7524 50.9372 29.4552C50.95 29.055 51.2177 28.7355 51.6026 28.6504C65.2107 25.6245 146.285 7.61314 165.043 3.44069L165.046 3.43981Z" fill="#FFB900"/>
<path d="M118.914 22.3549C115.055 22.2478 111.412 24.7448 108.432 28.6671C106.429 26.0256 103.925 24.2731 100.966 23.8793C95.9216 23.2077 91.1088 26.6724 87.3944 32.1659C83.6801 37.6594 80.883 45.3508 79.7206 54.083C79.1685 58.2302 79.0382 62.244 79.2789 65.9912L73.8065 68.4707C73.3937 68.6579 73.072 69.0014 72.9123 69.4256C72.7526 69.8499 72.768 70.3202 72.955 70.7331C73.142 71.1462 73.4855 71.468 73.9097 71.6278C74.334 71.7877 74.8044 71.7724 75.2174 71.5855L79.6321 69.5861C80.0073 72.3514 80.6001 74.9265 81.3936 77.2441C83.5415 83.5179 87.2802 88.1209 92.325 88.7924C92.3464 88.7967 92.3678 88.7967 92.3893 88.7976C92.8441 89.6069 93.4189 90.3335 94.1316 90.9172C89.1718 92.399 84.2729 91.8456 79.2096 89.7535C79.933 89.2409 80.8146 88.8077 81.892 88.4486C82.105 88.3776 82.3019 88.2653 82.4716 88.1182C82.6412 87.971 82.7801 87.7919 82.8805 87.591C82.9809 87.3901 83.0408 87.1715 83.0567 86.9475C83.0726 86.7235 83.0442 86.4986 82.9731 86.2856C82.8297 85.8555 82.5213 85.5001 82.1158 85.2973C81.7104 85.0946 81.241 85.0612 80.8109 85.2044C78.3764 86.0159 76.5319 87.3576 75.2166 89.0288C75.0353 89.1754 74.8858 89.3575 74.7775 89.5639C74.7638 89.6027 74.7516 89.642 74.7407 89.6817C73.7379 91.1688 73.1104 92.875 72.8239 94.6799C72.7528 95.1277 72.8624 95.5854 73.1287 95.9524C73.3951 96.3194 73.7962 96.5656 74.244 96.6368C74.4658 96.672 74.6923 96.6632 74.9107 96.6108C75.1291 96.5585 75.335 96.4636 75.5167 96.3317C75.6984 96.1997 75.8524 96.0332 75.9698 95.8418C76.0872 95.6503 76.1657 95.4377 76.2009 95.2159C76.3611 94.2067 76.5997 93.3051 76.9581 92.5026C84.5654 95.8525 92.4931 96.1559 100.19 92.0393C101.489 91.626 102.682 90.8482 103.706 89.8845C104.514 89.1234 105.256 88.2183 105.915 87.1963L113.165 90.2685C113.455 90.3914 113.774 90.4318 114.085 90.3851C114.397 90.3384 114.69 90.2065 114.931 90.004C115.173 89.8015 115.353 89.5361 115.453 89.2374C115.553 88.9386 115.569 88.618 115.499 88.3109L113.759 80.758C114.906 80.6828 116.03 80.3795 117.121 79.8832C117.958 81 119.086 81.8744 120.559 82.2983C123.319 83.0925 125.895 81.9147 127.853 80.071C129.812 78.2272 131.386 75.5504 132.301 72.3695C133.217 69.1887 133.306 66.0837 132.627 63.481C132.196 61.8285 131.409 60.2731 130.188 59.1531C130.608 57.3665 130.952 55.5108 131.207 53.5981C132.247 45.7878 131.632 38.4866 129.703 32.8523C127.774 27.218 124.401 23.0381 119.815 22.4276C119.513 22.3874 119.213 22.3642 118.914 22.3559V22.3549Z" fill="#070922"/>
<path d="M196.379 23.1934C195.537 25.2579 194.721 27.5016 193.988 29.8721L193.627 29.706C193.215 29.5166 192.745 29.4986 192.319 29.6559C192.109 29.7339 191.915 29.8526 191.751 30.0053C191.586 30.158 191.453 30.3417 191.359 30.5458C191.266 30.7498 191.213 30.9703 191.204 31.1947C191.196 31.4191 191.232 31.6429 191.31 31.8535C191.388 32.064 191.506 32.2572 191.659 32.4219C191.812 32.5865 191.995 32.7195 192.199 32.8132L193.155 33.2524C193 34.2863 192.987 35.189 193.134 36.0099C193.404 37.518 194.6 38.8224 195.928 39.0888C197.256 39.3551 198.438 38.9646 199.546 38.4392C200.284 38.0896 200.989 37.6451 201.646 37.1536L208.014 40.0797C208.426 40.269 208.897 40.2869 209.322 40.1294C209.747 39.9719 210.092 39.6519 210.282 39.2399C210.375 39.0358 210.428 38.8153 210.437 38.591C210.445 38.3666 210.409 38.1427 210.331 37.9322C210.253 37.7216 210.135 37.5285 209.982 37.3638C209.829 37.1991 209.646 37.0662 209.442 36.9724L204.224 34.5748C204.773 33.8614 205.34 33.0417 205.947 32.1354C206.08 31.9368 206.217 31.7229 206.352 31.5176L213.41 35.721C213.603 35.8359 213.817 35.9117 214.039 35.9441C214.261 35.9764 214.487 35.9647 214.705 35.9095C214.923 35.8543 215.128 35.7567 215.308 35.6224C215.488 35.4881 215.639 35.3196 215.754 35.1266C215.869 34.9336 215.945 34.7199 215.977 34.4977C216.01 34.2754 215.998 34.049 215.943 33.8313C215.887 33.6136 215.79 33.4089 215.655 33.2289C215.521 33.049 215.353 32.8972 215.16 32.7824L208.184 28.6273C208.688 27.8067 209.188 26.9779 209.671 26.1612C209.869 25.8266 210.041 25.5248 210.232 25.197C219.611 31.4797 228.784 37.7604 237.725 44.0419C237.024 44.4915 236.32 44.9389 235.624 45.3918C235.184 44.8851 234.704 44.3952 234.187 43.925C231.319 41.3177 227.297 39.198 222.472 37.7447C221.65 37.4971 220.892 37.3356 220.185 37.2663C219.477 37.197 218.819 37.2196 218.199 37.3422C216.957 37.5874 215.899 38.3255 215.295 39.2498C214.6 40.3118 214.386 41.4591 214.38 42.5725C213.609 42.5073 212.894 42.5281 212.233 42.6452C210.692 42.9175 209.419 43.8061 208.766 44.966C207.461 47.2858 208.184 49.9235 209.429 51.851C210.204 53.0477 211.643 54.4394 213.265 55.925C210.678 54.986 208.136 54.3497 205.834 54.8005C204.249 55.1104 202.987 55.6531 202.144 56.6814C201.301 57.7096 201.171 59.1099 201.447 60.2286C201.997 62.4658 203.646 64.3413 205.328 66.1802C206.848 67.844 209.048 69.5361 211.126 70.9772C202.812 84.0975 197.609 98.9873 193.172 114.236C179.559 106.606 165.936 99.8362 152.309 94.023C162.218 64.7707 174.67 38.6989 196.379 23.1941L196.379 23.1934Z" fill="white"/>
<path d="M57.0377 135.593L66.8488 136.002L68.3507 136.674L66.7828 137.672L58.3159 137.313C58.1332 137.069 57.9212 136.852 57.6872 136.678C57.3861 136.455 57.0683 136.298 56.748 136.188C56.8642 135.992 56.9592 135.792 57.0377 135.593Z" fill="#005DC7"/>
<path d="M30.512 134.481C35.4414 134.687 46.32 135.144 47.1195 135.178C47.8743 135.828 48.7872 136.441 49.8795 136.953C49.5212 136.938 35.807 136.357 30.4703 136.13C30.4689 136.13 30.4674 136.13 30.466 136.13C30.2235 136.12 30.0586 135.948 30.0586 135.7V134.91C30.0586 134.795 30.1094 134.679 30.1888 134.603C30.2726 134.522 30.3892 134.476 30.512 134.481Z" fill="#005DC7"/>
<path d="M82.569 125.392C82.6215 125.502 82.7169 125.608 82.746 125.725C82.8697 126.22 82.7541 127.029 82.3829 127.91C81.6405 129.674 80.0971 131.402 80.0971 131.402C79.7892 131.735 79.6262 132.176 79.6439 132.629C79.6616 133.082 79.8585 133.51 80.1914 133.818C80.5242 134.126 80.9657 134.289 81.4188 134.271C81.8719 134.254 82.2994 134.057 82.6074 133.724C82.6074 133.724 82.6983 133.621 82.736 133.58C83.569 135.498 84.4699 137.312 85.4434 139.016C82.8122 140.032 80.8739 142.286 79.4559 144.299C77.7615 146.705 76.7886 148.987 76.7886 148.987C76.61 149.403 76.6041 149.874 76.7724 150.295C76.9407 150.716 77.2694 151.053 77.6861 151.232C77.8924 151.32 78.1142 151.367 78.3388 151.37C78.5634 151.373 78.7863 151.331 78.9949 151.248C79.2034 151.165 79.3935 151.041 79.5542 150.884C79.715 150.728 79.8433 150.541 79.9318 150.334C79.9318 150.334 80.7875 148.347 82.2518 146.268C83.7161 144.189 85.7708 142.244 87.6115 141.944C92.3331 141.174 98.1317 142.919 102.129 145.901C103.984 147.285 105.979 149.876 107.226 152.592C108.473 155.309 108.91 158.125 108.363 159.821C107.119 163.679 101.488 170.564 88.0765 168.07C81.4743 166.842 74.5066 162.865 69.0229 157.881C63.5399 152.898 59.585 146.883 58.6683 142.076C58.6436 141.945 58.624 141.809 58.6016 141.675C58.6058 141.669 58.6063 141.663 58.6084 141.657C58.7121 141.349 58.7953 141.05 58.8605 140.759L67.1748 141.11C67.5242 141.125 67.8698 141.032 68.1649 140.845L72.8667 137.852C73.1273 137.687 73.338 137.453 73.4767 137.177C73.6153 136.901 73.6766 136.593 73.654 136.285C73.6314 135.977 73.5257 135.681 73.3483 135.428C73.1709 135.175 72.9283 134.975 72.6463 134.849L67.9445 132.746C67.7469 132.658 67.5344 132.608 67.3183 132.599L59.4141 132.269C60.2844 129.633 61.498 127.564 62.4429 126.178C67.8186 133.101 79.0323 132.072 82.569 125.392Z" fill="white"/>
<path d="M33.3994 115.256C33.6776 115.266 33.8697 115.333 34.0222 115.408C34.3272 115.558 34.5852 115.847 34.8069 116.299C34.9248 116.54 35.014 116.806 35.0841 117.068C34.4517 116.923 33.8302 116.784 33.8302 116.784C33.6104 116.737 33.3836 116.734 33.1628 116.776C32.942 116.817 32.7314 116.901 32.5431 117.024C32.3549 117.146 32.1927 117.305 32.0657 117.49C31.9387 117.675 31.8495 117.884 31.8032 118.104C31.7568 118.323 31.7541 118.55 31.7953 118.771C31.8366 118.991 31.9208 119.202 32.0434 119.39C32.166 119.578 32.3244 119.74 32.5096 119.867C32.6949 119.994 32.9033 120.083 33.123 120.13C33.123 120.13 35.5266 120.638 38.3517 121.415C41.1767 122.193 44.492 123.333 45.8068 124.172C47.2625 125.101 49.2248 126.995 50.8008 128.76C51.5888 129.642 52.2928 130.495 52.8245 131.182C53.3562 131.869 53.7543 132.488 53.7587 132.496C53.7403 132.461 53.8837 132.843 53.9282 133.227C53.9726 133.61 53.9465 134.036 53.8781 134.274C53.8095 134.512 53.7881 134.494 53.772 134.502C53.7562 134.511 53.517 134.622 52.7669 134.401C50.1585 133.629 48.8141 132.28 48.0367 131.129C47.2591 129.977 47.1275 129.159 47.1275 129.159C47.0541 128.746 46.8312 128.374 46.5013 128.115C46.1714 127.855 45.7575 127.726 45.3385 127.752C41.8724 127.966 39.4091 129.412 37.8816 131.368C34.6791 131.233 32.7896 131.154 30.6436 131.064C30.6406 131.064 30.6376 131.064 30.6346 131.064C29.5942 131.026 28.5784 131.407 27.822 132.131C27.0611 132.858 26.6357 133.862 26.6357 134.91V135.7C26.6357 137.744 28.2763 139.462 30.3224 139.546C33.2593 139.671 36.5412 139.809 40.9941 139.998C43.4464 140.391 47.1032 140.66 50.2075 140.374C51.399 140.267 52.5032 140.082 53.4851 139.728C54.2232 139.463 55.0427 139.339 55.4294 139.38C55.5434 139.393 55.5281 139.396 55.5563 139.406C55.573 139.52 55.5939 139.879 55.3626 140.567C55.3784 140.481 54.8301 141.121 53.6161 141.6C52.378 142.087 50.6723 142.508 48.9861 142.822C45.6138 143.45 42.3324 143.681 42.3324 143.681C41.8801 143.712 41.4587 143.922 41.1611 144.264C40.8635 144.606 40.7139 145.053 40.7454 145.505C40.7768 145.957 40.9866 146.379 41.3287 146.676C41.6708 146.974 42.1171 147.123 42.5695 147.092C42.5695 147.092 45.997 146.857 49.6122 146.184C50.5934 146.001 51.5882 145.787 52.5484 145.53C52.5069 145.755 52.4124 145.954 52.2829 146.153C51.9409 146.678 51.1252 147.264 49.7759 147.564C49.4257 147.641 47.236 147.902 45.3954 148.075C43.555 148.249 41.8858 148.384 41.8858 148.384C41.4339 148.421 41.0151 148.635 40.7214 148.981C40.4277 149.326 40.2831 149.774 40.3196 150.226C40.3562 150.678 40.5707 151.097 40.9161 151.39C41.2615 151.684 41.7094 151.829 42.1613 151.792C42.1613 151.792 43.8484 151.656 45.716 151.48C47.5838 151.304 49.4551 151.137 50.5147 150.903C50.6829 150.866 50.8485 150.823 51.0123 150.779C50.7804 151.193 50.2456 151.759 48.9527 152.406C47.9661 152.899 45.4019 153.354 42.7448 153.115C40.0873 152.875 37.2988 152.012 35.4099 150.472C33.4862 148.905 29.5353 144.267 26.2759 140.16C23.0164 136.053 20.3168 132.402 20.3168 132.402C20.0473 132.037 19.644 131.795 19.1956 131.728C18.7472 131.66 18.2905 131.774 17.9258 132.043C17.6009 132.292 17.3762 132.65 17.2926 133.05C17.2089 133.451 17.2719 133.869 17.47 134.227C17.1513 134.137 16.8984 134.024 16.7119 133.901C16.1476 133.53 15.8907 133.032 15.7844 132.188C15.5718 130.5 16.5926 127.718 17.318 126.75C19.5544 123.768 27.5166 116.858 32.255 115.441C32.7537 115.291 33.118 115.245 33.3962 115.255L33.3994 115.256Z" fill="white"/>
<path d="M93.8512 111.838C94.2525 112.159 94.68 112.465 95.1319 112.758C96.6889 113.769 98.6544 114.633 100.738 115.237C102.821 115.84 105.01 116.186 107.049 116.015C107.434 115.983 107.814 115.907 108.194 115.83C107.861 116.046 107.594 116.191 107.594 116.191C107.179 116.373 106.854 116.713 106.689 117.135C106.524 117.558 106.534 118.028 106.716 118.443C106.898 118.858 107.238 119.184 107.66 119.349C108.083 119.514 108.553 119.504 108.969 119.322C108.969 119.322 109.168 119.227 109.431 119.088C109.895 119.854 110.412 120.571 110.981 121.237C108.838 122.759 107.473 124.355 106.644 125.702C105.579 127.435 105.355 128.927 105.355 128.927C105.326 129.15 105.342 129.376 105.401 129.593C105.46 129.809 105.561 130.012 105.698 130.19C105.836 130.368 106.007 130.516 106.202 130.628C106.397 130.739 106.612 130.811 106.835 130.84C107.284 130.897 107.739 130.773 108.097 130.496C108.456 130.218 108.689 129.809 108.746 129.36C108.746 129.36 108.792 128.74 109.558 127.494C110.324 126.247 111.783 124.546 114.669 122.944C121.902 118.925 127.956 119.748 133.117 122.527C136.176 124.175 138.72 128.09 140 132.002C140.641 133.958 140.972 135.898 140.982 137.448C140.992 138.997 140.607 140.095 140.323 140.427C139.484 141.407 136.269 142.695 131.667 143.334C127.065 143.973 121.13 144.184 114.715 144.104C108.734 144.029 102.956 141.382 98.3093 138.048C93.6628 134.713 90.1521 130.64 88.8238 128.299C88.4164 127.581 88.3055 126.001 88.7228 124.017C89.14 122.034 89.9956 119.722 90.9585 117.561C91.9566 115.32 93.0208 113.317 93.8512 111.838Z" fill="white"/>
<path d="M82.621 110.682C81.9863 114.617 81.1456 118.481 80.1274 122.29C80.1257 122.304 80.1243 122.319 80.1231 122.334C80.118 122.343 80.1131 122.351 80.1082 122.36C78.8251 128.134 68.2786 129.988 64.373 122.97C64.8307 121.363 65.2192 119.755 65.5301 118.146C70.468 115.948 77.2299 112.961 82.6194 110.682L82.621 110.682Z" fill="#070922"/>
<path d="M112.887 101.578C111.865 105.024 110.705 108.354 109.341 111.519C108.935 112.095 108.13 112.494 106.763 112.608C105.337 112.727 103.475 112.47 101.689 111.953C99.9034 111.435 98.1804 110.66 96.9941 109.89C96.218 109.386 95.8162 108.868 95.6191 108.631C95.8958 108.004 96.1574 107.371 96.4039 106.729L112.887 101.578Z" fill="#070922"/>
<path d="M160.013 88.9639C159.788 88.9622 159.566 89.0048 159.358 89.0891C159.15 89.1737 158.96 89.2983 158.8 89.4561C158.641 89.6138 158.513 89.8014 158.426 90.0083C158.339 90.2151 158.293 90.4371 158.291 90.6617C158.289 90.8862 158.332 91.1089 158.416 91.317C158.501 91.525 158.625 91.7144 158.783 91.8743C158.941 92.0343 159.128 92.1616 159.335 92.249L189.683 105.072C189.89 105.16 190.112 105.205 190.337 105.207C190.561 105.209 190.784 105.166 190.992 105.081C191.2 104.997 191.39 104.872 191.549 104.715C191.709 104.557 191.837 104.369 191.924 104.162C192.011 103.955 192.057 103.733 192.059 103.509C192.06 103.284 192.018 103.061 191.933 102.853C191.849 102.645 191.724 102.456 191.566 102.296C191.409 102.136 191.221 102.009 191.014 101.922L160.666 89.0983C160.459 89.0111 160.237 88.9655 160.013 88.9639Z" fill="#070922"/>
<path d="M103.83 83.212C103.03 85.0676 101.973 86.6037 100.875 87.6417C100.059 88.1923 99.2463 88.6861 98.4373 89.121C97.977 89.2383 97.5767 89.2407 97.2652 89.1509C96.9494 89.0601 96.6053 88.839 96.2734 88.4864C98.9868 87.7195 101.556 85.8418 103.83 83.212Z" fill="#FFB900"/>
<path d="M162.363 81.7101C162.214 81.7278 162.069 81.7648 161.93 81.8203C161.722 81.9037 161.532 82.0273 161.371 82.1842C161.21 82.341 161.082 82.528 160.994 82.7345C160.905 82.9408 160.858 83.1626 160.856 83.3871C160.853 83.6117 160.894 83.8345 160.978 84.043C161.061 84.2514 161.185 84.4414 161.342 84.602C161.499 84.7627 161.686 84.8909 161.892 84.9793L173.86 90.1086C174.277 90.2872 174.748 90.293 175.169 90.1247C175.59 89.9564 175.926 89.6278 176.105 89.2112C176.194 89.0048 176.24 88.783 176.243 88.5585C176.246 88.334 176.204 88.1111 176.121 87.9026C176.037 87.6942 175.914 87.5042 175.757 87.3436C175.6 87.1829 175.413 87.0547 175.207 86.9663L163.239 81.837C162.963 81.7186 162.661 81.6748 162.363 81.7101Z" fill="#070922"/>
<path d="M108.73 79.5244C109.178 79.7891 109.642 80.0139 110.122 80.1981L111.415 85.8133L107.48 84.1453C107.733 83.5156 107.96 82.8612 108.155 82.1826C108.413 81.2869 108.602 80.3984 108.73 79.5244Z" fill="#FF9CAE"/>
<path d="M229.535 74.4756C228.489 76.1613 227.203 77.6405 225.686 78.9462C222.371 81.7983 217.889 83.8199 212.41 85.109C212.733 84.2569 213.07 83.406 213.417 82.556C217.028 81.7414 221.23 80.2626 225.46 77.5845C226.988 76.6181 228.337 75.5723 229.535 74.4756Z" fill="white"/>
<path d="M165.614 72.7216C165.253 72.7098 164.898 72.8125 164.599 73.0149C164.3 73.2174 164.073 73.5092 163.95 73.8487C163.795 74.275 163.817 74.7452 164.009 75.1559C164.201 75.5665 164.549 75.884 164.975 76.0385L189.767 85.0147C189.978 85.0911 190.202 85.1252 190.426 85.115C190.65 85.1048 190.871 85.0505 191.074 84.9552C191.277 84.86 191.46 84.7256 191.611 84.5597C191.763 84.3939 191.88 84.1998 191.956 83.9887C192.033 83.7775 192.067 83.5534 192.057 83.329C192.047 83.1047 191.992 82.8846 191.897 82.6812C191.802 82.4779 191.667 82.2953 191.501 82.1439C191.335 81.9925 191.141 81.8753 190.93 81.7989L166.139 72.8226C165.97 72.7616 165.793 72.7275 165.614 72.7216Z" fill="#070922"/>
<path d="M113.274 71.7389C113.885 71.7346 114.513 71.753 115.156 71.7873C115.047 73.4772 115.186 75.0852 115.565 76.5367C115.582 76.6028 115.603 76.668 115.621 76.7338C114.568 77.1632 113.526 77.3228 112.526 77.1896C112.332 77.1639 112.14 77.1273 111.955 77.0819C111.954 77.0819 111.952 77.0819 111.951 77.0819C110.856 76.8156 109.823 76.2041 108.855 75.2436C109.354 74.1809 109.825 73.073 110.264 71.9201C111.22 71.8056 112.223 71.744 113.274 71.7389Z" fill="white"/>
<path d="M101.951 70.4343C102.209 70.4142 102.438 70.4343 102.633 70.4919C103.415 70.7169 104.369 71.6936 104.885 73.671C105.01 74.1481 105.102 74.6695 105.159 75.223C104.551 76.3887 103.911 77.4747 103.244 78.4613C100.597 82.3763 97.6618 84.6838 94.8481 85.2119C94.5159 83.3273 94.6249 80.9393 95.3289 78.4922C96.1315 75.7032 97.5476 73.3887 99.0356 71.988C100.152 70.9374 101.178 70.495 101.951 70.4343Z" fill="white"/>
<path d="M83.0352 69.9131L91.902 76.9324C91.8468 77.107 91.7928 77.2832 91.7417 77.4609C91.0014 80.034 90.8029 82.557 91.1131 84.805C88.4149 83.6472 86.0763 80.6007 84.4895 75.9657C83.8685 74.1519 83.3791 72.1148 83.0352 69.9131Z" fill="white"/>
<path d="M168.416 64.6048C168.095 64.63 167.788 64.7451 167.53 64.9371C167.272 65.1291 167.073 65.3901 166.956 65.6901C166.792 66.1127 166.802 66.5832 166.985 66.9983C167.167 67.4133 167.507 67.7389 167.93 67.9033L175.623 70.8954C175.833 70.9767 176.056 71.0161 176.28 71.0111C176.505 71.0062 176.726 70.9571 176.932 70.8666C177.137 70.7761 177.323 70.6461 177.478 70.4838C177.634 70.3216 177.755 70.1304 177.837 69.9211C178.001 69.4985 177.991 69.0279 177.808 68.6129C177.626 68.1979 177.286 67.8723 176.863 67.7079L169.169 64.7159C168.93 64.6227 168.672 64.5848 168.416 64.6048Z" fill="#070922"/>
<path d="M128.947 63.5537C128.977 63.6527 129.006 63.753 129.033 63.8576C129.549 65.835 129.518 68.5487 128.716 71.3378C127.913 74.1268 126.497 76.4413 125.009 77.842C123.521 79.2427 122.194 79.5622 121.412 79.3372C120.95 79.2043 120.429 78.8009 119.973 78.0917C121.549 76.8234 123.018 75.1665 124.329 73.2279C126.152 70.5315 127.724 67.2487 128.947 63.5537Z" fill="#FFB900"/>
<path d="M126.099 60.621C126.203 60.6128 126.3 60.6167 126.395 60.621C125.197 64.787 123.551 68.412 121.678 71.1817C120.773 72.5199 119.834 73.6419 118.88 74.5428C118.709 72.8156 118.876 70.7682 119.478 68.678C120.28 65.889 121.696 63.5745 123.184 62.1738C124.3 61.1232 125.326 60.6808 126.099 60.6201V60.621Z" fill="white"/>
<path d="M172.883 58.1895C172.506 58.1764 172.136 58.2879 171.83 58.5066C171.523 58.7254 171.298 59.0391 171.188 59.3992C171.055 59.8328 171.101 60.3013 171.314 60.7017C171.526 61.102 171.89 61.4013 172.323 61.5339L187.711 66.2357C187.926 66.3013 188.151 66.324 188.375 66.3023C188.599 66.2807 188.816 66.2153 189.014 66.1098C189.212 66.0043 189.388 65.8607 189.53 65.6874C189.673 65.514 189.78 65.3143 189.846 65.0995C189.978 64.6659 189.933 64.1974 189.72 63.797C189.507 63.3967 189.144 63.0973 188.71 62.9648L173.323 58.263C173.18 58.2194 173.032 58.1947 172.883 58.1895Z" fill="#070922"/>
<path d="M158.655 57.126C160.089 57.8243 161.51 58.4681 162.918 59.0586C160.526 63.7346 158.326 68.6116 156.254 73.6191C155.943 73.4911 155.632 73.3599 155.32 73.2251C155.956 70.1547 157.466 62.8676 158.655 57.126Z" fill="#FFB900"/>
<path d="M176.278 50.0677C175.917 50.0603 175.563 50.1674 175.267 50.3734C174.97 50.5794 174.747 50.874 174.628 51.2148C174.479 51.643 174.506 52.1128 174.704 52.521C174.901 52.9291 175.253 53.2422 175.681 53.3912L195.343 60.2303C195.555 60.3042 195.78 60.3355 196.004 60.3226C196.228 60.3097 196.448 60.2527 196.65 60.1549C196.852 60.0572 197.033 59.9206 197.182 59.7528C197.332 59.5851 197.447 59.3896 197.52 59.1775C197.594 58.9655 197.625 58.7409 197.612 58.5168C197.599 58.2926 197.542 58.0732 197.444 57.8711C197.347 57.669 197.21 57.4882 197.042 57.3389C196.874 57.1896 196.679 57.0748 196.467 57.0011L176.805 50.1621C176.635 50.1032 176.457 50.0713 176.278 50.0677Z" fill="#070922"/>
<path d="M46.9186 47.8896C46.155 71.3371 45.1688 101.653 44.8699 110.832C43.5733 109.79 42.2891 108.314 41.0547 106.418C41.0846 105.497 42.5959 58.6181 42.8588 50.456C42.8639 50.3061 42.9436 50.1744 43.07 50.102C43.0714 50.102 43.0728 50.102 43.0743 50.102C44.2936 49.4 45.4452 48.7374 46.9186 47.8896Z" fill="#FF5345"/>
<path d="M181.854 43.2283C181.493 43.2173 181.138 43.3208 180.839 43.524C180.541 43.7272 180.315 44.0197 180.193 44.3595C180.117 44.5709 180.083 44.795 180.094 45.0193C180.104 45.2436 180.159 45.4636 180.255 45.6667C180.351 45.8698 180.486 46.0521 180.652 46.2031C180.818 46.3541 181.012 46.4709 181.224 46.5468L197.894 52.531C198.105 52.6069 198.329 52.6404 198.554 52.6296C198.778 52.6189 198.998 52.564 199.201 52.4682C199.404 52.3723 199.587 52.2375 199.737 52.0712C199.888 51.9049 200.005 51.7105 200.081 51.4991C200.157 51.2877 200.19 51.0635 200.18 50.8392C200.169 50.6148 200.114 50.3948 200.018 50.1917C199.922 49.9886 199.788 49.8063 199.621 49.6554C199.455 49.5044 199.261 49.3877 199.049 49.3118L182.379 43.3277C182.21 43.2672 182.033 43.2337 181.854 43.2283Z" fill="#070922"/>
<path d="M47.1071 42.0459C47.0883 42.6219 47.0678 43.2563 47.0479 43.8667C46.1612 44.3769 43.1714 46.0975 41.3676 47.1359C40.2119 47.7985 39.4822 49.0171 39.4391 50.3459C39.2048 57.622 38.1176 91.3328 37.8304 100.243C37.0837 98.5078 36.3683 96.619 35.6865 94.5925C35.6818 94.1098 35.2872 54.8205 35.2031 46.4597C35.2031 46.27 35.3093 46.1163 35.4903 46.054C38.6876 44.9513 44.6637 42.889 47.1071 42.0459Z" fill="#FF87A8"/>
<path d="M219.283 40.6538C219.781 40.6397 220.51 40.7248 221.486 41.0186C225.928 42.3565 229.522 44.3061 231.886 46.4551C234.25 48.6042 235.337 50.8442 235.232 52.9752C235.09 55.8652 234.661 60.0829 232.747 64.3383C231.093 68.0088 228.362 71.7032 223.63 74.6953C220.71 76.5437 217.805 77.759 215.131 78.5673C215.965 76.7421 216.857 74.9215 217.818 73.1066C217.82 73.0978 217.823 73.089 217.825 73.0801C217.921 72.8938 217.981 72.6914 218.004 72.4832C218.006 72.4779 218.007 72.4727 218.009 72.4674C218.015 72.403 218.017 72.3384 218.016 72.2737C218.014 72.1926 218.006 72.1117 217.993 72.0316C217.967 71.8713 217.918 71.7156 217.847 71.5691C217.846 71.5671 217.844 71.5651 217.843 71.5631C217.808 71.492 217.769 71.4234 217.725 71.3577C217.724 71.3563 217.722 71.3549 217.721 71.3535C217.69 71.3071 217.657 71.2622 217.622 71.219C217.617 71.2149 217.612 71.2108 217.607 71.2067C217.49 71.0679 217.353 70.9484 217.199 70.8527C214.833 69.3969 209.927 66.1501 207.85 63.8768C206.279 62.1596 204.982 60.2952 204.765 59.4145C204.657 58.9741 204.689 58.971 204.787 58.8519C204.885 58.7327 205.341 58.3841 206.489 58.1598C207.769 57.9092 210.789 58.5754 213.75 59.7651C216.71 60.9549 219.71 62.5347 221.616 63.5996C222.876 64.3071 223.648 64.7792 223.648 64.7792C224.02 65.0044 224.462 65.08 224.887 64.9907C225.312 64.9013 225.687 64.6538 225.936 64.2983C226.185 63.9427 226.29 63.5058 226.228 63.0761C226.167 62.6463 225.945 62.256 225.606 61.9841C225.606 61.9841 224.879 61.4037 223.75 60.4748C223.749 60.4748 223.747 60.4748 223.746 60.4748C222.057 59.0898 219.484 56.9452 217.171 54.8847C214.858 52.8243 212.718 50.6498 212.296 49.9983C211.597 48.9166 211.412 47.2335 211.741 46.649C211.906 46.3567 212.086 46.1472 212.823 46.017C213.56 45.8868 214.859 45.9606 216.747 46.5705C221.792 48.2009 226.065 51.7839 228.318 54.0048C229.46 55.1254 230.051 55.8539 230.051 55.8539C230.193 56.0279 230.368 56.1723 230.565 56.2787C230.763 56.3852 230.98 56.4516 231.203 56.4742C231.427 56.4969 231.652 56.4753 231.868 56.4107C232.083 56.3461 232.283 56.2397 232.457 56.0977C232.631 55.9558 232.775 55.7809 232.882 55.5832C232.988 55.3854 233.054 55.1686 233.077 54.9452C233.1 54.7218 233.078 54.4961 233.014 54.281C232.949 54.0659 232.843 53.8657 232.701 53.6917C232.701 53.6917 231.967 52.7958 230.717 51.5679C228.261 49.1472 223.71 45.246 217.862 43.338C217.809 42.3412 217.933 41.4638 218.154 41.1248C218.302 40.8988 218.398 40.7917 218.859 40.7007C218.974 40.6781 219.114 40.6622 219.28 40.6573L219.283 40.6538Z" fill="white"/>
<path d="M47.2933 36.3828C47.2771 36.8827 47.2461 37.837 47.2282 38.3873C45.8414 38.8657 37.9161 41.6005 34.3791 42.8203C32.8213 43.3564 31.7692 44.8445 31.7853 46.4927C31.8464 52.5658 32.0154 69.388 32.1367 81.4559C29.6105 70.0313 27.8032 56.5394 26.6852 42.6925C26.6681 42.4784 26.7863 42.3085 26.9941 42.2484C31.9279 40.8216 44.4753 37.197 47.2933 36.3828Z" fill="#00A07E"/>
<path d="M186.923 35.7481C186.584 35.7497 186.254 35.8515 185.974 36.0406C185.694 36.2298 185.476 36.4978 185.348 36.8108C185.263 37.0186 185.22 37.2411 185.221 37.4657C185.222 37.6902 185.267 37.9123 185.354 38.1194C185.441 38.3264 185.567 38.5144 185.727 38.6725C185.886 38.8305 186.075 38.9557 186.283 39.0407L190.985 40.9642C191.193 41.0492 191.415 41.0924 191.64 41.0913C191.864 41.0903 192.087 41.0451 192.294 40.9582C192.501 40.8713 192.689 40.7444 192.847 40.5848C193.005 40.4253 193.13 40.2362 193.215 40.0283C193.3 39.8205 193.343 39.598 193.342 39.3735C193.341 39.1489 193.296 38.9268 193.209 38.7197C193.122 38.5127 192.995 38.3247 192.836 38.1667C192.677 38.0086 192.488 37.8835 192.28 37.7984L187.578 35.875C187.37 35.79 187.147 35.7469 186.923 35.7481Z" fill="#070922"/>
<path d="M196.466 34.7744L197.896 35.4314C197.243 35.7065 196.707 35.7582 196.601 35.737C196.485 35.7139 196.605 35.9885 196.501 35.4089C196.473 35.2548 196.461 35.0404 196.466 34.7744Z" fill="white"/>
<path d="M92.9658 30.6582C90.8105 33.9396 89.134 38.5707 88.4343 43.827C87.003 54.5785 90.1906 63.8874 95.5463 64.6004C98.3109 64.9684 101.114 62.9753 103.378 59.4853C101.021 55.6253 99.2734 51.0627 98.1402 45.7922C100.566 48.9265 103.166 51.7459 105.958 54.2066C106.818 51.8612 107.471 49.2239 107.845 46.4108C108.545 41.152 108.138 36.2415 106.914 32.5099C107.621 33.7165 108.257 35.1155 108.803 36.7083C110.711 42.2825 111.404 49.9326 110.31 58.1554C109.799 61.9894 108.936 65.587 107.836 68.8456C107.313 68.9524 106.799 69.0758 106.296 69.2162C105.546 68.4523 104.619 67.8585 103.486 67.5323C100.726 66.7382 98.1503 67.9151 96.1917 69.7589C95.0773 70.8078 94.088 72.1273 93.273 73.6551L82.8409 65.3968C82.7536 65.3333 82.6605 65.2783 82.5629 65.2324C82.3746 61.8694 82.4855 58.2596 82.9836 54.518C84.0782 46.2952 86.7488 39.0921 90.0489 34.2113C90.9904 32.8188 91.9698 31.637 92.9658 30.6582Z" fill="white"/>
<path d="M124.804 30.1836C125.482 31.2972 126.091 32.6152 126.611 34.1316C128.3 39.0672 128.92 45.8642 127.948 53.1643C127.745 54.6879 127.477 56.1688 127.16 57.6031C124.58 57.0641 122.185 58.2088 120.339 59.9465C118.381 61.7903 116.806 64.4671 115.891 67.648C115.82 67.8963 115.755 68.1438 115.693 68.391C115.142 68.3559 114.597 68.3336 114.06 68.3234C113.176 68.3067 112.313 68.3234 111.471 68.3768C112.396 65.3234 113.114 62.0395 113.573 58.5899C113.783 57.0091 113.93 55.4484 114.022 53.9131C117.63 53.2201 120.464 51.6783 122.417 49.1746C122.255 45.832 121.532 42.4848 120.25 39.1423C122.114 40.51 123.575 42.3698 124.674 44.6865C125.781 41.0196 125.86 36.2237 124.804 30.1836Z" fill="white"/>
<path d="M198.604 26.9043L203.411 29.767C203.31 29.9203 203.206 30.0844 203.107 30.2328C202.319 31.4077 201.565 32.4116 200.995 33.093L197.119 31.3114C197.58 29.7871 198.083 28.3141 198.604 26.9043Z" fill="white"/>
<path d="M201.856 19.6163C203.71 20.8428 205.54 22.0692 207.379 23.2955C207.216 23.5862 207.058 23.8664 206.73 24.4208C206.247 25.2372 205.747 26.064 205.247 26.8786L199.877 23.6803C200.474 22.2613 201.077 20.9417 201.662 19.7507C201.666 19.743 201.669 19.7358 201.672 19.7281C201.734 19.6913 201.794 19.6527 201.856 19.6163Z" fill="white"/>
<path d="M33.2239 4.65226C33.2254 4.65226 33.2268 4.65226 33.2282 4.65226C33.4149 4.60635 33.5895 4.67834 33.6907 4.84427L42.3363 19.014L8.78977 26.5577L3.44678 12.3979C3.40391 12.2844 3.4136 12.1516 3.46703 12.0515C3.46845 12.0495 3.46978 12.0475 3.4712 12.0455C3.52925 11.9352 3.62839 11.8578 3.74837 11.8285L33.2239 4.65226Z" fill="#FFB900"/>
<path d="M126.322 3.63551C126.472 3.60174 126.614 3.64359 126.718 3.74571L130.628 7.58515C99.4672 14.5097 60.439 23.1821 50.8671 25.3105C48.9695 25.7298 47.585 27.4015 47.5219 29.3436C47.5052 29.8572 47.4326 32.0994 47.41 32.7907C45.7777 33.2623 31.238 37.4629 26.0431 38.9652C24.2992 39.4694 23.1311 41.1546 23.2756 42.9666C24.6531 60.0289 27.0365 76.6245 30.618 89.6793C32.4088 96.2068 34.4934 101.85 36.9603 106.263C39.1672 110.212 41.6898 113.232 44.7377 114.862C44.7334 114.961 44.6993 116.035 44.6967 116.106C36.2234 109.75 30.3193 100.488 28.7679 85.3699C28.7299 85.0015 28.5734 84.6555 28.3218 84.3837C28.0702 84.112 27.7372 83.9293 27.3729 83.863C27.0085 83.7966 26.6324 83.8503 26.3012 84.0161C25.9699 84.1819 25.7015 84.4507 25.5362 84.7822C21.3717 93.1392 22.9215 102.979 27.9848 113.512C22.7089 116.185 17.3766 121.134 14.8527 124.358C7.63758 116.32 3.96467 107.275 4.13663 96.7972C4.32009 85.6194 8.97022 72.7173 18.8959 57.9169V57.9127C19.5897 56.8803 19.7407 55.5746 19.3008 54.4113L10.0089 29.7885L126.322 3.63551Z" fill="#FFB900"/>
</svg>
