<svg width="6063" height="1972" viewBox="0 0 6063 1972" fill="none" xmlns="http://www.w3.org/2000/svg">
<path d="M1857.24 692.087C1847.55 688.362 1837.12 684.637 1827.44 680.168C1584.57 580.34 1390.13 385.9 1290.31 143.036C1286.58 133.352 1282.86 123.667 1279.13 114.727C1245.61 49.1687 1127.16 0 985.609 0C844.063 0 724.866 48.4237 692.087 114.727C688.362 124.412 684.637 134.097 680.912 143.781C753.92 340.456 857.473 522.232 986.354 683.147C994.549 693.577 1003.49 704.007 1011.68 714.437C1020.62 724.866 1028.82 735.296 1037.76 744.981C1042.97 750.941 1048.19 756.901 1053.4 762.86C1069.05 780.74 1084.69 797.875 1101.08 814.264C1141.31 855.983 1183.77 896.212 1226.98 934.951C1247.1 952.831 1267.96 969.965 1288.82 986.355C1219.53 1041.48 1154.72 1101.83 1093.63 1165.9C1071.28 1184.52 1045.21 1200.91 1037.76 1195.69L1051.17 1212.08L1063.09 1226.98C1180.79 1373.74 1276.9 1535.41 1349.9 1708.24C1457.93 1522 1626.29 1374.49 1827.44 1291.8C1837.12 1288.07 1846.81 1283.6 1857.24 1279.88C1922.8 1246.35 1971.22 1127.16 1971.22 986.355C1971.22 844.063 1922.8 725.611 1857.24 692.087Z" fill="#722FFF"/>
<path d="M959.535 1257.53C950.596 1247.1 942.401 1236.67 933.461 1226.98C928.246 1221.02 923.031 1215.06 917.816 1209.1C902.172 1191.22 886.527 1174.09 870.138 1157.7C829.909 1115.98 787.445 1075.75 744.236 1037.76C724.121 1019.88 703.262 1002.74 682.402 986.355C750.941 931.972 815.009 872.373 875.352 809.05C897.702 789.68 924.521 772.546 932.716 778.506L920.051 760.626L908.132 745.726C790.425 598.965 694.322 437.304 621.314 264.469C513.292 450.714 344.926 598.22 143.781 680.913C134.097 684.638 124.412 689.108 113.982 692.833C48.4237 726.357 0 845.554 0 986.355C0 1127.9 48.4237 1246.35 113.982 1279.88C123.667 1283.6 134.097 1287.33 143.781 1291.8C386.645 1391.62 581.085 1586.06 680.912 1828.93C684.637 1838.61 688.362 1848.3 692.087 1857.24C725.611 1922.8 844.063 1971.96 985.61 1971.96C1127.16 1971.96 1246.35 1923.54 1279.13 1857.24C1282.86 1847.55 1286.58 1837.87 1290.31 1828.18C1217.3 1631.51 1113.75 1449.73 984.865 1288.82C976.67 1278.39 968.475 1267.96 959.535 1257.53Z" fill="#722FFF"/>
<path d="M2670.47 530.955C2836.13 530.955 2936.39 632.311 2936.39 793.609C2936.39 948.367 2837.22 1057.35 2669.38 1057.35H2500.46V1329.81H2351.15V530.955H2500.46H2670.47ZM2642.14 927.66C2739.13 927.66 2779.46 863.359 2779.46 790.339C2779.46 724.948 2739.13 662.827 2643.23 662.827H2500.46V927.66H2642.14ZM2970.44 1058.44C2970.44 891.695 3083.78 773.991 3253.8 773.991C3423.81 773.991 3536.07 891.695 3536.07 1058.44C3536.07 1226.28 3423.81 1342.89 3253.8 1342.89C3083.78 1342.89 2970.44 1226.28 2970.44 1058.44ZM3114.3 1058.44C3114.3 1151.08 3168.79 1215.38 3253.8 1215.38C3337.71 1215.38 3393.3 1151.08 3393.3 1058.44C3393.3 965.805 3337.71 901.504 3253.8 901.504C3168.79 901.504 3114.3 965.805 3114.3 1058.44ZM3635.2 1329.81V515.697H3777.97V1329.81H3635.2ZM4286.12 789.249H4434.34L4174.96 1457.33C4108.48 1629.52 3968.98 1608.82 3865.44 1570.67L3903.58 1442.07C3962.44 1478.03 4032.19 1481.3 4058.34 1407.19L4075.78 1361.42L3844.73 789.249H3995.13L4142.26 1179.42L4286.12 789.249ZM4809.77 648.659C4702.96 627.952 4680.08 670.456 4680.08 729.308V789.249H4808.68V906.953H4680.08V1329.81H4538.4L4537.31 906.953H4461.02V789.249H4537.31V729.308C4537.31 579.998 4619.04 515.697 4742.2 515.697C4761.81 515.697 4783.61 517.877 4809.77 522.236V648.659ZM5385.27 1059.53V1109.66H4977.66C4986.38 1190.31 5049.59 1223.01 5114.99 1223.01C5180.38 1223.01 5221.79 1192.49 5245.77 1145.63L5363.47 1192.49C5324.24 1287.31 5228.33 1343.98 5114.99 1343.98C4954.78 1343.98 4843.61 1230.64 4843.61 1059.53C4843.61 889.515 4952.6 772.902 5117.17 772.902C5278.46 772.902 5385.27 886.246 5385.27 1059.53ZM5114.99 890.605C5040.88 890.605 4992.92 933.109 4979.84 1011.58H5240.32C5234.87 929.84 5184.74 890.605 5114.99 890.605ZM5781.4 772.902C5921.99 772.902 6001.55 855.73 6001.55 997.411V1329.81H5859.87V1027.93C5859.87 916.762 5787.94 902.594 5750.89 902.594C5700.75 902.594 5626.64 927.66 5626.64 1031.2V1329.81H5484.96V789.249H5619.02L5623.37 842.652C5653.89 801.238 5713.83 772.902 5781.4 772.902Z" fill="#060819"/>
</svg>
