<?xml version="1.0" encoding="utf-8"?>
<!-- Generator: Adobe Illustrator 16.0.3, SVG Export Plug-In . SVG Version: 6.00 Build 0)  -->
<!DOCTYPE svg PUBLIC "-//W3C//DTD SVG 1.1//EN" "http://www.w3.org/Graphics/SVG/1.1/DTD/svg11.dtd">
<svg version="1.1" id="Capa_1" xmlns="http://www.w3.org/2000/svg" xmlns:xlink="http://www.w3.org/1999/xlink" x="0px" y="0px"
	 width="20px" height="20px" viewBox="-0.125 -0.125 63.75 63.75" enable-background="new -0.125 -0.125 63.75 63.75"
	 xml:space="preserve">
<g>
	<path opacity="0.5023" enable-background="new    " d="M31.813,0C14.241,0,0,14.241,0,31.813c0,17.569,14.241,31.813,31.813,31.813
		c17.569,0,31.813-14.243,31.813-31.813C63.625,14.241,49.382,0,31.813,0z M31.813,2.121c16.4,0,29.691,13.291,29.691,29.691
		S48.213,61.504,31.813,61.504S2.121,48.213,2.121,31.813S15.412,2.121,31.813,2.121z"/>
	<path fill="#FFFFFF" d="M31.813,2.121c16.4,0,29.691,13.291,29.691,29.691S48.213,61.504,31.813,61.504S2.121,48.213,2.121,31.813
		S15.412,2.121,31.813,2.121z"/>
	<path fill="#0A2D4D" d="M27.571,20.151c0-0.588,0.455-1.063,1.04-1.063h6.402c0.575,0,1.04,0.465,1.04,1.052v11.894
		c0,0.581-0.351,1.366-0.79,1.763l-0.54,0.487c-0.438,0.393-0.459,1.042-0.048,1.453l0.636,0.636
		c0.411,0.411,0.742,1.229,0.742,1.807v5.295c0,0.587-0.455,1.063-1.04,1.063h-6.402c-0.575,0-1.04-0.457-1.04-1.06V31.811
		c0-0.585,0.331-1.39,0.742-1.801l0.636-0.637c0.411-0.41,0.411-1.073,0-1.484l-0.636-0.636c-0.411-0.411-0.742-1.229-0.742-1.807
		V20.151z"/>
	<path fill="#198CFF" d="M31.813,8.483c12.884,0,23.329,10.443,23.329,23.329c0,12.884-10.445,23.329-23.329,23.329
		c-12.886,0-23.329-10.445-23.329-23.329C8.483,18.927,18.927,8.483,31.813,8.483z M31.813,14.846
		c-9.371,0-16.967,7.596-16.967,16.967s7.596,16.967,16.967,16.967s16.967-7.596,16.967-16.967S41.184,14.846,31.813,14.846z"/>
</g>
</svg>
