<svg width="20" height="20" viewBox="0 0 20 20" fill="none" xmlns="http://www.w3.org/2000/svg">
<path d="M11.8197 6.76318L13.64 9.73986L16.0078 5.86518L14.7164 3.62874C14.4331 3.13763 13.9091 2.83496 13.3416 2.83496H11.1244L8.72168 6.76318H11.8197Z" fill="#4286F5"/>
<path d="M11.8197 12.7183H8.72168L11.123 16.6466H13.3409C13.9084 16.6466 14.4323 16.3439 14.7157 15.8528L16.0085 13.6142L13.64 9.74023L11.8197 12.7183Z" fill="#4286F5"/>
<path d="M8.72192 6.76318L11.124 2.83496H7.20003C6.63253 2.83496 6.10858 3.13763 5.82519 3.62874L4.01562 6.76318H8.72192Z" fill="#1967D3"/>
<path d="M17.7863 8.9464L16.0074 5.86621L13.6396 9.74089L16.0081 13.6149L17.7863 10.5354C18.0704 10.0428 18.0704 9.43751 17.7863 8.9464Z" fill="#1967D3"/>
<path d="M8.72192 12.7178H4.01562L5.82519 15.8522C6.10858 16.3433 6.63253 16.646 7.20003 16.646H11.1225L8.72192 12.7178Z" fill="#1967D3"/>
<path d="M6.90119 9.74035L8.72146 6.76367H4.01516L2.75454 8.94657C2.47114 9.43769 2.47114 10.043 2.75454 10.5348L4.01516 12.7192H8.72146L6.90119 9.74035Z" fill="#4286F5"/>
</svg>
