<?xml version="1.0" encoding="utf-8"?>
<!-- Generator: Adobe Illustrator 16.0.3, SVG Export Plug-In . SVG Version: 6.00 Build 0)  -->
<!DOCTYPE svg PUBLIC "-//W3C//DTD SVG 1.1//EN" "http://www.w3.org/Graphics/SVG/1.1/DTD/svg11.dtd">
<svg version="1.1" id="Capa_1" xmlns="http://www.w3.org/2000/svg" xmlns:xlink="http://www.w3.org/1999/xlink" x="0px" y="0px"
	 width="20px" height="18.5px" viewBox="0 0 213.5 198" enable-background="new 0 0 213.5 198" xml:space="preserve">
<path fill="#F06A6A" d="M167.197,104.555c-25.664,0-46.468,20.805-46.468,46.469s20.804,46.47,46.468,46.47
	s46.468-20.806,46.468-46.47S192.861,104.555,167.197,104.555L167.197,104.555z M46.469,104.559C20.804,104.559,0,125.359,0,151.023
	s20.805,46.47,46.469,46.47s46.47-20.806,46.47-46.47S72.133,104.559,46.469,104.559L46.469,104.559z M153.3,46.467
	c0,25.666-20.804,46.473-46.467,46.473c-25.665,0-46.469-20.807-46.469-46.473C60.364,20.807,81.168,0,106.833,0
	C132.496,0,153.3,20.807,153.3,46.467L153.3,46.467z"/>
</svg>
