<svg width="20" height="20" viewBox="0 0 20 20" fill="none" xmlns="http://www.w3.org/2000/svg">
<path d="M6.82019 9.50099C6.57968 9.24266 6.19657 9.26049 6.03621 9.59012L2.05372 17.5462C1.89336 17.8669 2.125 18.2322 2.48137 18.2322H8.02298C8.20116 18.2322 8.36152 18.1431 8.45065 17.9649C9.64446 15.497 8.92281 11.7372 6.82019 9.50099Z" fill="url(#paint0_linear_64_57)"/>
<path d="M9.74289 2.25727C7.51555 5.78537 7.66706 9.69653 9.12818 12.6278C10.5893 15.5589 11.7208 17.8129 11.801 17.9734C11.8812 18.1337 12.0504 18.2406 12.2286 18.2406H17.7702C18.1266 18.2406 18.3583 17.8664 18.1979 17.5546C18.1979 17.5546 10.7408 2.63146 10.5537 2.25727C10.3844 1.91871 9.95672 1.9098 9.74289 2.25727Z" fill="#2681FF"/>
<defs>
<linearGradient id="paint0_linear_64_57" x1="9.00457" y1="10.7258" x2="4.80166" y2="18.0054" gradientUnits="userSpaceOnUse">
<stop stop-color="#0052CC"/>
<stop offset="0.9228" stop-color="#2684FF"/>
</linearGradient>
</defs>
</svg>
