<svg width="20" height="20" viewBox="0 0 20 20" fill="none" xmlns="http://www.w3.org/2000/svg">
<g clip-path="url(#clip0_64_117)">
<path d="M14.2101 5.78906H5.78906V14.2101H14.2101V5.78906Z" fill="white"/>
<path d="M14.2101 18.0004L17.9996 14.211L16.1048 13.8877L14.2101 14.211L13.8643 15.9441L14.2101 18.0004Z" fill="#EA4335"/>
<path d="M2 14.211V16.7373C2 17.4352 2.56526 18.0004 3.26316 18.0004H5.78947L6.17855 16.1057L5.78947 14.211L3.72495 13.8877L2 14.211Z" fill="#188038"/>
<path d="M17.9996 5.78947V3.26316C17.9996 2.56526 17.4343 2 16.7364 2H14.2101C13.9795 2.93974 13.8643 3.63132 13.8643 4.07473C13.8643 4.51815 13.9795 5.08973 14.2101 5.78947C15.0482 6.02947 15.6798 6.14947 16.1048 6.14947C16.5299 6.14947 17.1615 6.02947 17.9996 5.78947Z" fill="#1967D2"/>
<path d="M18.0004 5.78906H14.2109V14.2101H18.0004V5.78906Z" fill="#FBBC04"/>
<path d="M14.2101 14.2109H5.78906V18.0004H14.2101V14.2109Z" fill="#34A853"/>
<path d="M14.2105 2H3.26316C2.56526 2 2 2.56526 2 3.26316V14.2105H5.78947V5.78947H14.2105V2Z" fill="#4285F4"/>
<path d="M7.51681 12.3219C7.20208 12.1093 6.98418 11.7988 6.86523 11.3883L7.59576 11.0872C7.66208 11.3398 7.77787 11.5356 7.94313 11.6746C8.10734 11.8135 8.30734 11.8819 8.54102 11.8819C8.77997 11.8819 8.98523 11.8093 9.15681 11.664C9.32839 11.5188 9.41471 11.3335 9.41471 11.1093C9.41471 10.8798 9.32418 10.6925 9.14313 10.5472C8.96208 10.4019 8.73471 10.3293 8.46313 10.3293H8.04102V9.60615H8.41997C8.65366 9.60615 8.8505 9.54299 9.0105 9.41668C9.1705 9.29036 9.2505 9.11773 9.2505 8.89773C9.2505 8.70194 9.17892 8.54615 9.03576 8.42931C8.8926 8.31247 8.71155 8.25352 8.49155 8.25352C8.27681 8.25352 8.10629 8.31036 7.97997 8.4251C7.85374 8.54014 7.75884 8.68539 7.70418 8.8472L6.98102 8.54615C7.07681 8.27457 7.2526 8.03457 7.5105 7.8272C7.76839 7.61984 8.09787 7.51562 8.49787 7.51562C8.79366 7.51562 9.05997 7.57247 9.29576 7.6872C9.53155 7.80194 9.71681 7.96089 9.8505 8.16299C9.98418 8.36615 10.0505 8.59352 10.0505 8.84615C10.0505 9.10405 9.98839 9.32194 9.86418 9.50089C9.73997 9.67984 9.58734 9.81668 9.40629 9.91247V9.95563C9.64007 10.052 9.84314 10.2103 9.99366 10.4135C10.1463 10.6188 10.2231 10.864 10.2231 11.1504C10.2231 11.4367 10.1505 11.6925 10.0052 11.9167C9.85997 12.1409 9.65892 12.3177 9.40418 12.4462C9.14839 12.5746 8.86102 12.6398 8.54208 12.6398C8.1726 12.6409 7.83155 12.5346 7.51681 12.3219ZM12.0042 8.69668L11.2021 9.27668L10.801 8.66826L12.24 7.63036H12.7916V12.5262H12.0042V8.69668Z" fill="#4285F4"/>
</g>
<defs>
<clipPath id="clip0_64_117">
<rect width="16" height="16" fill="white" transform="translate(2 2)"/>
</clipPath>
</defs>
</svg>
