<svg width="20px" height="20px" viewBox="0 0 384 384" fill="none" xmlns="http://www.w3.org/2000/svg">
<path d="M300.8 0H83.2C37.2499 0 0 37.2499 0 83.2V300.8C0 346.75 37.2499 384 83.2 384H300.8C346.75 384 384 346.75 384 300.8V83.2C384 37.2499 346.75 0 300.8 0Z" fill="#03A9F4"/>
<path d="M246.804 109.764C253.517 103.043 252.072 91.7483 243.207 88.3469C230.836 83.6006 217.405 81 203.366 81C141.86 81 92 130.92 92 192.5C92 254.08 141.86 304 203.366 304C217.318 304 230.67 301.431 242.978 296.741C251.866 293.353 253.326 282.036 246.6 275.303C242.242 270.94 235.647 269.922 229.799 271.868C221.51 274.627 212.645 276.121 203.431 276.121C157.301 276.121 119.906 238.681 119.906 192.496C119.906 146.311 157.301 108.871 203.431 108.871C212.711 108.871 221.638 110.386 229.979 113.183C235.831 115.146 242.44 114.134 246.804 109.764Z" fill="white"/>
<path d="M219 193C219 200.732 212.732 207 205 207C197.268 207 191 200.732 191 193C191 185.268 197.268 179 205 179C212.732 179 219 185.268 219 193Z" fill="white"/>
<path d="M227.792 171.667C222.736 166.654 222.736 158.526 227.792 153.513L269.9 111.76C274.956 106.747 283.153 106.747 288.208 111.76C293.264 116.773 293.264 124.9 288.208 129.913L246.1 171.667C241.044 176.68 232.847 176.68 227.792 171.667Z" fill="white"/>
<path d="M227.792 213.333C222.736 218.346 222.736 226.474 227.792 231.487L269.9 273.24C274.956 278.253 283.153 278.253 288.208 273.24C293.264 268.227 293.264 260.1 288.208 255.087L246.1 213.333C241.044 208.32 232.847 208.32 227.792 213.333Z" fill="white"/>
</svg>
