<svg width="20" height="20" viewBox="0 0 20 20" fill="none" xmlns="http://www.w3.org/2000/svg">
<path d="M3.45441 13.9704C3.29967 14.2228 3.12589 14.5156 2.9902 14.7489C2.92669 14.8562 2.90782 14.9841 2.93765 15.1052C2.96747 15.2263 3.04361 15.3308 3.1497 15.3964L6.24444 17.3009C6.29822 17.3341 6.35807 17.3562 6.4205 17.3661C6.48294 17.3759 6.5467 17.3732 6.60808 17.3581C6.66946 17.343 6.72723 17.3159 6.77801 17.2783C6.82879 17.2407 6.87157 17.1933 6.90386 17.139C7.02527 16.9319 7.18477 16.6629 7.35855 16.3748C8.58455 14.3513 9.82007 14.5989 12.0411 15.6606L15.1097 17.1199C15.1672 17.1473 15.2297 17.1629 15.2933 17.1657C15.357 17.1685 15.4205 17.1585 15.4802 17.1363C15.5399 17.1141 15.5946 17.0801 15.6409 17.0364C15.6873 16.9927 15.7244 16.9402 15.7501 16.8819L17.2237 13.5491C17.2737 13.4347 17.2768 13.3052 17.2323 13.1885C17.1877 13.0718 17.0991 12.9773 16.9856 12.9254C16.3381 12.6206 15.0502 12.0112 13.8908 11.4542C9.71056 9.42115 6.16588 9.55446 3.45441 13.9704Z" fill="url(#paint0_linear_64_111)"/>
<path d="M17.3312 6.40035C17.4859 6.14801 17.6597 5.85282 17.8073 5.6219C17.8706 5.5143 17.8891 5.38614 17.8588 5.26503C17.8285 5.14392 17.7519 5.03954 17.6454 4.97438L14.5507 3.06992C14.497 3.0371 14.4373 3.01524 14.3751 3.00561C14.313 2.99598 14.2495 2.99877 14.1884 3.01382C14.1273 3.02888 14.0698 3.05589 14.0192 3.09331C13.9686 3.13072 13.9259 3.17779 13.8936 3.2318C13.7698 3.43891 13.6103 3.70792 13.4366 3.99597C12.2106 6.01946 10.9774 5.77188 8.75397 4.71014L5.67588 3.25799C5.61848 3.23099 5.55626 3.21573 5.49287 3.21311C5.42949 3.2105 5.36622 3.22057 5.30679 3.24275C5.24735 3.26493 5.19295 3.29876 5.14677 3.34226C5.10059 3.38575 5.06357 3.43804 5.03789 3.49605L3.56431 6.82885C3.51427 6.94326 3.51118 7.07275 3.55571 7.18942C3.60024 7.30609 3.68882 7.40059 3.80237 7.45256C4.44989 7.75728 5.74016 8.36432 6.89712 8.92376C11.075 10.9401 14.6197 10.8068 17.3312 6.40035Z" fill="url(#paint1_linear_64_111)"/>
<defs>
<linearGradient id="paint0_linear_64_111" x1="17.1308" y1="18.2769" x2="7.76801" y2="12.8944" gradientUnits="userSpaceOnUse">
<stop stop-color="#0050D3"/>
<stop offset="0.94" stop-color="#007FFC"/>
<stop offset="1" stop-color="#0082FF"/>
</linearGradient>
<linearGradient id="paint1_linear_64_111" x1="3.65478" y1="2.08675" x2="13.0176" y2="7.46685" gradientUnits="userSpaceOnUse">
<stop stop-color="#0050D3"/>
<stop offset="0.94" stop-color="#007FFC"/>
<stop offset="1" stop-color="#0082FF"/>
</linearGradient>
</defs>
</svg>
