<svg width="20" height="20" viewBox="0 0 20 20" fill="none" xmlns="http://www.w3.org/2000/svg">
<path d="M11.1818 1H4.22683C3.5731 1 3 1.57238 3 2.22755V17.7724C3 18.4269 3.57238 19 4.22755 19H14.8637C15.5181 19 16.0912 18.4276 16.0912 17.7724V5.90876L13.2279 3.86333L11.1818 1Z" fill="#4285F4"/>
<path d="M6.27246 14.0909H12.8177V13.273H6.27318L6.27246 14.0909ZM6.27246 15.7274H11.1812V14.9095H6.27246V15.7274ZM6.27246 10V10.8179H12.8177V10H6.27246ZM6.27246 12.4544H12.8177V11.6365H6.27318L6.27246 12.4544Z" fill="#F1F1F1"/>
<path d="M11.1816 1V4.68193C11.1816 5.33639 11.754 5.90876 12.4085 5.90876H16.0904L11.1816 1Z" fill="#A1C2FA"/>
</svg>
