<svg width="20" height="20" viewBox="0 0 20 20" fill="none" xmlns="http://www.w3.org/2000/svg">
<path d="M5.1 16.5273V9.42734L1 6.27734V15.0273C1 16.0273 1.5 16.5273 2.5 16.5273" fill="#4285F4"/>
<path d="M4.90039 9.37754L10.0004 13.2275L15.1004 9.37754V4.47754L10.0004 8.32754L4.90039 4.47754" fill="#EA4335"/>
<path d="M14.9004 16.5273V9.42734L19.0004 6.27734V15.0273C19.0004 16.0273 18.5004 16.5273 17.5004 16.5273" fill="#34A853"/>
<path d="M1 6.37769L5.1 9.52769V4.62769L3.6 3.47769C2.25 2.42769 1 3.47769 1 4.77769" fill="#C5221F"/>
<path d="M19.0004 6.37769L14.9004 9.52769V4.62769L16.4004 3.47769C17.7504 2.42769 19.0004 3.47769 19.0004 4.77769" fill="#FBBC04"/>
</svg>
