<svg width="20" height="20" viewBox="0 0 20 20" fill="none" xmlns="http://www.w3.org/2000/svg">
<path d="M17.6194 10.1823C17.6194 9.61498 17.5685 9.06953 17.4739 8.5459H9.93945V11.6441H14.2449C14.0558 12.6404 13.4885 13.484 12.6376 14.0513V16.0658H15.234C16.7467 14.6695 17.6194 12.6186 17.6194 10.1823Z" fill="#4285F4"/>
<path d="M9.93962 18C12.0996 18 13.9105 17.2873 15.2341 16.0655L12.6378 14.051C11.9251 14.531 11.016 14.8219 9.93962 14.8219C7.85964 14.8219 6.09238 13.4182 5.45965 11.5273H2.79785V13.5928C4.11421 16.2037 6.81237 18 9.93962 18Z" fill="#34A853"/>
<path d="M5.45943 11.5205C5.29943 11.0405 5.20489 10.5314 5.20489 10.0005C5.20489 9.46956 5.29943 8.96048 5.45943 8.48048V6.41504H2.79763C2.25218 7.4914 1.93945 8.70593 1.93945 10.0005C1.93945 11.295 2.25218 12.5095 2.79763 13.5859L4.87034 11.9714L5.45943 11.5205Z" fill="#FBBC05"/>
<path d="M9.93962 5.18543C11.1178 5.18543 12.1651 5.5927 13.0014 6.37815L15.2923 4.08726C13.9032 2.79272 12.0996 2 9.93962 2C6.81237 2 4.11421 3.79635 2.79785 6.41452L5.45965 8.47996C6.09238 6.58906 7.85964 5.18543 9.93962 5.18543Z" fill="#EA4335"/>
</svg>
