<svg width="20" height="20" viewBox="0 0 20 20" fill="none" xmlns="http://www.w3.org/2000/svg">
<path d="M2 15.043C2 15.6216 2.4727 16.0902 3.05511 16.0902H3.07027C2.47895 16.0902 2 15.6216 2 15.043Z" fill="#FBBC05"/>
<path d="M11.0672 6.9273V9.66158L14.7534 6.68818V4.04727C14.7534 3.46866 14.2807 3 13.6983 3H5.71221L5.70508 6.9273H11.0672Z" fill="#FBBC05"/>
<path d="M11.0667 12.3974H5.69571L5.68945 16.0916H13.6979C14.2811 16.0916 14.753 15.623 14.753 15.0444V12.6601L11.0667 9.66309V12.3974Z" fill="#34A853"/>
<path d="M5.71206 3L2 6.92731H5.70581L5.71206 3Z" fill="#EA4335"/>
<path d="M2 12.3975V15.0445C2 15.6231 2.47895 16.0917 3.07027 16.0917H5.68981L5.69599 12.3975H2Z" fill="#1967D2"/>
<path d="M5.70581 6.92773H2V12.3972H5.69599L5.70581 6.92773Z" fill="#4285F4"/>
<path d="M17.9952 14.1114V5.12227C17.7873 3.92924 16.4789 5.29681 16.4789 5.29681L14.7549 6.68708V12.6574L17.2228 14.6638C18.1138 14.7807 17.9952 14.1114 17.9952 14.1114Z" fill="#34A853"/>
<path d="M11.0684 9.66192L14.7555 12.6598V6.68945L11.0684 9.66192Z" fill="#188038"/>
</svg>
