<svg width="20" height="20" viewBox="0 0 20 20" fill="none" xmlns="http://www.w3.org/2000/svg">
<path d="M11.181 1H4.22737C3.55168 1 3 1.55595 3 2.23165V17.7726C3 18.4483 3.55168 19 4.22737 19H14.8589C15.5346 19 16.0862 18.4483 16.0862 17.7726V5.90948L13.221 3.86529L11.181 1Z" fill="#0F9D58"/>
<path d="M6.27637 9.79199V15.7278H12.8195V9.79199H6.27637ZM9.13738 14.9067H7.09319V13.8847H9.13738V14.9067ZM9.13738 13.2688H7.09319V12.2467H9.13738V13.2688ZM9.13738 11.6352H7.09319V10.6131H9.13738V11.6352ZM12.0027 14.9067H9.95848V13.8847H12.0027V14.9067ZM12.0027 13.2688H9.95848V12.2467H12.0027V13.2688ZM12.0027 11.6352H9.95848V10.6131H12.0027V11.6352Z" fill="#F1F1F1"/>
<path d="M11.54 5.55078L16.086 10.101V5.91001L11.54 5.55078Z" fill="url(#paint0_linear_64_119)"/>
<path d="M11.1836 1.00098V4.68309C11.1836 5.36306 11.731 5.91046 12.411 5.91046H16.0931L11.1836 1.00098Z" fill="#87CEAC"/>
<path d="M4.22737 1C3.55168 1 3 1.55595 3 2.23165V2.33428C3 1.65859 3.55168 1.10691 4.22737 1.10691H11.181V1H4.22737Z" fill="white" fill-opacity="0.2"/>
<path d="M14.8632 18.8924H4.22737C3.55168 18.8924 3 18.3407 3 17.665V17.7677C3 18.4434 3.55168 18.995 4.22737 18.995H14.8589C15.5346 18.995 16.0862 18.4434 16.0862 17.7677V17.665C16.0862 18.3407 15.5346 18.8924 14.8632 18.8924Z" fill="#263238" fill-opacity="0.2"/>
<path d="M12.409 5.90999C11.729 5.90999 11.1816 5.36259 11.1816 4.68262V4.78525C11.1816 5.46523 11.729 6.01262 12.409 6.01262H16.0911V5.90999H12.409Z" fill="#263238" fill-opacity="0.1"/>
<defs>
<linearGradient id="paint0_linear_64_119" x1="13.8139" y1="5.94253" x2="13.8139" y2="10.1007" gradientUnits="userSpaceOnUse">
<stop stop-color="#263238"/>
<stop offset="1" stop-color="#263238"/>
</linearGradient>
</defs>
</svg>
