<svg width="20" height="20" viewBox="0 0 20 20" fill="none" xmlns="http://www.w3.org/2000/svg">
<path d="M11.1785 1H4.22768C3.55065 1 3 1.55065 3 2.22768V17.7723C3 18.4493 3.55065 19 4.22768 19H14.8616C15.5386 19 16.0893 18.4493 16.0893 17.7723V5.91073L13.2232 3.86158L11.1785 1Z" fill="#F4B400"/>
<path d="M12.2033 9.18359H6.8863C6.54779 9.18359 6.27246 9.46343 6.27246 9.79744V15.1144C6.27246 15.4529 6.5523 15.7282 6.8863 15.7282H12.2078C12.5463 15.7282 12.8216 15.4484 12.8216 15.1144V9.79744C12.8171 9.45892 12.5373 9.18359 12.2033 9.18359ZM12.0001 13.8867H7.08941V11.0206H11.9956V13.8867H12.0001Z" fill="#F1F1F1"/>
<path d="M11.5391 5.5498L16.0887 10.0995V5.91089L11.5391 5.5498Z" fill="url(#paint0_linear_64_120)"/>
<path d="M11.1797 1.00195V4.68049C11.1797 5.35752 11.7258 5.90817 12.4074 5.90817H16.0859L11.1797 1.00195Z" fill="#FADA80"/>
<path d="M11.1787 1V1.10381L15.9856 5.91073H16.0894L11.1787 1Z" fill="white" fill-opacity="0.1"/>
<path d="M4.22768 1C3.55065 1 3 1.55065 3 2.22768V2.33149C3 1.65446 3.55065 1.10381 4.22768 1.10381H11.1785V1H4.22768Z" fill="white" fill-opacity="0.2"/>
<path d="M14.8616 18.8957H4.22768C3.55065 18.8957 3 18.345 3 17.668V17.7718C3 18.4488 3.55065 18.9995 4.22768 18.9995H14.8616C15.5386 18.9995 16.0893 18.4488 16.0893 17.7718V17.668C16.0893 18.345 15.5386 18.8957 14.8616 18.8957Z" fill="#BF360C" fill-opacity="0.2"/>
<path d="M12.4113 5.91128C11.7342 5.91128 11.1836 5.36514 11.1836 4.68359V4.78741C11.1836 5.46444 11.7297 6.01509 12.4113 6.01509H16.0898V5.91128H12.4113Z" fill="#BF360C" fill-opacity="0.1"/>
<defs>
<linearGradient id="paint0_linear_64_120" x1="13.8146" y1="5.94241" x2="13.8146" y2="10.1006" gradientUnits="userSpaceOnUse">
<stop stop-color="#BF360C"/>
<stop offset="1" stop-color="#BF360C"/>
</linearGradient>
</defs>
</svg>
