<svg width="20" height="20" viewBox="0 0 20 20" fill="none" xmlns="http://www.w3.org/2000/svg">
<path fill-rule="evenodd" clip-rule="evenodd" d="M16.135 2.33691H4.16465C3.13143 2.33691 2.2998 3.16854 2.2998 4.20176V16.1973C2.2998 17.2305 3.13143 18.0621 4.16465 18.0621H16.135C17.1682 18.0621 17.9998 17.2305 17.9998 16.1973V4.20176C17.9998 3.16854 17.1682 2.33691 16.135 2.33691ZM9.05358 13.652C9.05358 14.0048 8.77637 14.282 8.42356 14.282H5.80269C5.44989 14.282 5.17268 14.0048 5.17268 13.652V5.86501C5.17268 5.5122 5.44989 5.23499 5.80269 5.23499H8.42356C8.77637 5.23499 9.05358 5.5122 9.05358 5.86501V13.652ZM15.1017 10.0735C15.1017 10.4263 14.8245 10.7035 14.4969 10.7035H11.8509C11.498 10.7035 11.2208 10.4263 11.2208 10.0735V5.86501C11.2208 5.5122 11.498 5.23499 11.8509 5.23499H14.4717C14.8245 5.23499 15.1017 5.5122 15.1017 5.86501V10.0735Z" fill="url(#paint0_linear_64_112)"/>
<defs>
<linearGradient id="paint0_linear_64_112" x1="10.1485" y1="18.0621" x2="10.1485" y2="2.33943" gradientUnits="userSpaceOnUse">
<stop stop-color="#0050D3"/>
<stop offset="1" stop-color="#0082FF"/>
</linearGradient>
</defs>
</svg>
